<?xml version="1.0" encoding="UTF-8" standalone="no"?>
<svg
   version="1.1"
   width="1.9685000000"
   height="1.9685000000"
   viewBox="0 0 141.7323 141.7323"
   id="svg5"
   sodipodi:docname="Comm__tower.svg"
   inkscape:version="1.4 (e7c3feb1, 2024-10-09)"
   xmlns:inkscape="http://www.inkscape.org/namespaces/inkscape"
   xmlns:sodipodi="http://sodipodi.sourceforge.net/DTD/sodipodi-0.dtd"
   xmlns="http://www.w3.org/2000/svg"
   xmlns:svg="http://www.w3.org/2000/svg">
  <defs
     id="defs5" />
  <sodipodi:namedview
     id="namedview5"
     pagecolor="#ffffff"
     bordercolor="#000000"
     borderopacity="0.25"
     inkscape:showpageshadow="2"
     inkscape:pageopacity="0.0"
     inkscape:pagecheckerboard="0"
     inkscape:deskcolor="#d1d1d1"
     inkscape:zoom="185.20845"
     inkscape:cx="4.3545529"
     inkscape:cy="-0.0053993216"
     inkscape:window-width="2560"
     inkscape:window-height="1027"
     inkscape:window-x="0"
     inkscape:window-y="25"
     inkscape:window-maximized="1"
     inkscape:current-layer="svg5" />
  <title
     id="title1"><![CDATA[Comm. tower]]></title>
  <g
     transform=" scale(1.000000) "
     id="g5">
    <path
       d="  M68.3858,40.8461 L63.3431,40.4810 L65.9876,38.7878 L60.9449,38.4227 M80.7874,38.4227 L75.7024,41.1024 L77.1913,38.1664 L72.1063,40.8461 M70.8661,39.6344 L69.6260,33.5760 L72.1063,35.9993 L70.8661,29.9409"
       style="stroke-width: 1.2000; stroke: #000000; stroke-dasharray: none; stroke-linecap: round; stroke-linejoin: round; fill: none; "
       id="path1" />
    <path
       d="  M60.9449,95.6693 L70.8661,100.6299 L80.7874,95.6693 L70.8661,41.1024 L60.9449,95.6693 Z"
       style="stroke-width: 0.7200; stroke: #000000; stroke-dasharray: none; stroke-linecap: round; stroke-linejoin: round; fill: none; "
       id="path2" />
    <g
       id="Layer1104">
      <path
         d="  M69.6260,44.8228 L70.8661,43.5827 L72.1063,44.8228 L72.7264,48.5433 L70.8661,49.7835 L69.0059,48.5433 L69.6260,44.8228 Z"
         style="stroke-width: 0.2400; stroke-linecap: round; stroke-linejoin: round; fill-rule: evenodd; fill: #666666; "
         id="path3" />
      <path
         d="  M60.9449,95.6693 L70.8661,90.7087 L80.7874,95.6693 M70.8661,41.1024 L70.8661,100.6299 L60.9449,95.6693 L70.8661,41.1024 L80.7874,95.6693 L70.8661,100.6299 M68.3858,54.7441 L70.8661,55.9843 L73.3465,54.7441 M67.5591,59.2913 L70.8661,60.9449 L74.1991,59.3172 M66.7323,63.8386 L70.8661,65.9055 L74.8967,63.7352 M65.9055,68.3858 L70.8661,70.8661 L75.8268,68.3858 M65.0787,72.9331 L70.8661,75.8268 L76.6535,72.9331 M64.2520,77.4803 L70.8661,80.7874 L77.3770,77.3770 M63.4252,82.0276 L70.8661,85.7480 L78.3071,82.0276 M62.5984,86.5748 L70.8661,90.7087 L79.1597,86.6006 M61.7717,91.1220 L70.8661,95.6693 L79.8573,91.0187 M69.6260,44.8228 L70.8661,43.5827 L72.1063,44.8228 L72.7264,48.5433 L70.8661,49.7835 L69.0059,48.5433 L69.6260,44.8228 Z"
         style="stroke-width: 0.2400; stroke: #000000; stroke-dasharray: none; stroke-linecap: round; stroke-linejoin: round; fill: none; "
         id="path4" />
    </g>
    <path
       d="  M68.3858,40.8461 L63.3431,40.4810 L65.9876,38.7878 L60.9449,38.4227 M80.7874,38.4227 L75.7024,41.1024 L77.1913,38.1664 L72.1063,40.8461 M70.8661,39.6344 L69.6260,33.5760 L72.1063,35.9993 L70.8661,29.9409"
       style="stroke-width: 0.7200; stroke: #000000; stroke-dasharray: none; stroke-linecap: round; stroke-linejoin: round; fill: none; "
       id="path5" />
    <!--converted by libvisio2svg-->
  </g>
</svg>
