<?xml version="1.0" encoding="UTF-8" standalone="no"?>
<svg
   version="1.1"
   width="1.9685000000"
   height="1.9685000000"
   viewBox="0 0 141.7323 141.7323"
   id="svg42"
   sodipodi:docname="Fax.svg"
   inkscape:version="1.4 (e7c3feb1, 2024-10-09)"
   xmlns:inkscape="http://www.inkscape.org/namespaces/inkscape"
   xmlns:sodipodi="http://sodipodi.sourceforge.net/DTD/sodipodi-0.dtd"
   xmlns:xlink="http://www.w3.org/1999/xlink"
   xmlns="http://www.w3.org/2000/svg"
   xmlns:svg="http://www.w3.org/2000/svg">
  <defs
     id="defs42" />
  <sodipodi:namedview
     id="namedview42"
     pagecolor="#ffffff"
     bordercolor="#000000"
     borderopacity="0.25"
     inkscape:showpageshadow="2"
     inkscape:pageopacity="0.0"
     inkscape:pagecheckerboard="0"
     inkscape:deskcolor="#d1d1d1"
     inkscape:zoom="47.17149"
     inkscape:cx="1.7065393"
     inkscape:cy="1.1659585"
     inkscape:window-width="2560"
     inkscape:window-height="1027"
     inkscape:window-x="0"
     inkscape:window-y="25"
     inkscape:window-maximized="1"
     inkscape:current-layer="svg42" />
  <title
     id="title1"><![CDATA[Fax]]></title>
  <g
     transform=" scale(1.000000) "
     id="g42">
    <path
       d="  M59.5276,85.0394 L59.5276,87.8740 L89.2913,87.8740 L89.2913,85.0394 L59.5276,85.0394 Z"
       style="fill-rule: evenodd; fill: #9a9a9a; "
       id="path1" />
    <path
       d="  M89.2913,87.8740 L104.8819,72.2835 L104.8819,69.4488 L89.2913,85.0394 L89.2913,87.8740 Z"
       style="fill-rule: evenodd; fill: #9a9a9a; "
       id="path2" />
    <path
       d="  M90.7087,85.0394 L107.0079,68.7402 L107.0079,53.8583 L94.2520,66.6142 L90.7087,73.7008 L90.7087,85.0394 Z"
       style="fill-rule: evenodd; fill: #9a9a9a; "
       id="path3" />
    <g
       id="Layer1093">
      <path
         d="  M58.1102,73.7008 L90.7087,73.7008 L90.7087,85.0394 L58.1102,85.0394 L58.1102,73.7008 Z"
         style="stroke-width: 0.2400; stroke-linecap: round; stroke-linejoin: round; fill-rule: evenodd; fill: #c0c0c0; "
         id="path4" />
      <path
         d="  M58.1102,73.7008 L90.7087,73.7008 L90.7087,85.0394 L58.1102,85.0394 L58.1102,73.7008 Z"
         style="stroke-width: 0.2400; stroke: #000000; stroke-dasharray: none; stroke-linecap: round; stroke-linejoin: round; fill: none; "
         id="path5" />
    </g>
    <g
       id="Layer1094">
      <path
         d="  M51.0236,73.7008 L59.5276,56.6929 L72.9921,56.6929 L67.3228,73.7008 L51.0236,73.7008 Z"
         style="stroke-width: 0.2400; stroke-linecap: round; stroke-linejoin: round; fill-rule: evenodd; fill: #e6e6e6; "
         id="path6" />
      <path
         d="  M51.0236,73.7008 L59.5276,56.6929 L72.9921,56.6929 L67.3228,73.7008 L51.0236,73.7008 Z"
         style="stroke-width: 0.2400; stroke: #000000; stroke-dasharray: none; stroke-linecap: round; stroke-linejoin: round; fill: none; "
         id="path7" />
    </g>
    <path
       d="  M61.6535,66.6142 L74.4094,53.8583 L107.0079,53.8583 L94.2520,66.6142 L61.6535,66.6142 Z"
       style="fill-rule: evenodd; fill: #e6e6e6; "
       id="path8" />
    <g
       id="Layer1095">
      <path
         d="  M51.7323,75.8268 L51.7323,77.2441 L58.1102,77.2441 L58.1102,75.8268 L51.7323,75.8268 Z"
         style="stroke-width: 0.2400; stroke-linecap: round; stroke-linejoin: round; fill-rule: evenodd; fill: #9a9a9a; "
         id="path9" />
      <path
         d="  M51.7323,75.8268 L51.7323,77.2441 L58.1102,77.2441 L58.1102,75.8268 L51.7323,75.8268 Z"
         style="stroke-width: 0.2400; stroke: #000000; stroke-dasharray: none; stroke-linecap: round; stroke-linejoin: round; fill: none; "
         id="path10" />
    </g>
    <g
       id="Layer1096">
      <path
         d="  M51.0236,73.7008 L51.0236,75.8268 L58.1102,75.8268 L58.1102,73.7008 L51.0236,73.7008 Z"
         style="stroke-width: 0.2400; stroke-linecap: round; stroke-linejoin: round; fill-rule: evenodd; fill: #c0c0c0; "
         id="path11" />
      <path
         d="  M51.0236,73.7008 L51.0236,75.8268 L58.1102,75.8268 L58.1102,73.7008 L51.0236,73.7008 Z"
         style="stroke-width: 0.2400; stroke: #000000; stroke-dasharray: none; stroke-linecap: round; stroke-linejoin: round; fill: none; "
         id="path12" />
    </g>
    <path
       d="  M59.5276,87.8740 L59.5276,85.0394 L58.1102,85.0394 L58.1102,77.2441 L51.7323,77.2441 L51.7323,75.8268 L51.0236,75.8268 L51.0236,73.7008 L59.5276,56.6929 L71.5748,56.6929 L74.4094,53.8583 L107.0079,53.8583 L107.0079,68.7402 L104.8819,70.8661 L104.8819,72.2835 L89.2913,87.8740 L59.5276,87.8740 Z"
       style="stroke-width: 0.7200; stroke: #000000; stroke-dasharray: none; stroke-linecap: round; stroke-linejoin: round; fill: none; "
       id="path13" />
    <path
       d="  M65.9055,64.9398 L75.1181,55.7272 L70.8661,62.8138 L65.9055,64.9398 Z"
       style="fill-rule: evenodd; fill: #9a9a9a; "
       id="path14" />
    <path
       d="  M75.1181,55.7272 L102.0472,55.7272 L94.9606,62.8138 L70.8661,62.8138 L75.1181,55.7272 Z"
       style="fill-rule: evenodd; fill: #c0c0c0; "
       id="path15" />
    <g
       id="Layer1097">
      <path
         d="  M65.3740,55.6299 L62.7165,60.9449 L63.7795,62.3622 L65.9055,58.1102 L65.3740,55.6299 Z M57.0472,60.9449 L62.7165,60.9449 L63.7795,62.3622 L58.1102,62.3622 L57.0472,60.9449 Z M60.4134,65.5512 L57.7559,70.8661 L58.8189,72.2835 L60.9449,68.0315 L60.4134,65.5512 Z M52.0866,70.8661 L57.7559,70.8661 L58.8189,72.2835 L53.1496,72.2835 L52.0866,70.8661 Z"
         style="stroke-width: 0.2400; stroke-linecap: round; stroke-linejoin: round; fill-rule: evenodd; fill: #9a9a9a; "
         id="path16" />
      <path
         d="  M65.3740,55.6299 L62.7165,60.9449 L63.7795,62.3622 L65.9055,58.1102 L65.3740,55.6299 Z M57.0472,60.9449 L62.7165,60.9449 L63.7795,62.3622 L58.1102,62.3622 L57.0472,60.9449 Z M60.4134,65.5512 L57.7559,70.8661 L58.8189,72.2835 L60.9449,68.0315 L60.4134,65.5512 Z M52.0866,70.8661 L57.7559,70.8661 L58.8189,72.2835 L53.1496,72.2835 L52.0866,70.8661 Z"
         style="stroke-width: 0.2400; stroke: #000000; stroke-dasharray: none; stroke-linecap: round; stroke-linejoin: round; fill: none; "
         id="path17" />
    </g>
    <g
       id="Layer1098">
      <path
         d="  M58.1102,73.7008 L61.6535,66.6142 L94.2520,66.6142 L90.7087,73.7008 L58.1102,73.7008 Z"
         style="stroke-width: 0.2400; stroke-linecap: round; stroke-linejoin: round; fill-rule: evenodd; fill: #e6e6e6; "
         id="path18" />
      <path
         d="  M58.1102,73.7008 L61.6535,66.6142 L94.2520,66.6142 L90.7087,73.7008 L58.1102,73.7008 Z"
         style="stroke-width: 0.2400; stroke: #000000; stroke-dasharray: none; stroke-linecap: round; stroke-linejoin: round; fill: none; "
         id="path19" />
    </g>
    <defs
       id="defs20">
      <linearGradient
         id="grad209">
        <stop
           offset="0%"
           stop-color="#8a8aff"
           stop-opacity="1.0000"
           id="stop19" />
        <stop
           offset="100%"
           stop-color="#ffffff"
           stop-opacity="1.0000"
           id="stop20" />
      </linearGradient>
      <linearGradient
         xlink:href="#grad209"
         id="grad210"
         x1="0"
         y1="0"
         x2="0"
         y2="1"
         gradientTransform="rotate(135 .5 .5)"
         gradientUnits="objectBoundingBox" />
    </defs>
    <path
       d="  M89.2913,72.6378 L91.7717,67.6772 L84.3307,67.6772 L81.8504,72.6378 L89.2913,72.6378 Z"
       style="fill-rule: evenodd; fill: url(#grad210); "
       id="path20" />
    <g
       id="Layer1099">
      <defs
         id="defs23">
        <linearGradient
           id="grad211">
          <stop
             offset="0%"
             stop-color="#9a9a9a"
             stop-opacity="1.0000"
             id="stop21" />
          <stop
             offset="50%"
             stop-color="#e6e6e6"
             stop-opacity="1.0000"
             id="stop22" />
          <stop
             offset="100%"
             stop-color="#9a9a9a"
             stop-opacity="1.0000"
             id="stop23" />
        </linearGradient>
      </defs>
      <path
         d="  M82.7362,68.3858 L83.2677,67.3228 L81.6732,67.3228 L81.1417,68.3858 L82.7362,68.3858 Z M80.6102,68.3858 L81.1417,67.3228 L79.5472,67.3228 L79.0157,68.3858 L80.6102,68.3858 Z M78.4843,68.3858 L79.0157,67.3228 L77.4213,67.3228 L76.8898,68.3858 L78.4843,68.3858 Z M77.7756,69.8031 L78.3071,68.7402 L76.7126,68.7402 L76.1811,69.8031 L77.7756,69.8031 Z M77.0669,71.2205 L77.5984,70.1575 L76.0039,70.1575 L75.4724,71.2205 L77.0669,71.2205 Z M76.3583,72.6378 L76.8898,71.5748 L75.2953,71.5748 L74.7638,72.6378 L76.3583,72.6378 Z M78.4843,72.6378 L79.0157,71.5748 L77.4213,71.5748 L76.8898,72.6378 L78.4843,72.6378 Z M79.1929,71.2205 L79.7244,70.1575 L78.1299,70.1575 L77.5984,71.2205 L79.1929,71.2205 Z M79.9016,69.8031 L80.4331,68.7402 L78.8386,68.7402 L78.3071,69.8031 L79.9016,69.8031 Z M82.0276,69.8031 L82.5591,68.7402 L80.9646,68.7402 L80.4331,69.8031 L82.0276,69.8031 Z M81.3189,71.2205 L81.8504,70.1575 L80.2559,70.1575 L79.7244,71.2205 L81.3189,71.2205 Z M80.6102,72.6378 L81.1417,71.5748 L79.5472,71.5748 L79.0157,72.6378 L80.6102,72.6378 Z"
         style="stroke-width: 0.1200; stroke-linecap: round; stroke-linejoin: round; fill-rule: evenodd; fill: url(#grad211); "
         id="path23" />
      <path
         d="  M82.7362,68.3858 L83.2677,67.3228 L81.6732,67.3228 L81.1417,68.3858 L82.7362,68.3858 Z M80.6102,68.3858 L81.1417,67.3228 L79.5472,67.3228 L79.0157,68.3858 L80.6102,68.3858 Z M78.4843,68.3858 L79.0157,67.3228 L77.4213,67.3228 L76.8898,68.3858 L78.4843,68.3858 Z M77.7756,69.8031 L78.3071,68.7402 L76.7126,68.7402 L76.1811,69.8031 L77.7756,69.8031 Z M77.0669,71.2205 L77.5984,70.1575 L76.0039,70.1575 L75.4724,71.2205 L77.0669,71.2205 Z M76.3583,72.6378 L76.8898,71.5748 L75.2953,71.5748 L74.7638,72.6378 L76.3583,72.6378 Z M78.4843,72.6378 L79.0157,71.5748 L77.4213,71.5748 L76.8898,72.6378 L78.4843,72.6378 Z M79.1929,71.2205 L79.7244,70.1575 L78.1299,70.1575 L77.5984,71.2205 L79.1929,71.2205 Z M79.9016,69.8031 L80.4331,68.7402 L78.8386,68.7402 L78.3071,69.8031 L79.9016,69.8031 Z M82.0276,69.8031 L82.5591,68.7402 L80.9646,68.7402 L80.4331,69.8031 L82.0276,69.8031 Z M81.3189,71.2205 L81.8504,70.1575 L80.2559,70.1575 L79.7244,71.2205 L81.3189,71.2205 Z M80.6102,72.6378 L81.1417,71.5748 L79.5472,71.5748 L79.0157,72.6378 L80.6102,72.6378 Z"
         style="stroke-width: 0.1200; stroke: #000000; stroke-dasharray: none; stroke-linecap: round; stroke-linejoin: round; fill: none; "
         id="path24" />
    </g>
    <g
       id="Layer1100">
      <path
         d="  M56.6929,59.5276 L57.0472,60.9449 L62.7165,60.9449 L62.3622,59.5276 L56.6929,59.5276 Z"
         style="stroke-width: 0.2400; stroke-linecap: round; stroke-linejoin: round; fill-rule: evenodd; fill: #9a9a9a; "
         id="path25" />
      <path
         d="  M56.6929,59.5276 L57.0472,60.9449 L62.7165,60.9449 L62.3622,59.5276 L56.6929,59.5276 Z"
         style="stroke-width: 0.2400; stroke: #000000; stroke-dasharray: none; stroke-linecap: round; stroke-linejoin: round; fill: none; "
         id="path26" />
    </g>
    <path
       d="  M57.4016,68.0315 L51.7323,68.0315 L51.7323,69.4488 L57.4016,69.4488 L57.4016,68.0315 Z"
       style="fill-rule: evenodd; fill: #e6e6e6; "
       id="path27" />
    <path
       d="  M64.8425,54.5669 L64.1339,54.5669 L57.4016,68.0315 L57.4016,69.4488 L64.8425,54.5669 Z"
       style="fill-rule: evenodd; fill: #e6e6e6; "
       id="path28" />
    <path
       d="  M52.0866,70.8661 L57.7559,70.8661 L60.4134,65.5512"
       style="stroke-width: 0.2400; stroke: #000000; stroke-dasharray: none; stroke-linecap: round; stroke-linejoin: round; fill: none; "
       id="path29" />
    <path
       d="  M62.7165,60.9449 L65.3740,55.6299"
       style="stroke-width: 0.2400; stroke: #000000; stroke-dasharray: none; stroke-linecap: round; stroke-linejoin: round; fill: none; "
       id="path30" />
    <path
       d="  M52.7953,67.1457 L58.8189,55.0984 L58.4646,54.5669 L51.7323,68.0315 L52.7953,67.1457 Z M58.8189,55.0984 L63.2480,55.0984 L64.1339,54.5669 L58.4646,54.5669 L58.8189,55.0984 Z"
       style="fill-rule: evenodd; fill: #ffffff; "
       id="path31" />
    <path
       d="  M63.6024,68.7402 L64.1339,67.6772 L62.5394,67.6772 L62.0079,68.7402 L63.6024,68.7402 Z"
       style="fill-rule: evenodd; fill: #ff0000; "
       id="path32" />
    <g
       id="Layer1101">
      <defs
         id="defs33">
        <linearGradient
           id="grad212">
          <stop
             offset="0%"
             stop-color="#ffffff"
             stop-opacity="1.0000"
             id="stop32" />
          <stop
             offset="100%"
             stop-color="#e6e6e6"
             stop-opacity="1.0000"
             id="stop33" />
        </linearGradient>
        <linearGradient
           xlink:href="#grad212"
           id="grad213"
           x1="0"
           y1="0"
           x2="0"
           y2="1"
           gradientTransform="rotate(180 .5 .5)"
           gradientUnits="objectBoundingBox" />
      </defs>
      <path
         d="  M71.9283,50.3150 L89.4166,50.3150 A10.7806,11.0070 0.0000 0,0 98.5039,62.8138 L81.0157,62.8138 A10.7806,11.0070 0.0000 0,1 71.9283,50.3150 Z"
         style="stroke-width: 0.2400; stroke-linecap: round; stroke-linejoin: round; fill-rule: evenodd; fill: url(#grad213); "
         id="path33" />
      <path
         d="  M71.9283,50.3150 L89.4166,50.3150 A10.7806,11.0070 0.0000 0,0 98.5039,62.8138 L81.0157,62.8138 A10.7806,11.0070 0.0000 0,1 71.9283,50.3150 Z"
         style="stroke-width: 0.2400; stroke: #000000; stroke-dasharray: none; stroke-linecap: round; stroke-linejoin: round; fill: none; "
         id="path34" />
    </g>
    <g
       id="Layer1102">
      <path
         d="  M81.5992,58.8774 L87.5307,58.8774 A6.5145,6.6513 0.0000 0,0 89.6067,55.2438 L83.0821,55.2438 A4.9676,5.0720 0.0000 0,1 81.5992,58.8774 Z"
         style="stroke-width: 0.1200; stroke-linecap: round; stroke-linejoin: round; fill-rule: evenodd; "
         id="path35" />
      <path
         d="  M81.5992,58.8774 L87.5307,58.8774 A6.5145,6.6513 0.0000 0,0 89.6067,55.2438 L83.0821,55.2438 A4.9676,5.0720 0.0000 0,1 81.5992,58.8774 Z"
         style="stroke-width: 0.1200; stroke: #000000; stroke-dasharray: none; stroke-linecap: round; stroke-linejoin: round; fill: none; "
         id="path36" />
    </g>
    <path
       d="  M84.2684,54.3354 L82.1924,54.3354 M85.1581,54.3354 L94.9451,54.3354 M82.1924,52.8214 L97.0211,52.8214 M89.6067,57.3634 L93.4622,57.3634 M90.4964,55.8494 L94.0553,55.8494 M86.6410,61.2998 L89.6067,61.2998 M79.2266,61.2998 L85.1581,61.2998 M80.7095,59.7858 L91.0896,59.7858"
       style="stroke-width: 0.1200; stroke: #000000; stroke-dasharray: none; stroke-linecap: round; stroke-linejoin: round; fill: none; "
       id="path37" />
    <path
       d="  M62.1850,71.5748 L62.7165,70.5118 L61.1220,70.5118 L60.5906,71.5748 L62.1850,71.5748 Z M62.8937,70.1575 L63.4252,69.0945 L61.8307,69.0945 L61.2992,70.1575 L62.8937,70.1575 Z"
       style="fill-rule: evenodd; fill: #00ff00; "
       id="path38" />
    <g
       id="Layer1103">
      <path
         d="  M64.1339,54.5669 L58.4646,54.5669 L51.7323,68.0315 L57.4016,68.0315 L64.1339,54.5669 Z"
         style="stroke-width: 0.2400; stroke-linecap: round; stroke-linejoin: round; fill-rule: evenodd; fill: #e6e6e6; "
         id="path39" />
      <path
         d="  M64.1339,54.5669 L58.4646,54.5669 L51.7323,68.0315 L57.4016,68.0315 L64.1339,54.5669 Z"
         style="stroke-width: 0.2400; stroke: #000000; stroke-dasharray: none; stroke-linecap: round; stroke-linejoin: round; fill: none; "
         id="path40" />
    </g>
    <path
       d="  M51.7323,68.0315 L52.7953,67.1457 L57.2244,67.1457 L57.4016,68.0315 L51.7323,68.0315 Z M57.2244,67.1457 L63.2480,55.0984 L64.1339,54.5669 L57.4016,68.0315 L57.2244,67.1457 Z M51.7323,69.4488 L52.0866,70.8661 L57.7559,70.8661 L57.4016,69.4488 L51.7323,69.4488 Z M60.4134,65.5512 L57.7559,70.8661 L57.4016,69.4488 L59.8819,64.4882 L60.4134,65.5512 Z M65.3740,55.6299 L62.7165,60.9449 L62.3622,59.5276 L64.8425,54.5669 L65.3740,55.6299 Z"
       style="fill-rule: evenodd; fill: #c0c0c0; "
       id="path41" />
    <path
       d="  M58.8189,72.2835 L57.7559,70.8661 L57.4016,69.4488 L57.4016,68.0315 L64.1339,54.5669 L64.8425,54.5669 L65.3740,55.6299 L65.9055,58.1102 L63.7795,62.3622 L62.7165,60.9449 L62.3622,59.5276 L59.8819,64.4882 L60.4134,65.5512 L60.9449,68.0315 L58.8189,72.2835 Z M51.7323,68.0315 L51.7323,69.4488 L52.0866,70.8661 L53.1496,72.2835 L58.8189,72.2835 L57.7559,70.8661 L57.4016,69.4488 L57.4016,68.0315 L51.7323,68.0315 Z M64.1339,54.5669 L58.4646,54.5669 L51.7323,68.0315 L57.4016,68.0315 L64.1339,54.5669 Z"
       style="stroke-width: 0.2400; stroke: #000000; stroke-dasharray: none; stroke-linecap: round; stroke-linejoin: round; fill: none; "
       id="path42" />
    <!--converted by libvisio2svg-->
  </g>
</svg>
