<?xml version="1.0" encoding="UTF-8" standalone="no"?>
<svg
   version="1.1"
   width="3.9370000000"
   height="3.9370000000"
   viewBox="0 0 283.4646 283.4646"
   id="svg10"
   sodipodi:docname="Firewall.svg"
   inkscape:version="1.4 (e7c3feb1, 2024-10-09)"
   xmlns:inkscape="http://www.inkscape.org/namespaces/inkscape"
   xmlns:sodipodi="http://sodipodi.sourceforge.net/DTD/sodipodi-0.dtd"
   xmlns="http://www.w3.org/2000/svg"
   xmlns:svg="http://www.w3.org/2000/svg">
  <defs
     id="defs10" />
  <sodipodi:namedview
     id="namedview10"
     pagecolor="#ffffff"
     bordercolor="#000000"
     borderopacity="0.25"
     inkscape:showpageshadow="2"
     inkscape:pageopacity="0.0"
     inkscape:pagecheckerboard="0"
     inkscape:deskcolor="#d1d1d1"
     inkscape:zoom="27.453362"
     inkscape:cx="0.92884799"
     inkscape:cy="2.9868837"
     inkscape:window-width="2560"
     inkscape:window-height="1027"
     inkscape:window-x="0"
     inkscape:window-y="25"
     inkscape:window-maximized="1"
     inkscape:current-layer="svg10" />
  <title
     id="title1"><![CDATA[Firewall]]></title>
  <g
     transform=" scale(1.000000) "
     id="g10">
    <g
       id="Layer1153">
      <path
         d="  M144.9213,162.8150 L171.4961,136.2402 L171.4961,96.3780 L144.9213,122.9528 L144.9213,162.8150 Z"
         style="stroke-width: 0.7200; stroke-linecap: round; stroke-linejoin: round; fill-rule: evenodd; fill: #d0624f; "
         id="path1" />
      <path
         d="  M144.9213,162.8150 L171.4961,136.2402 L171.4961,96.3780 L144.9213,122.9528 L144.9213,162.8150 Z"
         style="stroke-width: 0.7200; stroke: #000000; stroke-dasharray: none; stroke-linecap: round; stroke-linejoin: round; fill: none; "
         id="path2" />
    </g>
    <path
       d="  M144.9213,129.5034 L148.2431,126.1816 L151.5650,122.8597 L154.8868,119.5379 L158.2087,116.2160 L161.5305,112.8942 L164.8524,109.5723 L168.1742,106.2505 M144.9213,136.1471 L148.2431,132.8253 L151.5650,129.5034 L154.8868,126.1816 L158.2087,122.8597 L161.5305,119.5379 L164.8524,116.2160 L168.1742,112.8942 L171.4961,109.5723 M144.9213,142.7908 L148.2431,139.4690 L151.5650,136.1471 L154.8868,132.8253 L158.2087,129.5034 L161.5305,126.1816 L164.8524,122.8597 L168.1742,119.5379 L171.4961,116.2160 M144.9213,149.4345 L148.2431,146.1127 L151.5650,142.7908 L154.8868,139.4690 L158.2087,136.1471 L161.5305,132.8253 L164.8524,129.5034 L168.1742,126.1816 L171.4961,122.8597 M144.9213,156.0782 L148.2431,152.7564 L151.5650,149.4345 L154.8868,146.1127 L158.2087,142.7908 L161.5305,139.4690 L164.8524,136.1471 L168.1742,132.8253 L171.4961,129.5034 M148.2431,126.1816 L148.2431,119.5379 M148.2431,139.4690 L148.2431,132.8253 M148.2431,152.7564 L148.2431,146.1127 M151.5650,156.0782 L151.5650,149.4345 M151.5650,129.5034 L151.5650,122.8597 M151.5650,142.7908 L151.5650,136.1471 M154.8868,119.5379 L154.8868,112.8942 M154.8868,132.8253 L154.8868,126.1816 M154.8868,146.1127 L154.8868,139.4690 M158.2087,149.4345 L158.2087,142.7908 M158.2087,122.8597 L158.2087,116.2160 M158.2087,136.1471 L158.2087,129.5034 M161.5305,112.8942 L161.5305,106.2505 M161.5305,126.1816 L161.5305,119.5379 M161.5305,139.4690 L161.5305,132.8253 M164.8524,142.7908 L164.8524,136.1471 M164.8524,116.2160 L164.8524,109.5723 M164.8524,129.5034 L164.8524,122.8597 M168.1742,119.5379 L168.1742,112.8942 M168.1742,132.8253 L168.1742,126.1816 M168.1742,106.2505 L168.1742,99.6068 M168.1742,106.2505 L171.4961,102.9286"
       style="stroke-width: 0.7200; stroke: #000000; stroke-dasharray: none; stroke-linecap: butt; stroke-linejoin: miter; fill: none; "
       id="path3" />
    <g
       id="Layer1154">
      <path
         d="  M138.8976,162.8150 L138.8976,122.9528 L144.5669,122.9528 L144.5669,162.8150 L138.8976,162.8150 Z"
         style="stroke-width: 0.7200; stroke-linecap: round; stroke-linejoin: round; fill-rule: evenodd; fill: #dc7e5f; "
         id="path4" />
      <path
         d="  M138.8976,162.8150 L138.8976,122.9528 L144.5669,122.9528 L144.5669,162.8150 L138.8976,162.8150 Z"
         style="stroke-width: 0.7200; stroke: #000000; stroke-dasharray: none; stroke-linecap: round; stroke-linejoin: round; fill: none; "
         id="path5" />
    </g>
    <path
       d="  M147.4016,123.3071 L174.3307,96.3780 L174.3307,93.5433 L147.4016,120.4724 L147.4016,123.3071 Z"
       style="fill-rule: evenodd; fill: #9a9a9a; "
       id="path6" />
    <path
       d="  M136.0630,120.4724 L136.0630,123.3071 L147.4016,123.3071 L147.4016,120.4724 L136.0630,120.4724 Z"
       style="fill-rule: evenodd; fill: #c0c0c0; "
       id="path7" />
    <path
       d="  M136.0630,120.4724 L162.9921,93.5433 L174.3307,93.5433 L147.4016,120.4724 L136.0630,120.4724 Z"
       style="fill-rule: evenodd; fill: #e6e6e6; "
       id="path8" />
    <path
       d="  M144.2126,129.6071 L138.8976,129.6071 M144.2126,136.2508 L138.8976,136.2508 M144.2126,142.8945 L138.8976,142.8945 M144.2126,149.5382 L138.8976,149.5382 M144.2126,156.1819 L138.8976,156.1819"
       style="stroke-width: 0.7200; stroke: #000000; stroke-dasharray: none; stroke-linecap: butt; stroke-linejoin: miter; fill: none; "
       id="path9" />
    <path
       d="  M138.8976,162.9921 L138.8976,123.3071 L136.0630,123.3071 L136.0630,120.4724 L162.9921,93.5433 L174.3307,93.5433 L174.3307,96.3780 L171.4961,99.2126 L171.4961,136.0630 L144.5669,162.9921 L138.8976,162.9921 Z"
       style="stroke-width: 1.2000; stroke: #000000; stroke-dasharray: none; stroke-linecap: round; stroke-linejoin: round; fill: none; "
       id="path10" />
    <!--converted by libvisio2svg-->
  </g>
</svg>
