<?xml version="1.0" encoding="UTF-8" standalone="no"?>
<svg
   version="1.1"
   width="1.9685000000"
   height="1.9685000000"
   viewBox="0 0 141.7323 141.7323"
   id="svg49"
   sodipodi:docname="Hub___switch.svg"
   inkscape:version="1.4 (e7c3feb1, 2024-10-09)"
   xmlns:inkscape="http://www.inkscape.org/namespaces/inkscape"
   xmlns:sodipodi="http://sodipodi.sourceforge.net/DTD/sodipodi-0.dtd"
   xmlns:xlink="http://www.w3.org/1999/xlink"
   xmlns="http://www.w3.org/2000/svg"
   xmlns:svg="http://www.w3.org/2000/svg">
  <defs
     id="defs49" />
  <sodipodi:namedview
     id="namedview49"
     pagecolor="#ffffff"
     bordercolor="#000000"
     borderopacity="0.25"
     inkscape:showpageshadow="2"
     inkscape:pageopacity="0.0"
     inkscape:pagecheckerboard="0"
     inkscape:deskcolor="#d1d1d1"
     inkscape:zoom="84.524455"
     inkscape:cx="1.2718213"
     inkscape:cy="0.15380164"
     inkscape:window-width="2560"
     inkscape:window-height="1027"
     inkscape:window-x="0"
     inkscape:window-y="25"
     inkscape:window-maximized="1"
     inkscape:current-layer="svg49" />
  <title
     id="title1"><![CDATA[Hub / switch]]></title>
  <g
     transform=" scale(1.000000) "
     id="g49">
    <path
       d="  M92.1260,76.5354 L96.3780,72.2835 L93.5433,75.1181 L92.1260,75.1181 L92.1260,76.5354 Z M49.6063,76.5354 L92.1260,76.5354 L92.1260,75.1181 L49.6063,75.1181 L49.6063,76.5354 Z M99.2126,59.5276 L99.2126,69.4488 L93.5433,75.1181 L93.5433,65.1969 L97.7953,60.9449 L99.2126,59.5276 Z"
       style="fill-rule: evenodd; fill: #9a9a9a; "
       id="path1" />
    <path
       d="  M48.1890,65.1969 L53.8583,59.5276 L99.2126,59.5276 L93.5433,65.1969 L48.1890,65.1969 Z"
       style="fill-rule: evenodd; fill: #e6e6e6; "
       id="path2" />
    <g
       id="Layer1047">
      <path
         d="  M48.1890,75.1181 L93.5433,75.1181 L93.5433,65.1969 L48.1890,65.1969 L48.1890,75.1181 Z"
         style="stroke-width: 0.2400; stroke-linecap: round; stroke-linejoin: round; fill-rule: evenodd; fill: #c0c0c0; "
         id="path3" />
      <path
         d="  M48.1890,75.1181 L93.5433,75.1181 L93.5433,65.1969 L48.1890,65.1969 L48.1890,75.1181 Z"
         style="stroke-width: 0.2400; stroke: #000000; stroke-dasharray: none; stroke-linecap: round; stroke-linejoin: round; fill: none; "
         id="path4" />
    </g>
    <path
       d="  M48.8976,74.4094 L92.8346,74.4094 L92.8346,70.8661 L48.8976,70.8661 L48.8976,74.4094 Z"
       style="fill-rule: evenodd; fill: #dbdac6; "
       id="path5" />
    <defs
       id="defs6">
      <linearGradient
         id="grad89">
        <stop
           offset="0%"
           stop-color="#000000"
           stop-opacity="1.0000"
           id="stop5" />
        <stop
           offset="100%"
           stop-color="#ffffff"
           stop-opacity="1.0000"
           id="stop6" />
      </linearGradient>
      <linearGradient
         xlink:href="#grad89"
         id="grad90"
         x1="0"
         y1="0"
         x2="0"
         y2="1"
         gradientTransform="rotate(135 .5 .5)"
         gradientUnits="objectBoundingBox" />
    </defs>
    <path
       d="  M51.1872,69.1490 A0.4361,0.4361 0.0000 1,0 52.0594,69.1490 A0.4361,0.4361 0.0000 0,0 51.1872,69.1490 Z"
       style="fill-rule: evenodd; fill: url(#grad90); "
       id="path6" />
    <defs
       id="defs8">
      <linearGradient
         id="grad91">
        <stop
           offset="0%"
           stop-color="#000000"
           stop-opacity="1.0000"
           id="stop7" />
        <stop
           offset="100%"
           stop-color="#ffffff"
           stop-opacity="1.0000"
           id="stop8" />
      </linearGradient>
      <linearGradient
         xlink:href="#grad91"
         id="grad92"
         x1="0"
         y1="0"
         x2="0"
         y2="1"
         gradientTransform="rotate(135 .5 .5)"
         gradientUnits="objectBoundingBox" />
    </defs>
    <path
       d="  M51.1872,67.4046 A0.4361,0.4361 0.0000 0,0 52.0594,67.4046 A0.4361,0.4361 0.0000 0,0 51.1872,67.4046 Z"
       style="fill-rule: evenodd; fill: url(#grad92); "
       id="path8" />
    <defs
       id="defs10">
      <linearGradient
         id="grad93">
        <stop
           offset="0%"
           stop-color="#000000"
           stop-opacity="1.0000"
           id="stop9" />
        <stop
           offset="100%"
           stop-color="#ffffff"
           stop-opacity="1.0000"
           id="stop10" />
      </linearGradient>
      <linearGradient
         xlink:href="#grad93"
         id="grad94"
         x1="0"
         y1="0"
         x2="0"
         y2="1"
         gradientTransform="rotate(135 .5 .5)"
         gradientUnits="objectBoundingBox" />
    </defs>
    <path
       d="  M82.5863,69.1490 A0.4361,0.4361 0.0000 1,0 83.4585,69.1490 A0.4361,0.4361 0.0000 0,0 82.5863,69.1490 Z"
       style="fill-rule: evenodd; fill: url(#grad94); "
       id="path10" />
    <defs
       id="defs12">
      <linearGradient
         id="grad95">
        <stop
           offset="0%"
           stop-color="#000000"
           stop-opacity="1.0000"
           id="stop11" />
        <stop
           offset="100%"
           stop-color="#ffffff"
           stop-opacity="1.0000"
           id="stop12" />
      </linearGradient>
      <linearGradient
         xlink:href="#grad95"
         id="grad96"
         x1="0"
         y1="0"
         x2="0"
         y2="1"
         gradientTransform="rotate(135 .5 .5)"
         gradientUnits="objectBoundingBox" />
    </defs>
    <path
       d="  M82.5863,67.4046 A0.4361,0.4361 0.0000 1,0 83.4585,67.4046 A0.4361,0.4361 0.0000 0,0 82.5863,67.4046 Z"
       style="fill-rule: evenodd; fill: url(#grad96); "
       id="path12" />
    <defs
       id="defs14">
      <linearGradient
         id="grad97">
        <stop
           offset="0%"
           stop-color="#000000"
           stop-opacity="1.0000"
           id="stop13" />
        <stop
           offset="100%"
           stop-color="#ffffff"
           stop-opacity="1.0000"
           id="stop14" />
      </linearGradient>
      <linearGradient
         xlink:href="#grad97"
         id="grad98"
         x1="0"
         y1="0"
         x2="0"
         y2="1"
         gradientTransform="rotate(135 .5 .5)"
         gradientUnits="objectBoundingBox" />
    </defs>
    <path
       d="  M79.0975,69.1490 A0.4361,0.4361 0.0000 0,0 79.9697,69.1490 A0.4361,0.4361 0.0000 0,0 79.0975,69.1490 Z"
       style="fill-rule: evenodd; fill: url(#grad98); "
       id="path14" />
    <defs
       id="defs16">
      <linearGradient
         id="grad99">
        <stop
           offset="0%"
           stop-color="#000000"
           stop-opacity="1.0000"
           id="stop15" />
        <stop
           offset="100%"
           stop-color="#ffffff"
           stop-opacity="1.0000"
           id="stop16" />
      </linearGradient>
      <linearGradient
         xlink:href="#grad99"
         id="grad100"
         x1="0"
         y1="0"
         x2="0"
         y2="1"
         gradientTransform="rotate(135 .5 .5)"
         gradientUnits="objectBoundingBox" />
    </defs>
    <path
       d="  M79.0975,67.4046 A0.4361,0.4361 0.0000 0,0 79.9697,67.4046 A0.4361,0.4361 0.0000 0,0 79.0975,67.4046 Z"
       style="fill-rule: evenodd; fill: url(#grad100); "
       id="path16" />
    <defs
       id="defs18">
      <linearGradient
         id="grad101">
        <stop
           offset="0%"
           stop-color="#000000"
           stop-opacity="1.0000"
           id="stop17" />
        <stop
           offset="100%"
           stop-color="#ffffff"
           stop-opacity="1.0000"
           id="stop18" />
      </linearGradient>
      <linearGradient
         xlink:href="#grad101"
         id="grad102"
         x1="0"
         y1="0"
         x2="0"
         y2="1"
         gradientTransform="rotate(135 .5 .5)"
         gradientUnits="objectBoundingBox" />
    </defs>
    <path
       d="  M68.6311,69.1490 A0.4361,0.4361 0.0000 0,0 69.5033,69.1490 A0.4361,0.4361 0.0000 0,0 68.6311,69.1490 Z"
       style="fill-rule: evenodd; fill: url(#grad102); "
       id="path18" />
    <defs
       id="defs20">
      <linearGradient
         id="grad103">
        <stop
           offset="0%"
           stop-color="#000000"
           stop-opacity="1.0000"
           id="stop19" />
        <stop
           offset="100%"
           stop-color="#ffffff"
           stop-opacity="1.0000"
           id="stop20" />
      </linearGradient>
      <linearGradient
         xlink:href="#grad103"
         id="grad104"
         x1="0"
         y1="0"
         x2="0"
         y2="1"
         gradientTransform="rotate(135 .5 .5)"
         gradientUnits="objectBoundingBox" />
    </defs>
    <path
       d="  M68.6311,67.4046 A0.4361,0.4361 0.0000 0,0 69.5033,67.4046 A0.4361,0.4361 0.0000 0,0 68.6311,67.4046 Z"
       style="fill-rule: evenodd; fill: url(#grad104); "
       id="path20" />
    <defs
       id="defs22">
      <linearGradient
         id="grad105">
        <stop
           offset="0%"
           stop-color="#008000"
           stop-opacity="1.0000"
           id="stop21" />
        <stop
           offset="100%"
           stop-color="#00ff00"
           stop-opacity="1.0000"
           id="stop22" />
      </linearGradient>
      <linearGradient
         xlink:href="#grad105"
         id="grad106"
         x1="0"
         y1="0"
         x2="0"
         y2="1"
         gradientTransform="rotate(135 .5 .5)"
         gradientUnits="objectBoundingBox" />
    </defs>
    <path
       d="  M65.1423,69.1490 A0.4361,0.4361 0.0000 1,0 66.0145,69.1490 A0.4361,0.4361 0.0000 0,0 65.1423,69.1490 Z"
       style="fill-rule: evenodd; fill: url(#grad106); "
       id="path22" />
    <defs
       id="defs24">
      <linearGradient
         id="grad107">
        <stop
           offset="0%"
           stop-color="#008000"
           stop-opacity="1.0000"
           id="stop23" />
        <stop
           offset="100%"
           stop-color="#00ff00"
           stop-opacity="1.0000"
           id="stop24" />
      </linearGradient>
      <linearGradient
         xlink:href="#grad107"
         id="grad108"
         x1="0"
         y1="0"
         x2="0"
         y2="1"
         gradientTransform="rotate(135 .5 .5)"
         gradientUnits="objectBoundingBox" />
    </defs>
    <path
       d="  M65.1423,67.4046 A0.4361,0.4361 0.0000 1,0 66.0145,67.4046 A0.4361,0.4361 0.0000 0,0 65.1423,67.4046 Z"
       style="fill-rule: evenodd; fill: url(#grad108); "
       id="path24" />
    <defs
       id="defs26">
      <linearGradient
         id="grad109">
        <stop
           offset="0%"
           stop-color="#000000"
           stop-opacity="1.0000"
           id="stop25" />
        <stop
           offset="100%"
           stop-color="#ffffff"
           stop-opacity="1.0000"
           id="stop26" />
      </linearGradient>
      <linearGradient
         xlink:href="#grad109"
         id="grad110"
         x1="0"
         y1="0"
         x2="0"
         y2="1"
         gradientTransform="rotate(135 .5 .5)"
         gradientUnits="objectBoundingBox" />
    </defs>
    <path
       d="  M61.6535,69.1490 A0.4361,0.4361 0.0000 1,0 62.5257,69.1490 A0.4361,0.4361 0.0000 0,0 61.6535,69.1490 Z"
       style="fill-rule: evenodd; fill: url(#grad110); "
       id="path26" />
    <defs
       id="defs28">
      <linearGradient
         id="grad111">
        <stop
           offset="0%"
           stop-color="#000000"
           stop-opacity="1.0000"
           id="stop27" />
        <stop
           offset="100%"
           stop-color="#ffffff"
           stop-opacity="1.0000"
           id="stop28" />
      </linearGradient>
      <linearGradient
         xlink:href="#grad111"
         id="grad112"
         x1="0"
         y1="0"
         x2="0"
         y2="1"
         gradientTransform="rotate(135 .5 .5)"
         gradientUnits="objectBoundingBox" />
    </defs>
    <path
       d="  M61.6535,67.4046 A0.4361,0.4361 0.0000 0,0 62.5257,67.4046 A0.4361,0.4361 0.0000 0,0 61.6535,67.4046 Z"
       style="fill-rule: evenodd; fill: url(#grad112); "
       id="path28" />
    <defs
       id="defs30">
      <linearGradient
         id="grad113">
        <stop
           offset="0%"
           stop-color="#000000"
           stop-opacity="1.0000"
           id="stop29" />
        <stop
           offset="100%"
           stop-color="#ffffff"
           stop-opacity="1.0000"
           id="stop30" />
      </linearGradient>
      <linearGradient
         xlink:href="#grad113"
         id="grad114"
         x1="0"
         y1="0"
         x2="0"
         y2="1"
         gradientTransform="rotate(135 .5 .5)"
         gradientUnits="objectBoundingBox" />
    </defs>
    <path
       d="  M58.1647,69.1490 A0.4361,0.4361 0.0000 1,0 59.0369,69.1490 A0.4361,0.4361 0.0000 0,0 58.1647,69.1490 Z"
       style="fill-rule: evenodd; fill: url(#grad114); "
       id="path30" />
    <defs
       id="defs32">
      <linearGradient
         id="grad115">
        <stop
           offset="0%"
           stop-color="#000000"
           stop-opacity="1.0000"
           id="stop31" />
        <stop
           offset="100%"
           stop-color="#ffffff"
           stop-opacity="1.0000"
           id="stop32" />
      </linearGradient>
      <linearGradient
         xlink:href="#grad115"
         id="grad116"
         x1="0"
         y1="0"
         x2="0"
         y2="1"
         gradientTransform="rotate(135 .5 .5)"
         gradientUnits="objectBoundingBox" />
    </defs>
    <path
       d="  M58.1647,67.4046 A0.4361,0.4361 0.0000 0,0 59.0369,67.4046 A0.4361,0.4361 0.0000 0,0 58.1647,67.4046 Z"
       style="fill-rule: evenodd; fill: url(#grad116); "
       id="path32" />
    <defs
       id="defs34">
      <linearGradient
         id="grad117">
        <stop
           offset="0%"
           stop-color="#ff0000"
           stop-opacity="1.0000"
           id="stop33" />
        <stop
           offset="100%"
           stop-color="#ffffff"
           stop-opacity="1.0000"
           id="stop34" />
      </linearGradient>
      <linearGradient
         xlink:href="#grad117"
         id="grad118"
         x1="0"
         y1="0"
         x2="0"
         y2="1"
         gradientTransform="rotate(135 .5 .5)"
         gradientUnits="objectBoundingBox" />
    </defs>
    <path
       d="  M54.6760,69.1490 A0.4361,0.4361 0.0000 1,0 55.5482,69.1490 A0.4361,0.4361 0.0000 0,0 54.6760,69.1490 Z"
       style="fill-rule: evenodd; fill: url(#grad118); "
       id="path34" />
    <defs
       id="defs36">
      <linearGradient
         id="grad119">
        <stop
           offset="0%"
           stop-color="#ff0000"
           stop-opacity="1.0000"
           id="stop35" />
        <stop
           offset="100%"
           stop-color="#ffffff"
           stop-opacity="1.0000"
           id="stop36" />
      </linearGradient>
      <linearGradient
         xlink:href="#grad119"
         id="grad120"
         x1="0"
         y1="0"
         x2="0"
         y2="1"
         gradientTransform="rotate(135 .5 .5)"
         gradientUnits="objectBoundingBox" />
    </defs>
    <path
       d="  M54.6760,67.4046 A0.4361,0.4361 0.0000 0,0 55.5482,67.4046 A0.4361,0.4361 0.0000 0,0 54.6760,67.4046 Z"
       style="fill-rule: evenodd; fill: url(#grad120); "
       id="path36" />
    <defs
       id="defs38">
      <linearGradient
         id="grad121">
        <stop
           offset="0%"
           stop-color="#008000"
           stop-opacity="1.0000"
           id="stop37" />
        <stop
           offset="100%"
           stop-color="#00ff00"
           stop-opacity="1.0000"
           id="stop38" />
      </linearGradient>
      <linearGradient
         xlink:href="#grad121"
         id="grad122"
         x1="0"
         y1="0"
         x2="0"
         y2="1"
         gradientTransform="rotate(135 .5 .5)"
         gradientUnits="objectBoundingBox" />
    </defs>
    <path
       d="  M72.1199,69.1490 A0.4361,0.4361 0.0000 1,0 72.9921,69.1490 A0.4361,0.4361 0.0000 0,0 72.1199,69.1490 Z"
       style="fill-rule: evenodd; fill: url(#grad122); "
       id="path38" />
    <defs
       id="defs40">
      <linearGradient
         id="grad123">
        <stop
           offset="0%"
           stop-color="#008000"
           stop-opacity="1.0000"
           id="stop39" />
        <stop
           offset="100%"
           stop-color="#00ff00"
           stop-opacity="1.0000"
           id="stop40" />
      </linearGradient>
      <linearGradient
         xlink:href="#grad123"
         id="grad124"
         x1="0"
         y1="0"
         x2="0"
         y2="1"
         gradientTransform="rotate(135 .5 .5)"
         gradientUnits="objectBoundingBox" />
    </defs>
    <path
       d="  M72.1199,67.4046 A0.4361,0.4361 0.0000 1,0 72.9921,67.4046 A0.4361,0.4361 0.0000 0,0 72.1199,67.4046 Z"
       style="fill-rule: evenodd; fill: url(#grad124); "
       id="path40" />
    <defs
       id="defs42">
      <linearGradient
         id="grad125">
        <stop
           offset="0%"
           stop-color="#008000"
           stop-opacity="1.0000"
           id="stop41" />
        <stop
           offset="100%"
           stop-color="#00ff00"
           stop-opacity="1.0000"
           id="stop42" />
      </linearGradient>
      <linearGradient
         xlink:href="#grad125"
         id="grad126"
         x1="0"
         y1="0"
         x2="0"
         y2="1"
         gradientTransform="rotate(135 .5 .5)"
         gradientUnits="objectBoundingBox" />
    </defs>
    <path
       d="  M75.6087,69.1490 A0.4361,0.4361 0.0000 1,0 76.4809,69.1490 A0.4361,0.4361 0.0000 0,0 75.6087,69.1490 Z"
       style="fill-rule: evenodd; fill: url(#grad126); "
       id="path42" />
    <defs
       id="defs44">
      <linearGradient
         id="grad127">
        <stop
           offset="0%"
           stop-color="#008000"
           stop-opacity="1.0000"
           id="stop43" />
        <stop
           offset="100%"
           stop-color="#00ff00"
           stop-opacity="1.0000"
           id="stop44" />
      </linearGradient>
      <linearGradient
         xlink:href="#grad127"
         id="grad128"
         x1="0"
         y1="0"
         x2="0"
         y2="1"
         gradientTransform="rotate(135 .5 .5)"
         gradientUnits="objectBoundingBox" />
    </defs>
    <path
       d="  M75.6087,67.4046 A0.4361,0.4361 0.0000 1,0 76.4809,67.4046 A0.4361,0.4361 0.0000 0,0 75.6087,67.4046 Z"
       style="fill-rule: evenodd; fill: url(#grad128); "
       id="path44" />
    <g
       id="Layer1048">
      <defs
         id="defs47">
        <linearGradient
           id="grad129">
          <stop
             offset="0%"
             stop-color="#e6e6e6"
             stop-opacity="1.0000"
             id="stop45" />
          <stop
             offset="50%"
             stop-color="#9a9a9a"
             stop-opacity="1.0000"
             id="stop46" />
          <stop
             offset="100%"
             stop-color="#e6e6e6"
             stop-opacity="1.0000"
             id="stop47" />
        </linearGradient>
        <linearGradient
           xlink:href="#grad129"
           id="grad130"
           x1="0"
           y1="0"
           x2="0"
           y2="1"
           gradientTransform="rotate(-0 .5 .5)"
           gradientUnits="objectBoundingBox" />
      </defs>
      <path
         d="  M86.3719,74.0304 L91.1205,74.0304 L91.7989,71.3169 L85.6935,71.3169 L86.3719,74.0304 Z M82.5536,73.1582 L82.5536,73.8560 L83.6002,73.8560 L83.6002,73.1582 L83.9491,73.1582 L83.9491,71.4138 L82.2047,71.4138 L82.2047,73.1582 L82.5536,73.1582 Z M79.0648,73.1582 L79.0648,73.8560 L80.1114,73.8560 L80.1114,73.1582 L80.4603,73.1582 L80.4603,71.4138 L78.7159,71.4138 L78.7159,73.1582 L79.0648,73.1582 Z M75.5760,73.1582 L75.5760,73.8560 L76.6227,73.8560 L76.6227,73.1582 L76.9715,73.1582 L76.9715,71.4138 L75.2271,71.4138 L75.2271,73.1582 L75.5760,73.1582 Z M72.0872,73.1582 L72.0872,73.8560 L73.1339,73.8560 L73.1339,73.1582 L73.4827,73.1582 L73.4827,71.4138 L71.7383,71.4138 L71.7383,73.1582 L72.0872,73.1582 Z M68.5984,73.1582 L68.5984,73.8560 L69.6451,73.8560 L69.6451,73.1582 L69.9939,73.1582 L69.9939,71.4138 L68.2495,71.4138 L68.2495,73.1582 L68.5984,73.1582 Z M65.1096,73.1582 L65.1096,73.8560 L66.1563,73.8560 L66.1563,73.1582 L66.5051,73.1582 L66.5051,71.4138 L64.7608,71.4138 L64.7608,73.1582 L65.1096,73.1582 Z M61.6208,73.1582 L61.6208,73.8560 L62.6675,73.8560 L62.6675,73.1582 L63.0164,73.1582 L63.0164,71.4138 L61.2720,71.4138 L61.2720,73.1582 L61.6208,73.1582 Z M58.1320,73.1582 L58.1320,73.8560 L59.1787,73.8560 L59.1787,73.1582 L59.5276,73.1582 L59.5276,71.4138 L57.7832,71.4138 L57.7832,73.1582 L58.1320,73.1582 Z M54.6432,73.1582 L54.6432,73.8560 L55.6899,73.8560 L55.6899,73.1582 L56.0388,73.1582 L56.0388,71.4138 L54.2944,71.4138 L54.2944,73.1582 L54.6432,73.1582 Z M51.1545,73.1582 L51.1545,73.8560 L52.2011,73.8560 L52.2011,73.1582 L52.5500,73.1582 L52.5500,71.4138 L50.8056,71.4138 L50.8056,73.1582 L51.1545,73.1582 Z"
         style="stroke-width: 0.1200; stroke-linecap: round; stroke-linejoin: round; fill-rule: evenodd; fill: url(#grad130); "
         id="path47" />
      <path
         d="  M86.3719,74.0304 L91.1205,74.0304 L91.7989,71.3169 L85.6935,71.3169 L86.3719,74.0304 Z M82.5536,73.1582 L82.5536,73.8560 L83.6002,73.8560 L83.6002,73.1582 L83.9491,73.1582 L83.9491,71.4138 L82.2047,71.4138 L82.2047,73.1582 L82.5536,73.1582 Z M79.0648,73.1582 L79.0648,73.8560 L80.1114,73.8560 L80.1114,73.1582 L80.4603,73.1582 L80.4603,71.4138 L78.7159,71.4138 L78.7159,73.1582 L79.0648,73.1582 Z M75.5760,73.1582 L75.5760,73.8560 L76.6227,73.8560 L76.6227,73.1582 L76.9715,73.1582 L76.9715,71.4138 L75.2271,71.4138 L75.2271,73.1582 L75.5760,73.1582 Z M72.0872,73.1582 L72.0872,73.8560 L73.1339,73.8560 L73.1339,73.1582 L73.4827,73.1582 L73.4827,71.4138 L71.7383,71.4138 L71.7383,73.1582 L72.0872,73.1582 Z M68.5984,73.1582 L68.5984,73.8560 L69.6451,73.8560 L69.6451,73.1582 L69.9939,73.1582 L69.9939,71.4138 L68.2495,71.4138 L68.2495,73.1582 L68.5984,73.1582 Z M65.1096,73.1582 L65.1096,73.8560 L66.1563,73.8560 L66.1563,73.1582 L66.5051,73.1582 L66.5051,71.4138 L64.7608,71.4138 L64.7608,73.1582 L65.1096,73.1582 Z M61.6208,73.1582 L61.6208,73.8560 L62.6675,73.8560 L62.6675,73.1582 L63.0164,73.1582 L63.0164,71.4138 L61.2720,71.4138 L61.2720,73.1582 L61.6208,73.1582 Z M58.1320,73.1582 L58.1320,73.8560 L59.1787,73.8560 L59.1787,73.1582 L59.5276,73.1582 L59.5276,71.4138 L57.7832,71.4138 L57.7832,73.1582 L58.1320,73.1582 Z M54.6432,73.1582 L54.6432,73.8560 L55.6899,73.8560 L55.6899,73.1582 L56.0388,73.1582 L56.0388,71.4138 L54.2944,71.4138 L54.2944,73.1582 L54.6432,73.1582 Z M51.1545,73.1582 L51.1545,73.8560 L52.2011,73.8560 L52.2011,73.1582 L52.5500,73.1582 L52.5500,71.4138 L50.8056,71.4138 L50.8056,73.1582 L51.1545,73.1582 Z"
         style="stroke-width: 0.1200; stroke: #000000; stroke-dasharray: none; stroke-linecap: round; stroke-linejoin: round; fill: none; "
         id="path48" />
    </g>
    <path
       d="  M49.6063,76.5354 L49.6063,75.1181 L48.1890,75.1181 L48.1890,65.1969 L53.8583,59.5276 L99.2126,59.5276 L99.2126,69.4488 L92.1260,76.5354 L49.6063,76.5354 Z"
       style="stroke-width: 0.7200; stroke: #000000; stroke-dasharray: none; stroke-linecap: round; stroke-linejoin: round; fill: none; "
       id="path49" />
    <!--converted by libvisio2svg-->
  </g>
</svg>
