<?xml version="1.0" encoding="UTF-8" standalone="no"?>
<svg
   version="1.1"
   width="1.9685000000"
   height="1.9685000000"
   viewBox="0 0 141.7323 141.7323"
   id="svg47"
   sodipodi:docname="Laptop.svg"
   inkscape:version="1.4 (e7c3feb1, 2024-10-09)"
   xmlns:inkscape="http://www.inkscape.org/namespaces/inkscape"
   xmlns:sodipodi="http://sodipodi.sourceforge.net/DTD/sodipodi-0.dtd"
   xmlns:xlink="http://www.w3.org/1999/xlink"
   xmlns="http://www.w3.org/2000/svg"
   xmlns:svg="http://www.w3.org/2000/svg">
  <defs
     id="defs47" />
  <sodipodi:namedview
     id="namedview47"
     pagecolor="#ffffff"
     bordercolor="#000000"
     borderopacity="0.25"
     inkscape:showpageshadow="2"
     inkscape:pageopacity="0.0"
     inkscape:pagecheckerboard="0"
     inkscape:deskcolor="#d1d1d1"
     inkscape:zoom="60.031341"
     inkscape:cx="-8.0874422"
     inkscape:cy="5.5304445"
     inkscape:window-width="2560"
     inkscape:window-height="1027"
     inkscape:window-x="0"
     inkscape:window-y="25"
     inkscape:window-maximized="1"
     inkscape:current-layer="svg47" />
  <title
     id="title1"><![CDATA[Laptop]]></title>
  <g
     transform=" scale(1.000000) "
     id="g47">
    <g
       id="Layer1018">
      <path
         d="  M54.0354,82.2047 L65.3740,76.5354 L99.3898,76.5354 L88.0512,82.2047 L54.0354,82.2047 Z"
         style="stroke-width: 0.2400; stroke-linecap: round; stroke-linejoin: round; fill-rule: evenodd; fill: #9a9a9a; "
         id="path1" />
      <path
         d="  M54.0354,82.2047 L65.3740,76.5354 L99.3898,76.5354 L88.0512,82.2047 L54.0354,82.2047 Z"
         style="stroke-width: 0.2400; stroke: #000000; stroke-dasharray: none; stroke-linecap: round; stroke-linejoin: round; fill: none; "
         id="path2" />
    </g>
    <g
       id="Layer1019">
      <path
         d="  M88.0512,85.0394 L99.3898,79.3701 L99.3898,76.5354 L88.0512,82.2047 L88.0512,85.0394 Z"
         style="stroke-width: 0.2400; stroke-linecap: round; stroke-linejoin: round; fill-rule: evenodd; fill: #666666; "
         id="path3" />
      <path
         d="  M88.0512,85.0394 L99.3898,79.3701 L99.3898,76.5354 L88.0512,82.2047 L88.0512,85.0394 Z"
         style="stroke-width: 0.2400; stroke: #000000; stroke-dasharray: none; stroke-linecap: round; stroke-linejoin: round; fill: none; "
         id="path4" />
    </g>
    <g
       id="Layer1020">
      <path
         d="  M65.9055,75.1181 L75.1181,56.6929 L108.4252,56.6929 L99.2126,75.1181 L65.9055,75.1181 Z"
         style="stroke-width: 0.2400; stroke-linecap: round; stroke-linejoin: round; fill-rule: evenodd; fill: #9a9a9a; "
         id="path5" />
      <path
         d="  M65.9055,75.1181 L75.1181,56.6929 L108.4252,56.6929 L99.2126,75.1181 L65.9055,75.1181 Z"
         style="stroke-width: 0.2400; stroke: #000000; stroke-dasharray: none; stroke-linecap: round; stroke-linejoin: round; fill: none; "
         id="path6" />
    </g>
    <g
       id="Layer1021">
      <path
         d="  M70.1575,76.3583 L75.4724,76.3583 L75.4724,75.2953 L70.1575,75.2953 L70.1575,76.3583 Z"
         style="stroke-width: 0.2400; stroke-linecap: round; stroke-linejoin: round; fill-rule: evenodd; fill: #9a9a9a; "
         id="path7" />
      <path
         d="  M70.1575,76.3583 L75.4724,76.3583 L75.4724,75.2953 L70.1575,75.2953 L70.1575,76.3583 Z"
         style="stroke-width: 0.2400; stroke: #000000; stroke-dasharray: none; stroke-linecap: round; stroke-linejoin: round; fill: none; "
         id="path8" />
    </g>
    <g
       id="Layer1022">
      <path
         d="  M89.4685,76.3583 L94.7835,76.3583 L94.7835,75.2953 L89.4685,75.2953 L89.4685,76.3583 Z"
         style="stroke-width: 0.2400; stroke-linecap: round; stroke-linejoin: round; fill-rule: evenodd; fill: #9a9a9a; "
         id="path9" />
      <path
         d="  M89.4685,76.3583 L94.7835,76.3583 L94.7835,75.2953 L89.4685,75.2953 L89.4685,76.3583 Z"
         style="stroke-width: 0.2400; stroke: #000000; stroke-dasharray: none; stroke-linecap: round; stroke-linejoin: round; fill: none; "
         id="path10" />
    </g>
    <g
       id="Layer1023">
      <path
         d="  M66.0827,77.5984 L94.4291,77.5984 L89.4685,80.0787 L61.1220,80.0787 L66.0827,77.5984 Z"
         style="stroke-width: 0.2400; stroke-linecap: round; stroke-linejoin: round; fill-rule: evenodd; fill: #666666; "
         id="path11" />
      <path
         d="  M66.0827,77.5984 L94.4291,77.5984 L89.4685,80.0787 L61.1220,80.0787 L66.0827,77.5984 Z"
         style="stroke-width: 0.2400; stroke: #000000; stroke-dasharray: none; stroke-linecap: round; stroke-linejoin: round; fill: none; "
         id="path12" />
    </g>
    <g
       id="Layer1024">
      <path
         d="  M54.0354,82.2047 L54.0354,85.0394 L88.0512,85.0394 L88.0512,82.2047 L54.0354,82.2047 Z"
         style="stroke-width: 0.2400; stroke-linecap: round; stroke-linejoin: round; fill-rule: evenodd; fill: #666666; "
         id="path13" />
      <path
         d="  M54.0354,82.2047 L54.0354,85.0394 L88.0512,85.0394 L88.0512,82.2047 L54.0354,82.2047 Z"
         style="stroke-width: 0.2400; stroke: #000000; stroke-dasharray: none; stroke-linecap: round; stroke-linejoin: round; fill: none; "
         id="path14" />
    </g>
    <g
       id="Layer1025">
      <defs
         id="defs15">
        <linearGradient
           id="grad37">
          <stop
             offset="0%"
             stop-color="#800000"
             stop-opacity="1.0000"
             id="stop14" />
          <stop
             offset="100%"
             stop-color="#ff0000"
             stop-opacity="1.0000"
             id="stop15" />
        </linearGradient>
        <linearGradient
           xlink:href="#grad37"
           id="grad38"
           x1="0"
           y1="0"
           x2="0"
           y2="1"
           gradientTransform="rotate(135 .5 .5)"
           gradientUnits="objectBoundingBox" />
      </defs>
      <path
         d="  M70.6890,81.4296 L72.1063,80.7210 L76.3583,80.7210 L74.9409,81.4296 L70.6890,81.4296 Z"
         style="stroke-width: 0.1200; stroke-linecap: round; stroke-linejoin: round; fill-rule: evenodd; fill: url(#grad38); "
         id="path15" />
      <path
         d="  M70.6890,81.4296 L72.1063,80.7210 L76.3583,80.7210 L74.9409,81.4296 L70.6890,81.4296 Z"
         style="stroke-width: 0.1200; stroke: #000000; stroke-dasharray: none; stroke-linecap: round; stroke-linejoin: round; fill: none; "
         id="path16" />
    </g>
    <defs
       id="defs17">
      <radialGradient
         id="grad39"
         cx="50.0000%"
         cy="50.0000%"
         r="100.0000%">
        <stop
           offset="0%"
           stop-color="#c0c0c0"
           stop-opacity="1.0000"
           id="stop16" />
        <stop
           offset="100%"
           stop-color="#666666"
           stop-opacity="1.0000"
           id="stop17" />
      </radialGradient>
    </defs>
    <path
       d="  M54.7441,84.3307 L56.8701,84.3307 L56.8701,83.6220 L54.7441,83.6220 L54.7441,84.3307 Z"
       style="fill-rule: evenodd; fill: url(#grad39); "
       id="path17" />
    <defs
       id="defs19">
      <radialGradient
         id="grad40"
         cx="50.0000%"
         cy="50.0000%"
         r="100.0000%">
        <stop
           offset="0%"
           stop-color="#c0c0c0"
           stop-opacity="1.0000"
           id="stop18" />
        <stop
           offset="100%"
           stop-color="#666666"
           stop-opacity="1.0000"
           id="stop19" />
      </radialGradient>
    </defs>
    <path
       d="  M57.5787,84.3307 L59.7047,84.3307 L59.7047,83.6220 L57.5787,83.6220 L57.5787,84.3307 Z"
       style="fill-rule: evenodd; fill: url(#grad40); "
       id="path19" />
    <defs
       id="defs21">
      <radialGradient
         id="grad41"
         cx="50.0000%"
         cy="50.0000%"
         r="100.0000%">
        <stop
           offset="0%"
           stop-color="#c0c0c0"
           stop-opacity="1.0000"
           id="stop20" />
        <stop
           offset="100%"
           stop-color="#666666"
           stop-opacity="1.0000"
           id="stop21" />
      </radialGradient>
    </defs>
    <path
       d="  M60.4134,84.3307 L62.5394,84.3307 L62.5394,83.6220 L60.4134,83.6220 L60.4134,84.3307 Z"
       style="fill-rule: evenodd; fill: url(#grad41); "
       id="path21" />
    <path
       d="  M58.2874,84.1535 L58.9961,84.1535 L58.9961,83.7992 L58.2874,83.7992 L58.2874,84.1535 Z"
       style="fill-rule: evenodd; fill: #00ff00; "
       id="path22" />
    <path
       d="  M61.1220,84.1535 L61.8307,84.1535 L61.8307,83.7992 L61.1220,83.7992 L61.1220,84.1535 Z"
       style="fill-rule: evenodd; fill: #00ff00; "
       id="path23" />
    <path
       d="  M55.4528,84.1535 L56.1614,84.1535 L56.1614,83.7992 L55.4528,83.7992 L55.4528,84.1535 Z"
       style="fill-rule: evenodd; fill: #ff0000; "
       id="path24" />
    <path
       d="  M95.8465,79.0157 L97.9724,77.9528 L97.9724,78.6614 L95.8465,79.7244 L95.8465,79.0157 Z"
       style="fill-rule: evenodd; fill: #000000; "
       id="path25" />
    <defs
       id="defs26">
      <linearGradient
         id="grad42">
        <stop
           offset="0%"
           stop-color="#666666"
           stop-opacity="1.0000"
           id="stop25" />
        <stop
           offset="100%"
           stop-color="#c0c0c0"
           stop-opacity="1.0000"
           id="stop26" />
      </linearGradient>
      <linearGradient
         xlink:href="#grad42"
         id="grad43"
         x1="0"
         y1="0"
         x2="0"
         y2="1"
         gradientTransform="rotate(180 .5 .5)"
         gradientUnits="objectBoundingBox" />
    </defs>
    <path
       d="  M84.1535,83.4449 L85.9252,83.4449 A0.8892,0.3883 0.0000 0,1 84.1535,83.4449 Z"
       style="fill-rule: evenodd; fill: url(#grad43); "
       id="path26" />
    <defs
       id="defs28">
      <radialGradient
         id="grad44"
         cx="0.0000%"
         cy="0.0000%"
         r="100.0000%">
        <stop
           offset="0%"
           stop-color="#c0c0c0"
           stop-opacity="1.0000"
           id="stop27" />
        <stop
           offset="100%"
           stop-color="#666666"
           stop-opacity="1.0000"
           id="stop28" />
      </radialGradient>
    </defs>
    <path
       d="  M76.7126,83.6220 A0.4429,0.4429 0.0000 1,1 77.5984,83.6220 A0.4429,0.4429 0.0000 0,1 76.7126,83.6220 Z"
       style="fill-rule: evenodd; fill: url(#grad44); "
       id="path28" />
    <defs
       id="defs30">
      <radialGradient
         id="grad45"
         cx="100.0000%"
         cy="100.0000%"
         r="100.0000%">
        <stop
           offset="0%"
           stop-color="#c0c0c0"
           stop-opacity="1.0000"
           id="stop29" />
        <stop
           offset="100%"
           stop-color="#666666"
           stop-opacity="1.0000"
           id="stop30" />
      </radialGradient>
    </defs>
    <path
       d="  M76.9341,83.6220 A0.2215,0.2215 0.0000 1,1 77.3770,83.6220 A0.2215,0.2215 0.0000 0,1 76.9341,83.6220 Z"
       style="fill-rule: evenodd; fill: url(#grad45); "
       id="path30" />
    <defs
       id="defs32">
      <radialGradient
         id="grad46"
         cx="0.0000%"
         cy="0.0000%"
         r="100.0000%">
        <stop
           offset="0%"
           stop-color="#c0c0c0"
           stop-opacity="1.0000"
           id="stop31" />
        <stop
           offset="100%"
           stop-color="#666666"
           stop-opacity="1.0000"
           id="stop32" />
      </radialGradient>
    </defs>
    <path
       d="  M77.9528,83.6220 A0.4429,0.4429 0.0000 1,1 78.8386,83.6220 A0.4429,0.4429 0.0000 0,1 77.9528,83.6220 Z"
       style="fill-rule: evenodd; fill: url(#grad46); "
       id="path32" />
    <defs
       id="defs34">
      <radialGradient
         id="grad47"
         cx="100.0000%"
         cy="100.0000%"
         r="100.0000%">
        <stop
           offset="0%"
           stop-color="#c0c0c0"
           stop-opacity="1.0000"
           id="stop33" />
        <stop
           offset="100%"
           stop-color="#666666"
           stop-opacity="1.0000"
           id="stop34" />
      </radialGradient>
    </defs>
    <path
       d="  M78.1742,83.6220 A0.2215,0.2215 0.0000 1,1 78.6171,83.6220 A0.2215,0.2215 0.0000 0,1 78.1742,83.6220 Z"
       style="fill-rule: evenodd; fill: url(#grad47); "
       id="path34" />
    <defs
       id="defs36">
      <radialGradient
         id="grad48"
         cx="0.0000%"
         cy="0.0000%"
         r="100.0000%">
        <stop
           offset="0%"
           stop-color="#c0c0c0"
           stop-opacity="1.0000"
           id="stop35" />
        <stop
           offset="100%"
           stop-color="#666666"
           stop-opacity="1.0000"
           id="stop36" />
      </radialGradient>
    </defs>
    <path
       d="  M79.1929,83.6220 A0.4429,0.4429 0.0000 1,1 80.0787,83.6220 A0.4429,0.4429 0.0000 0,1 79.1929,83.6220 Z"
       style="fill-rule: evenodd; fill: url(#grad48); "
       id="path36" />
    <defs
       id="defs38">
      <radialGradient
         id="grad49"
         cx="100.0000%"
         cy="100.0000%"
         r="100.0000%">
        <stop
           offset="0%"
           stop-color="#c0c0c0"
           stop-opacity="1.0000"
           id="stop37" />
        <stop
           offset="100%"
           stop-color="#666666"
           stop-opacity="1.0000"
           id="stop38" />
      </radialGradient>
    </defs>
    <path
       d="  M79.4144,83.6220 A0.2215,0.2215 0.0000 1,1 79.8573,83.6220 A0.2215,0.2215 0.0000 0,1 79.4144,83.6220 Z"
       style="fill-rule: evenodd; fill: url(#grad49); "
       id="path38" />
    <defs
       id="defs40">
      <radialGradient
         id="grad50"
         cx="0.0000%"
         cy="0.0000%"
         r="100.0000%">
        <stop
           offset="0%"
           stop-color="#c0c0c0"
           stop-opacity="1.0000"
           id="stop39" />
        <stop
           offset="100%"
           stop-color="#666666"
           stop-opacity="1.0000"
           id="stop40" />
      </radialGradient>
    </defs>
    <path
       d="  M80.3445,83.6220 A0.4429,0.4429 0.0000 1,1 81.2303,83.6220 A0.4429,0.4429 0.0000 0,1 80.3445,83.6220 Z"
       style="fill-rule: evenodd; fill: url(#grad50); "
       id="path40" />
    <defs
       id="defs42">
      <radialGradient
         id="grad51"
         cx="100.0000%"
         cy="100.0000%"
         r="100.0000%">
        <stop
           offset="0%"
           stop-color="#c0c0c0"
           stop-opacity="1.0000"
           id="stop41" />
        <stop
           offset="100%"
           stop-color="#666666"
           stop-opacity="1.0000"
           id="stop42" />
      </radialGradient>
    </defs>
    <path
       d="  M80.5659,83.6220 A0.2215,0.2215 0.0000 1,1 81.0089,83.6220 A0.2215,0.2215 0.0000 0,1 80.5659,83.6220 Z"
       style="fill-rule: evenodd; fill: url(#grad51); "
       id="path42" />
    <g
       id="Layer1026">
      <defs
         id="defs44">
        <linearGradient
           id="grad52">
          <stop
             offset="0%"
             stop-color="#0000ff"
             stop-opacity="1.0000"
             id="stop43" />
          <stop
             offset="100%"
             stop-color="#ffffff"
             stop-opacity="1.0000"
             id="stop44" />
        </linearGradient>
        <linearGradient
           xlink:href="#grad52"
           id="grad53"
           x1="0"
           y1="0"
           x2="0"
           y2="1"
           gradientTransform="rotate(135 .5 .5)"
           gradientUnits="objectBoundingBox" />
      </defs>
      <path
         d="  M68.4676,73.7008 L76.2629,58.1102 L104.4458,58.1102 L96.6505,73.7008 L68.4676,73.7008 Z"
         style="stroke-width: 0.2400; stroke-linecap: round; stroke-linejoin: round; fill-rule: evenodd; fill: url(#grad53); "
         id="path44" />
      <path
         d="  M68.4676,73.7008 L76.2629,58.1102 L104.4458,58.1102 L96.6505,73.7008 L68.4676,73.7008 Z"
         style="stroke-width: 0.2400; stroke: #000000; stroke-dasharray: none; stroke-linecap: round; stroke-linejoin: round; fill: none; "
         id="path45" />
    </g>
    <defs
       id="defs46">
      <linearGradient
         id="grad54">
        <stop
           offset="0%"
           stop-color="#ff0000"
           stop-opacity="1.0000"
           id="stop45" />
        <stop
           offset="100%"
           stop-color="#ffff00"
           stop-opacity="1.0000"
           id="stop46" />
      </linearGradient>
      <linearGradient
         xlink:href="#grad54"
         id="grad55"
         x1="0"
         y1="0"
         x2="0"
         y2="1"
         gradientTransform="rotate(90 .5 .5)"
         gradientUnits="objectBoundingBox" />
    </defs>
    <path
       d="  M104.5276,58.8898 A1.0630,0.6378 0.0000 0,1 106.6535,58.8898 A1.0630,0.6378 0.0000 0,1 104.5276,58.8898 Z"
       style="fill-rule: evenodd; fill: url(#grad55); "
       id="path46" />
    <path
       d="  M53.8583,85.0394 L53.8583,82.2047 L65.1969,76.5354 L70.1575,76.5354 L70.1575,75.1181 L65.9055,75.1181 L75.1181,56.6929 L108.4252,56.6929 L99.2126,75.1181 L94.9606,75.1181 L94.9606,76.5354 L99.2126,76.5354 L99.2126,79.3701 L87.8740,85.0394 L53.8583,85.0394 Z"
       style="stroke-width: 0.7200; stroke: #000000; stroke-dasharray: none; stroke-linecap: round; stroke-linejoin: round; fill: none; "
       id="path47" />
    <!--converted by libvisio2svg-->
  </g>
</svg>
