<?xml version="1.0" encoding="UTF-8" standalone="no"?>
<svg
   version="1.1"
   width="1.9685000000"
   height="1.9685000000"
   viewBox="0 0 141.7323 141.7323"
   id="svg24"
   sodipodi:docname="Mainframe.svg"
   inkscape:version="1.4 (e7c3feb1, 2024-10-09)"
   xmlns:inkscape="http://www.inkscape.org/namespaces/inkscape"
   xmlns:sodipodi="http://sodipodi.sourceforge.net/DTD/sodipodi-0.dtd"
   xmlns:xlink="http://www.w3.org/1999/xlink"
   xmlns="http://www.w3.org/2000/svg"
   xmlns:svg="http://www.w3.org/2000/svg">
  <defs
     id="defs24" />
  <sodipodi:namedview
     id="namedview24"
     pagecolor="#ffffff"
     bordercolor="#000000"
     borderopacity="0.25"
     inkscape:showpageshadow="2"
     inkscape:pageopacity="0.0"
     inkscape:pagecheckerboard="0"
     inkscape:deskcolor="#d1d1d1"
     inkscape:zoom="50.921587"
     inkscape:cx="3.8195982"
     inkscape:cy="-0.019638037"
     inkscape:window-width="2560"
     inkscape:window-height="1027"
     inkscape:window-x="0"
     inkscape:window-y="25"
     inkscape:window-maximized="1"
     inkscape:current-layer="svg24" />
  <title
     id="title1"><![CDATA[Mainframe]]></title>
  <g
     transform=" scale(1.000000) "
     id="g24">
    <g
       id="Layer1032">
      <path
         d="  M38.2677,112.4409 L38.2677,114.3307 L40.6974,114.3307 L40.6974,112.4409 L38.2677,112.4409 Z M48.5939,115.2756 L48.5939,117.1654 L51.0236,117.1654 L51.0236,115.2756 L48.5939,115.2756 Z M83.6220,115.2756 L83.6220,117.1654 L81.1924,117.1654 L81.1924,115.2756 L83.6220,115.2756 Z M86.4567,115.2756 L86.4567,117.1654 L88.8864,117.1654 L88.8864,115.2756 L86.4567,115.2756 Z M101.0349,115.2756 L101.0349,117.1654 L103.4646,117.1654 L103.4646,115.2756 L101.0349,115.2756 Z M106.2992,111.9685 L106.2992,113.8583 L108.7289,113.8583 L108.7289,111.9685 L106.2992,111.9685 Z"
         style="stroke-width: 0.7200; stroke-linecap: round; stroke-linejoin: round; fill-rule: evenodd; fill: #000000; "
         id="path1" />
      <path
         d="  M38.2677,112.4409 L38.2677,114.3307 L40.6974,114.3307 L40.6974,112.4409 L38.2677,112.4409 Z M48.5939,115.2756 L48.5939,117.1654 L51.0236,117.1654 L51.0236,115.2756 L48.5939,115.2756 Z M83.6220,115.2756 L83.6220,117.1654 L81.1924,117.1654 L81.1924,115.2756 L83.6220,115.2756 Z M86.4567,115.2756 L86.4567,117.1654 L88.8864,117.1654 L88.8864,115.2756 L86.4567,115.2756 Z M101.0349,115.2756 L101.0349,117.1654 L103.4646,117.1654 L103.4646,115.2756 L101.0349,115.2756 Z M106.2992,111.9685 L106.2992,113.8583 L108.7289,113.8583 L108.7289,111.9685 L106.2992,111.9685 Z"
         style="stroke-width: 0.7200; stroke: #000000; stroke-dasharray: none; stroke-linecap: round; stroke-linejoin: round; fill: none; "
         id="path2" />
    </g>
    <path
       d="  M104.8819,116.2205 L110.5512,110.5512 L110.5512,19.8425 L104.8819,25.5118 L104.8819,116.2205 Z"
       style="fill-rule: evenodd; fill: #666666; "
       id="path3" />
    <defs
       id="defs4">
      <linearGradient
         id="grad66">
        <stop
           offset="0%"
           stop-color="#e6e6e6"
           stop-opacity="1.0000"
           id="stop3" />
        <stop
           offset="100%"
           stop-color="#9a9a9a"
           stop-opacity="1.0000"
           id="stop4" />
      </linearGradient>
      <linearGradient
         xlink:href="#grad66"
         id="grad67"
         x1="0"
         y1="0"
         x2="0"
         y2="1"
         gradientTransform="rotate(-0 .5 .5)"
         gradientUnits="objectBoundingBox" />
    </defs>
    <path
       d="  M85.0394,25.5118 L90.7087,19.8425 L110.5512,19.8425 L104.8819,25.5118 L85.0394,25.5118 Z M36.8504,29.7638 L39.6850,26.9291 L46.7717,26.9291 L46.7717,29.7638 L36.8504,29.7638 Z M46.7717,25.5118 L52.4409,19.8425 L90.7087,19.8425 L85.0394,25.5118 L46.7717,25.5118 Z"
       style="fill-rule: evenodd; fill: url(#grad67); "
       id="path4" />
    <g
       id="Layer1033">
      <defs
         id="defs6">
        <linearGradient
           id="grad68">
          <stop
             offset="0%"
             stop-color="#c0c0c0"
             stop-opacity="1.0000"
             id="stop5" />
          <stop
             offset="100%"
             stop-color="#666666"
             stop-opacity="1.0000"
             id="stop6" />
        </linearGradient>
        <linearGradient
           xlink:href="#grad68"
           id="grad69"
           x1="0"
           y1="0"
           x2="0"
           y2="1"
           gradientTransform="rotate(90 .5 .5)"
           gradientUnits="objectBoundingBox" />
      </defs>
      <path
         d="  M85.0394,25.5118 L104.8819,25.5118 L104.8819,116.2205 L85.0394,116.2205 L85.0394,25.5118 Z"
         style="stroke-width: 0.2400; stroke-linecap: round; stroke-linejoin: round; fill-rule: evenodd; fill: url(#grad69); "
         id="path6" />
      <path
         d="  M85.0394,25.5118 L104.8819,25.5118 L104.8819,116.2205 L85.0394,116.2205 L85.0394,25.5118 Z"
         style="stroke-width: 0.2400; stroke: #000000; stroke-dasharray: none; stroke-linecap: round; stroke-linejoin: round; fill: none; "
         id="path7" />
    </g>
    <g
       id="Layer1034">
      <defs
         id="defs8">
        <linearGradient
           id="grad70">
          <stop
             offset="0%"
             stop-color="#c0c0c0"
             stop-opacity="1.0000"
             id="stop7" />
          <stop
             offset="100%"
             stop-color="#666666"
             stop-opacity="1.0000"
             id="stop8" />
        </linearGradient>
      </defs>
      <path
         d="  M46.7717,116.2205 L85.0394,116.2205 L85.0394,25.5118 L46.7717,25.5118 L46.7717,116.2205 Z"
         style="stroke-width: 0.2400; stroke-linecap: round; stroke-linejoin: round; fill-rule: evenodd; fill: url(#grad70); "
         id="path8" />
      <path
         d="  M46.7717,116.2205 L85.0394,116.2205 L85.0394,25.5118 L46.7717,25.5118 L46.7717,116.2205 Z"
         style="stroke-width: 0.2400; stroke: #000000; stroke-dasharray: none; stroke-linecap: round; stroke-linejoin: round; fill: none; "
         id="path9" />
    </g>
    <g
       id="Layer1035">
      <defs
         id="defs10">
        <linearGradient
           id="grad71">
          <stop
             offset="0%"
             stop-color="#c0c0c0"
             stop-opacity="1.0000"
             id="stop9" />
          <stop
             offset="100%"
             stop-color="#666666"
             stop-opacity="1.0000"
             id="stop10" />
        </linearGradient>
        <linearGradient
           xlink:href="#grad71"
           id="grad72"
           x1="0"
           y1="0"
           x2="0"
           y2="1"
           gradientTransform="rotate(90 .5 .5)"
           gradientUnits="objectBoundingBox" />
      </defs>
      <path
         d="  M36.8504,113.3858 L46.7717,113.3858 L46.7717,29.7638 L36.8504,29.7638 L36.8504,113.3858 Z"
         style="stroke-width: 0.2400; stroke-linecap: round; stroke-linejoin: round; fill-rule: evenodd; fill: url(#grad72); "
         id="path10" />
      <path
         d="  M36.8504,113.3858 L46.7717,113.3858 L46.7717,29.7638 L36.8504,29.7638 L36.8504,113.3858 Z"
         style="stroke-width: 0.2400; stroke: #000000; stroke-dasharray: none; stroke-linecap: round; stroke-linejoin: round; fill: none; "
         id="path11" />
    </g>
    <g
       id="Layer1036">
      <defs
         id="defs12">
        <linearGradient
           id="grad73">
          <stop
             offset="0%"
             stop-color="#800000"
             stop-opacity="1.0000"
             id="stop11" />
          <stop
             offset="100%"
             stop-color="#ff0000"
             stop-opacity="1.0000"
             id="stop12" />
        </linearGradient>
        <linearGradient
           xlink:href="#grad73"
           id="grad74"
           x1="0"
           y1="0"
           x2="0"
           y2="1"
           gradientTransform="rotate(180 .5 .5)"
           gradientUnits="objectBoundingBox" />
      </defs>
      <path
         d="  M39.2801,110.5512 L46.7717,110.5512 L46.7717,32.5984 L39.2801,32.5984 L39.2801,110.5512 Z"
         style="stroke-width: 0.2400; stroke-linecap: round; stroke-linejoin: round; fill-rule: evenodd; fill: url(#grad74); "
         id="path12" />
      <path
         d="  M39.2801,110.5512 L46.7717,110.5512 L46.7717,32.5984 L39.2801,32.5984 L39.2801,110.5512 Z"
         style="stroke-width: 0.2400; stroke: #000000; stroke-dasharray: none; stroke-linecap: round; stroke-linejoin: round; fill: none; "
         id="path13" />
    </g>
    <g
       id="Layer1037">
      <defs
         id="defs14">
        <linearGradient
           id="grad75">
          <stop
             offset="0%"
             stop-color="#8a8aff"
             stop-opacity="1.0000"
             id="stop13" />
          <stop
             offset="100%"
             stop-color="#ffffff"
             stop-opacity="1.0000"
             id="stop14" />
        </linearGradient>
        <linearGradient
           xlink:href="#grad75"
           id="grad76"
           x1="0"
           y1="0"
           x2="0"
           y2="1"
           gradientTransform="rotate(135 .5 .5)"
           gradientUnits="objectBoundingBox" />
      </defs>
      <path
         d="  M95.9730,32.5984 L102.0472,32.5984 L102.0472,29.1339 L95.9730,29.1339 L95.9730,32.5984 Z"
         style="stroke-width: 0.2400; stroke-linecap: round; stroke-linejoin: round; fill-rule: evenodd; fill: url(#grad76); "
         id="path14" />
      <path
         d="  M95.9730,32.5984 L102.0472,32.5984 L102.0472,29.1339 L95.9730,29.1339 L95.9730,32.5984 Z"
         style="stroke-width: 0.2400; stroke: #000000; stroke-dasharray: none; stroke-linecap: round; stroke-linejoin: round; fill: none; "
         id="path15" />
    </g>
    <g
       id="Layer1038">
      <defs
         id="defs16">
        <linearGradient
           id="grad77">
          <stop
             offset="0%"
             stop-color="#c0c0c0"
             stop-opacity="1.0000"
             id="stop15" />
          <stop
             offset="100%"
             stop-color="#666666"
             stop-opacity="1.0000"
             id="stop16" />
        </linearGradient>
        <linearGradient
           xlink:href="#grad77"
           id="grad78"
           x1="0"
           y1="0"
           x2="0"
           y2="1"
           gradientTransform="rotate(135 .5 .5)"
           gradientUnits="objectBoundingBox" />
      </defs>
      <path
         d="  M87.8740,44.2520 L102.0472,44.2520 L102.0472,36.6929 L87.8740,36.6929 L87.8740,44.2520 Z"
         style="stroke-width: 0.2400; stroke-linecap: round; stroke-linejoin: round; fill-rule: evenodd; fill: url(#grad78); "
         id="path16" />
      <path
         d="  M87.8740,44.2520 L102.0472,44.2520 L102.0472,36.6929 L87.8740,36.6929 L87.8740,44.2520 Z M87.8740,25.5118 L87.8740,116.2205 M102.0472,25.5118 L102.0472,116.2205"
         style="stroke-width: 0.2400; stroke: #000000; stroke-dasharray: none; stroke-linecap: round; stroke-linejoin: round; fill: none; "
         id="path17" />
    </g>
    <g
       id="Layer1039">
      <path
         d="  M90.1012,42.5197 L99.8200,42.5197 L99.8200,38.7402 L90.1012,38.7402 L90.1012,42.5197 Z"
         style="stroke-width: 0.1200; stroke-linecap: round; stroke-linejoin: round; fill-rule: evenodd; fill: #666666; "
         id="path18" />
      <path
         d="  M90.1012,42.5197 L99.8200,42.5197 L99.8200,38.7402 L90.1012,38.7402 L90.1012,42.5197 Z"
         style="stroke-width: 0.1200; stroke: #000000; stroke-dasharray: none; stroke-linecap: round; stroke-linejoin: round; fill: none; "
         id="path19" />
    </g>
    <path
       d="  M91.2148,41.8468 L93.6952,41.8468 L93.6952,40.4295 L91.2148,40.4295 L91.2148,41.8468 Z"
       style="fill-rule: evenodd; fill: #ff0000; "
       id="path20" />
    <path
       d="  M93.6952,41.8468 L96.1755,41.8468 L96.1755,40.4295 L93.6952,40.4295 L93.6952,41.8468 Z"
       style="fill-rule: evenodd; fill: #9f9fff; "
       id="path21" />
    <defs
       id="defs22">
      <linearGradient
         id="grad79">
        <stop
           offset="0%"
           stop-color="#e6e6e6"
           stop-opacity="1.0000"
           id="stop21" />
        <stop
           offset="100%"
           stop-color="#9a9a9a"
           stop-opacity="1.0000"
           id="stop22" />
      </linearGradient>
      <linearGradient
         xlink:href="#grad79"
         id="grad80"
         x1="0"
         y1="0"
         x2="0"
         y2="1"
         gradientTransform="rotate(90 .5 .5)"
         gradientUnits="objectBoundingBox" />
    </defs>
    <path
       d="  M91.2148,40.4331 L98.6558,40.4331 L98.6558,39.4882 L91.2148,39.4882 L91.2148,40.4331 Z"
       style="fill-rule: evenodd; fill: url(#grad80); "
       id="path22" />
    <path
       d="  M96.1755,41.8468 L98.6558,41.8468 L98.6558,40.4295 L96.1755,40.4295 L96.1755,41.8468 Z"
       style="fill-rule: evenodd; fill: #00ff00; "
       id="path23" />
    <path
       d="  M46.7717,116.2205 L46.7717,113.3858 L36.8504,113.3858 L36.8504,29.7638 L39.6850,26.9291 L46.7717,26.9291 L46.7717,25.5118 L52.4409,19.8425 L110.5512,19.8425 L110.5512,110.5512 L104.8819,116.2205 L46.7717,116.2205 Z"
       style="stroke-width: 0.7200; stroke: #000000; stroke-dasharray: none; stroke-linecap: round; stroke-linejoin: round; fill: none; "
       id="path24" />
    <!--converted by libvisio2svg-->
  </g>
</svg>
