<?xml version="1.0" encoding="UTF-8" standalone="no"?>
<svg
   version="1.1"
   width="1.9685000000"
   height="1.9685000000"
   viewBox="0 0 141.7323 141.7323"
   id="svg33"
   sodipodi:docname="Mini_computer.svg"
   inkscape:version="1.4 (e7c3feb1, 2024-10-09)"
   xmlns:inkscape="http://www.inkscape.org/namespaces/inkscape"
   xmlns:sodipodi="http://sodipodi.sourceforge.net/DTD/sodipodi-0.dtd"
   xmlns:xlink="http://www.w3.org/1999/xlink"
   xmlns="http://www.w3.org/2000/svg"
   xmlns:svg="http://www.w3.org/2000/svg">
  <defs
     id="defs33" />
  <sodipodi:namedview
     id="namedview33"
     pagecolor="#ffffff"
     bordercolor="#000000"
     borderopacity="0.25"
     inkscape:showpageshadow="2"
     inkscape:pageopacity="0.0"
     inkscape:pagecheckerboard="0"
     inkscape:deskcolor="#d1d1d1"
     inkscape:zoom="46.872013"
     inkscape:cx="7.2217936"
     inkscape:cy="-2.1334693"
     inkscape:window-width="2560"
     inkscape:window-height="1027"
     inkscape:window-x="0"
     inkscape:window-y="25"
     inkscape:window-maximized="1"
     inkscape:current-layer="svg33" />
  <title
     id="title1"><![CDATA[Mini computer]]></title>
  <g
     transform=" scale(1.000000) "
     id="g33">
    <path
       d="  M56.6929,93.5433 L85.7480,93.5433 L85.7480,92.1260 L56.6929,92.1260 L56.6929,93.5433 Z M85.7480,93.5433 L91.4173,87.8740 L91.4173,86.4567 L85.7480,92.1260 L85.7480,93.5433 Z"
       style="fill-rule: evenodd; fill: #9a9a9a; "
       id="path1" />
    <path
       d="  M86.4567,92.1260 L92.1260,86.4567 L92.1260,42.5197 L86.4567,48.1890 L86.4567,92.1260 Z"
       style="fill-rule: evenodd; fill: #9a9a9a; "
       id="path2" />
    <path
       d="  M55.2756,48.1890 L60.9449,42.5197 L92.1260,42.5197 L86.4567,48.1890 L55.2756,48.1890 Z"
       style="fill-rule: evenodd; fill: #e6e6e6; "
       id="path3" />
    <g
       id="Layer1027">
      <path
         d="  M55.2756,92.1260 L86.4567,92.1260 L86.4567,48.1890 L55.2756,48.1890 L55.2756,92.1260 Z"
         style="stroke-width: 0.2400; stroke-linecap: round; stroke-linejoin: round; fill-rule: evenodd; fill: #c0c0c0; "
         id="path4" />
      <path
         d="  M55.2756,92.1260 L86.4567,92.1260 L86.4567,48.1890 L55.2756,48.1890 L55.2756,92.1260 Z"
         style="stroke-width: 0.2400; stroke: #000000; stroke-dasharray: none; stroke-linecap: round; stroke-linejoin: round; fill: none; "
         id="path5" />
    </g>
    <defs
       id="defs6">
      <linearGradient
         id="grad56">
        <stop
           offset="0%"
           stop-color="#e6e6e6"
           stop-opacity="1.0000"
           id="stop5" />
        <stop
           offset="100%"
           stop-color="#c0c0c0"
           stop-opacity="1.0000"
           id="stop6" />
      </linearGradient>
      <linearGradient
         xlink:href="#grad56"
         id="grad57"
         x1="0"
         y1="0"
         x2="0"
         y2="1"
         gradientTransform="rotate(180 .5 .5)"
         gradientUnits="objectBoundingBox" />
    </defs>
    <path
       d="  M57.7559,89.6457 L83.9764,89.6457 L83.9764,61.2992 L57.7559,61.2992 L57.7559,89.6457 Z"
       style="fill-rule: evenodd; fill: url(#grad57); "
       id="path6" />
    <defs
       id="defs8">
      <linearGradient
         id="grad58">
        <stop
           offset="0%"
           stop-color="#e6e6e6"
           stop-opacity="1.0000"
           id="stop7" />
        <stop
           offset="100%"
           stop-color="#c0c0c0"
           stop-opacity="1.0000"
           id="stop8" />
      </linearGradient>
      <linearGradient
         xlink:href="#grad58"
         id="grad59"
         x1="0"
         y1="0"
         x2="0"
         y2="1"
         gradientTransform="rotate(90 .5 .5)"
         gradientUnits="objectBoundingBox" />
    </defs>
    <path
       d="  M57.7559,83.9764 L81.8504,83.9764 L81.8504,75.7087 L57.7559,75.7087 L57.7559,83.9764 Z"
       style="fill-rule: evenodd; fill: url(#grad59); "
       id="path8" />
    <g
       id="Layer1028">
      <defs
         id="defs11">
        <linearGradient
           id="grad60">
          <stop
             offset="0%"
             stop-color="#9a9a9a"
             stop-opacity="1.0000"
             id="stop9" />
          <stop
             offset="50%"
             stop-color="#e6e6e6"
             stop-opacity="1.0000"
             id="stop10" />
          <stop
             offset="100%"
             stop-color="#9a9a9a"
             stop-opacity="1.0000"
             id="stop11" />
        </linearGradient>
        <linearGradient
           xlink:href="#grad60"
           id="grad61"
           x1="0"
           y1="0"
           x2="0"
           y2="1"
           gradientTransform="rotate(-0 .5 .5)"
           gradientUnits="objectBoundingBox" />
      </defs>
      <path
         d="  M57.7559,51.3780 L83.9764,51.3780 L83.9764,50.3150 L57.7559,50.3150 L57.7559,51.3780 Z"
         style="stroke-width: 0.1200; stroke-linecap: round; stroke-linejoin: round; fill-rule: evenodd; fill: url(#grad61); "
         id="path11" />
      <path
         d="  M57.7559,51.3780 L83.9764,51.3780 L83.9764,50.3150 L57.7559,50.3150 L57.7559,51.3780 Z"
         style="stroke-width: 0.1200; stroke: #000000; stroke-dasharray: none; stroke-linecap: round; stroke-linejoin: round; fill: none; "
         id="path12" />
    </g>
    <g
       id="Layer1029">
      <defs
         id="defs14">
        <linearGradient
           id="grad62">
          <stop
             offset="0%"
             stop-color="#9a9a9a"
             stop-opacity="1.0000"
             id="stop12" />
          <stop
             offset="50%"
             stop-color="#e6e6e6"
             stop-opacity="1.0000"
             id="stop13" />
          <stop
             offset="100%"
             stop-color="#9a9a9a"
             stop-opacity="1.0000"
             id="stop14" />
        </linearGradient>
      </defs>
      <path
         d="  M57.7559,55.2756 L83.9764,55.2756 L83.9764,51.3780 L57.7559,51.3780 L57.7559,55.2756 Z"
         style="stroke-width: 0.1200; stroke-linecap: round; stroke-linejoin: round; fill-rule: evenodd; fill: url(#grad62); "
         id="path14" />
      <path
         d="  M57.7559,55.2756 L83.9764,55.2756 L83.9764,51.3780 L57.7559,51.3780 L57.7559,55.2756 Z"
         style="stroke-width: 0.1200; stroke: #000000; stroke-dasharray: none; stroke-linecap: round; stroke-linejoin: round; fill: none; "
         id="path15" />
    </g>
    <g
       id="Layer1030">
      <path
         d="  M58.4646,54.5669 L64.1339,54.5669 L64.1339,52.0866 L58.4646,52.0866 L58.4646,54.5669 Z"
         style="stroke-width: 0.1200; stroke-linecap: round; stroke-linejoin: round; fill-rule: evenodd; fill: #666666; "
         id="path16" />
      <path
         d="  M58.4646,54.5669 L64.1339,54.5669 L64.1339,52.0866 L58.4646,52.0866 L58.4646,54.5669 Z"
         style="stroke-width: 0.1200; stroke: #000000; stroke-dasharray: none; stroke-linecap: round; stroke-linejoin: round; fill: none; "
         id="path17" />
    </g>
    <path
       d="  M58.8189,53.1496 L60.2362,53.1496 L60.2362,52.4409 L58.8189,52.4409 L58.8189,53.1496 Z"
       style="fill-rule: evenodd; fill: #ff0000; "
       id="path18" />
    <path
       d="  M62.3622,53.1496 L63.7795,53.1496 L63.7795,52.4409 L62.3622,52.4409 L62.3622,53.1496 Z"
       style="fill-rule: evenodd; fill: #00ff00; "
       id="path19" />
    <path
       d="  M58.8189,54.2126 L60.2362,54.2126 L60.2362,53.5039 L58.8189,53.5039 L58.8189,54.2126 Z"
       style="fill-rule: evenodd; fill: #00ff00; "
       id="path20" />
    <path
       d="  M60.5906,54.2126 L62.0079,54.2126 L62.0079,53.5039 L60.5906,53.5039 L60.5906,54.2126 Z"
       style="fill-rule: evenodd; fill: #ff0000; "
       id="path21" />
    <path
       d="  M60.5906,53.1496 L62.0079,53.1496 L62.0079,52.4409 L60.5906,52.4409 L60.5906,53.1496 Z"
       style="fill-rule: evenodd; fill: #ff0000; "
       id="path22" />
    <path
       d="  M62.3622,54.2126 L63.7795,54.2126 L63.7795,53.5039 L62.3622,53.5039 L62.3622,54.2126 Z"
       style="fill-rule: evenodd; fill: #00ff00; "
       id="path23" />
    <path
       d="  M83.9764,75.4724 L83.9764,75.8268 L57.7559,75.8268 L57.7559,75.4724 L83.9764,75.4724 Z M83.9764,72.6378 L83.9764,72.9921 L57.7559,72.9921 L57.7559,72.6378 L83.9764,72.6378 Z M83.9764,69.8031 L83.9764,70.1575 L57.7559,70.1575 L57.7559,69.8031 L83.9764,69.8031 Z M83.9764,66.9685 L83.9764,67.3228 L57.7559,67.3228 L57.7559,66.9685 L83.9764,66.9685 Z M83.9764,64.1339 L83.9764,64.4882 L57.7559,64.4882 L57.7559,64.1339 L83.9764,64.1339 Z M83.9764,61.2992 L83.9764,61.6535 L57.7559,61.6535 L57.7559,61.2992 L83.9764,61.2992 Z M83.9764,81.1417 L83.9764,81.4961 L81.1417,81.4961 L81.1417,81.1417 L83.9764,81.1417 Z M83.9764,78.3071 L83.9764,78.6614 L81.1417,78.6614 L81.1417,78.3071 L83.9764,78.3071 Z M83.9764,83.9764 L83.9764,84.3307 L57.7559,84.3307 L57.7559,83.9764 L83.9764,83.9764 Z M83.9764,86.8110 L83.9764,87.1654 L57.7559,87.1654 L57.7559,86.8110 L83.9764,86.8110 Z M83.9764,89.6457 L83.9764,90.0000 L57.7559,90.0000 L57.7559,89.6457 L83.9764,89.6457 Z"
       style="fill-rule: evenodd; fill: #666666; "
       id="path24" />
    <defs
       id="defs25">
      <radialGradient
         id="grad63"
         cx="100.0000%"
         cy="100.0000%"
         r="100.0000%">
        <stop
           offset="0%"
           stop-color="#e6e6e6"
           stop-opacity="1.0000"
           id="stop24" />
        <stop
           offset="100%"
           stop-color="#9a9a9a"
           stop-opacity="1.0000"
           id="stop25" />
      </radialGradient>
    </defs>
    <path
       d="  M81.1417,76.5354 A2.1260,3.3661 0.0000 0,0 79.0157,79.9016 A2.1260,3.3661 0.0000 0,0 81.1417,83.2677 A2.1260,3.3661 0.0000 0,0 83.2677,79.9016 A2.1260,3.3661 0.0000 0,0 81.1417,76.5354 Z"
       style="fill-rule: evenodd; fill: url(#grad63); "
       id="path25" />
    <path
       d="  M81.1417,55.2756 L81.1417,92.1260 L81.8504,92.1260 L81.8504,55.2756 L81.1417,55.2756 Z"
       style="fill-rule: evenodd; fill: #666666; "
       id="path26" />
    <path
       d="  M80.7874,55.2756 L80.7874,92.1260 L81.4961,92.1260 L81.4961,55.2756 L80.7874,55.2756 Z"
       style="fill-rule: evenodd; fill: #9a9a9a; "
       id="path27" />
    <defs
       id="defs28">
      <radialGradient
         id="grad64"
         cx="0.0000%"
         cy="0.0000%"
         r="100.0000%">
        <stop
           offset="0%"
           stop-color="#e6e6e6"
           stop-opacity="1.0000"
           id="stop27" />
        <stop
           offset="100%"
           stop-color="#9a9a9a"
           stop-opacity="1.0000"
           id="stop28" />
      </radialGradient>
    </defs>
    <path
       d="  M79.9606,86.9291 A1.1811,1.1811 0.0000 0,1 82.3228,86.9291 A1.1811,1.1811 0.0000 0,1 79.9606,86.9291 Z"
       style="fill-rule: evenodd; fill: url(#grad64); "
       id="path28" />
    <defs
       id="defs30">
      <radialGradient
         id="grad65"
         cx="100.0000%"
         cy="100.0000%"
         r="100.0000%">
        <stop
           offset="0%"
           stop-color="#e6e6e6"
           stop-opacity="1.0000"
           id="stop29" />
        <stop
           offset="100%"
           stop-color="#9a9a9a"
           stop-opacity="1.0000"
           id="stop30" />
      </radialGradient>
    </defs>
    <path
       d="  M80.4331,86.9291 A0.7087,0.7087 0.0000 0,1 81.8504,86.9291 A0.7087,0.7087 0.0000 0,1 80.4331,86.9291 Z"
       style="fill-rule: evenodd; fill: url(#grad65); "
       id="path30" />
    <g
       id="Layer1031">
      <path
         d="  M80.9055,86.9291 A0.2362,0.2362 0.0000 0,1 81.3780,86.9291 A0.2362,0.2362 0.0000 0,1 80.9055,86.9291 Z"
         style="stroke-width: 0.2400; stroke-linecap: butt; stroke-linejoin: miter; fill-rule: evenodd; fill: #00ff00; "
         id="path31" />
      <path
         d="  M80.9055,86.9291 A0.2362,0.2362 0.0000 0,1 81.3780,86.9291 A0.2362,0.2362 0.0000 0,1 80.9055,86.9291 Z"
         style="stroke-width: 0.2400; stroke: #000000; stroke-dasharray: none; stroke-linecap: butt; stroke-linejoin: miter; fill: none; "
         id="path32" />
    </g>
    <path
       d="  M56.6929,93.5433 L56.6929,92.1260 L55.2756,92.1260 L55.2756,48.1890 L60.9449,42.5197 L92.1260,42.5197 L92.1260,86.4567 L91.4173,87.1654 L91.4173,87.8740 L85.7480,93.5433 L56.6929,93.5433 Z"
       style="stroke-width: 0.7200; stroke: #000000; stroke-dasharray: none; stroke-linecap: round; stroke-linejoin: round; fill: none; "
       id="path33" />
    <!--converted by libvisio2svg-->
  </g>
</svg>
