<?xml version="1.0" encoding="UTF-8" standalone="no"?>
<svg
   version="1.1"
   width="1.9685000000"
   height="1.9685000000"
   viewBox="0 0 141.7323 141.7323"
   id="svg9"
   sodipodi:docname="Mouse.svg"
   inkscape:version="1.4 (e7c3feb1, 2024-10-09)"
   xmlns:inkscape="http://www.inkscape.org/namespaces/inkscape"
   xmlns:sodipodi="http://sodipodi.sourceforge.net/DTD/sodipodi-0.dtd"
   xmlns:xlink="http://www.w3.org/1999/xlink"
   xmlns="http://www.w3.org/2000/svg"
   xmlns:svg="http://www.w3.org/2000/svg">
  <defs
     id="defs9" />
  <sodipodi:namedview
     id="namedview9"
     pagecolor="#ffffff"
     bordercolor="#000000"
     borderopacity="0.25"
     inkscape:showpageshadow="2"
     inkscape:pageopacity="0.0"
     inkscape:pagecheckerboard="0"
     inkscape:deskcolor="#d1d1d1"
     inkscape:zoom="80.080254"
     inkscape:cx="7.3988277"
     inkscape:cy="0.48701144"
     inkscape:window-width="2560"
     inkscape:window-height="1027"
     inkscape:window-x="0"
     inkscape:window-y="25"
     inkscape:window-maximized="1"
     inkscape:current-layer="svg9" />
  <title
     id="title1"><![CDATA[Mouse]]></title>
  <g
     transform=" scale(1.000000) "
     id="g9">
    <g
       id="Layer1116">
      <path
         d="  M65.1969,72.9921 A8.0800,8.0800 0.0000 0,1 70.8661,67.3228 A10.8303,10.8303 0.0000 0,1 76.5354,67.3228 A8.0800,8.0800 0.0000 0,0 70.8661,72.9921 A4.3110,4.3110 0.0000 0,1 65.1969,72.9921 Z"
         style="stroke-width: 0.2400; stroke-linecap: round; stroke-linejoin: round; fill-rule: evenodd; fill: #c0c0c0; "
         id="path1" />
      <path
         d="  M65.1969,72.9921 A8.0800,8.0800 0.0000 0,1 70.8661,67.3228 A10.8303,10.8303 0.0000 0,1 76.5354,67.3228 A8.0800,8.0800 0.0000 0,0 70.8661,72.9921 A4.3110,4.3110 0.0000 0,1 65.1969,72.9921 Z"
         style="stroke-width: 0.2400; stroke: #000000; stroke-dasharray: none; stroke-linecap: round; stroke-linejoin: round; fill: none; "
         id="path2" />
    </g>
    <defs
       id="defs3">
      <linearGradient
         id="grad262">
        <stop
           offset="0%"
           stop-color="#e6e6e6"
           stop-opacity="1.0000"
           id="stop2" />
        <stop
           offset="100%"
           stop-color="#9a9a9a"
           stop-opacity="1.0000"
           id="stop3" />
      </linearGradient>
      <linearGradient
         xlink:href="#grad262"
         id="grad263"
         x1="0"
         y1="0"
         x2="0"
         y2="1"
         gradientTransform="rotate(-0 .5 .5)"
         gradientUnits="objectBoundingBox" />
    </defs>
    <path
       d="  M76.5354,67.3228 L76.5354,68.3858 L76.1811,69.0945 L71.2205,74.0551 L70.8661,74.0551 L70.8661,72.9921 A8.0800,8.0800 0.0000 0,1 76.5354,67.3228 Z"
       style="fill-rule: evenodd; fill: url(#grad263); "
       id="path3" />
    <defs
       id="defs5">
      <linearGradient
         id="grad264">
        <stop
           offset="0%"
           stop-color="#e6e6e6"
           stop-opacity="1.0000"
           id="stop4" />
        <stop
           offset="100%"
           stop-color="#c0c0c0"
           stop-opacity="1.0000"
           id="stop5" />
      </linearGradient>
    </defs>
    <path
       d="  M65.1969,72.9921 L65.1969,74.0551 L65.5512,74.4094 L70.5118,74.4094 L70.8661,74.0551 L70.8661,72.9921 A4.3110,4.3110 0.0000 0,1 65.1969,72.9921 Z"
       style="fill-rule: evenodd; fill: url(#grad264); "
       id="path5" />
    <path
       d="  M69.0945,68.0315 A12.6794,10.0643 4.0856 0,1 74.0551,68.3858"
       style="stroke-width: 0.1200; stroke: #000000; stroke-dasharray: none; stroke-linecap: round; stroke-linejoin: round; fill: none; "
       id="path6" />
    <path
       d="  M71.9291,68.0315 A4.0116,3.1842 336.8014 0,1 74.4094,66.9685"
       style="stroke-width: 0.1200; stroke: #000000; stroke-dasharray: none; stroke-linecap: round; stroke-linejoin: round; fill: none; "
       id="path7" />
    <path
       d="  M76.5354,67.3228 C77.2266,67.7006 78.4989,67.4045 78.7288,67.1012 C79.0706,66.6502 77.1063,66.1835 75.2688,65.9908 C74.2629,65.8854 73.2951,65.8620 72.4690,65.6279 C71.9543,65.4819 71.4946,65.2542 71.7202,65.1179 C72.1378,64.8658 74.9026,64.9272 75.3433,64.5609 C75.4958,64.4343 75.3703,64.2566 75.1952,64.1190 C74.2627,63.3864 71.9204,63.7912 70.8661,63.0709"
       style="stroke-width: 0.2400; stroke: #000000; stroke-dasharray: none; stroke-linecap: round; stroke-linejoin: round; fill: none; "
       id="path8" />
    <path
       d="  M65.1969,72.9921 L65.1969,74.0551 L65.5512,74.4094 L70.5118,74.4094 L71.2205,74.0551 L76.1811,69.0945 L76.5354,68.3858 L76.5354,67.3228 A10.8303,10.8303 0.0000 0,0 70.8661,67.3228 A8.0800,8.0800 0.0000 0,0 65.1969,72.9921 Z"
       style="stroke-width: 0.2400; stroke: #000000; stroke-dasharray: none; stroke-linecap: round; stroke-linejoin: round; fill: none; "
       id="path9" />
    <!--converted by libvisio2svg-->
  </g>
</svg>
