<?xml version="1.0" encoding="UTF-8" standalone="no"?>
<svg
   version="1.1"
   width="1.9685000000"
   height="1.9685000000"
   viewBox="0 0 141.7323 141.7323"
   id="svg44"
   sodipodi:docname="Multiplexer.svg"
   inkscape:version="1.4 (e7c3feb1, 2024-10-09)"
   xmlns:inkscape="http://www.inkscape.org/namespaces/inkscape"
   xmlns:sodipodi="http://sodipodi.sourceforge.net/DTD/sodipodi-0.dtd"
   xmlns:xlink="http://www.w3.org/1999/xlink"
   xmlns="http://www.w3.org/2000/svg"
   xmlns:svg="http://www.w3.org/2000/svg">
  <defs
     id="defs44" />
  <sodipodi:namedview
     id="namedview44"
     pagecolor="#ffffff"
     bordercolor="#000000"
     borderopacity="0.25"
     inkscape:showpageshadow="2"
     inkscape:pageopacity="0.0"
     inkscape:pagecheckerboard="0"
     inkscape:deskcolor="#d1d1d1"
     inkscape:zoom="125.06526"
     inkscape:cx="4.1298438"
     inkscape:cy="0.4397704"
     inkscape:window-width="2560"
     inkscape:window-height="1027"
     inkscape:window-x="0"
     inkscape:window-y="25"
     inkscape:window-maximized="1"
     inkscape:current-layer="svg44" />
  <title
     id="title1"><![CDATA[Multiplexer]]></title>
  <g
     transform=" scale(1.000000) "
     id="g44">
    <path
       d="  M90.7972,79.3701 L96.7766,73.4173 L92.1260,78.0472 L90.7972,78.0472 L90.7972,79.3701 Z M92.1260,62.3622 L97.7953,56.6929 L97.7953,72.5669 L92.1260,78.0472 L92.1260,62.3622 Z M50.9350,78.0472 L50.9350,79.3701 L90.7972,79.3701 L90.7972,78.0472 L50.9350,78.0472 Z"
       style="fill-rule: evenodd; fill: #9a9a9a; "
       id="path1" />
    <path
       d="  M97.7953,56.6929 L55.2756,56.6929 L49.6063,62.3622 L92.1260,62.3622 L97.7953,56.6929 Z"
       style="fill-rule: evenodd; fill: #e6e6e6; "
       id="path2" />
    <g
       id="Layer1049">
      <path
         d="  M49.6063,78.0472 L92.1260,78.0472 L92.1260,62.3622 L49.6063,62.3622 L49.6063,78.0472 Z"
         style="stroke-width: 0.2400; stroke-linecap: round; stroke-linejoin: round; fill-rule: evenodd; fill: #c0c0c0; "
         id="path3" />
      <path
         d="  M49.6063,78.0472 L92.1260,78.0472 L92.1260,62.3622 L49.6063,62.3622 L49.6063,78.0472 Z"
         style="stroke-width: 0.2400; stroke: #000000; stroke-dasharray: none; stroke-linecap: round; stroke-linejoin: round; fill: none; "
         id="path4" />
    </g>
    <path
       d="  M50.9350,70.7717 L82.1604,70.7717 L82.1604,66.8031 L50.9350,66.8031 L50.9350,70.7717 Z M50.9350,76.8898 L90.7972,76.8898 L90.7972,72.9213 L50.9350,72.9213 L50.9350,76.8898 Z"
       style="fill-rule: evenodd; fill: #dbdac6; "
       id="path5" />
    <defs
       id="defs6">
      <linearGradient
         id="grad131">
        <stop
           offset="0%"
           stop-color="#000000"
           stop-opacity="1.0000"
           id="stop5" />
        <stop
           offset="100%"
           stop-color="#ffffff"
           stop-opacity="1.0000"
           id="stop6" />
      </linearGradient>
      <linearGradient
         xlink:href="#grad131"
         id="grad132"
         x1="0"
         y1="0"
         x2="0"
         y2="1"
         gradientTransform="rotate(135 .5 .5)"
         gradientUnits="objectBoundingBox" />
    </defs>
    <path
       d="  M79.6916,71.8861 A0.4940,0.4918 0.0000 1,0 80.6796,71.8861 A0.4940,0.4918 0.0000 0,0 79.6916,71.8861 Z"
       style="fill-rule: evenodd; fill: url(#grad132); "
       id="path6" />
    <defs
       id="defs8">
      <linearGradient
         id="grad133">
        <stop
           offset="0%"
           stop-color="#ff0000"
           stop-opacity="1.0000"
           id="stop7" />
        <stop
           offset="100%"
           stop-color="#ffffff"
           stop-opacity="1.0000"
           id="stop8" />
      </linearGradient>
      <linearGradient
         xlink:href="#grad133"
         id="grad134"
         x1="0"
         y1="0"
         x2="0"
         y2="1"
         gradientTransform="rotate(135 .5 .5)"
         gradientUnits="objectBoundingBox" />
    </defs>
    <path
       d="  M79.6916,65.6027 A0.4940,0.4918 0.0000 1,0 80.6796,65.6027 A0.4940,0.4918 0.0000 0,0 79.6916,65.6027 Z"
       style="fill-rule: evenodd; fill: url(#grad134); "
       id="path8" />
    <defs
       id="defs10">
      <linearGradient
         id="grad135">
        <stop
           offset="0%"
           stop-color="#000000"
           stop-opacity="1.0000"
           id="stop9" />
        <stop
           offset="100%"
           stop-color="#ffffff"
           stop-opacity="1.0000"
           id="stop10" />
      </linearGradient>
      <linearGradient
         xlink:href="#grad135"
         id="grad136"
         x1="0"
         y1="0"
         x2="0"
         y2="1"
         gradientTransform="rotate(135 .5 .5)"
         gradientUnits="objectBoundingBox" />
    </defs>
    <path
       d="  M75.7394,71.8861 A0.4940,0.4918 0.0000 0,0 76.7274,71.8861 A0.4940,0.4918 0.0000 0,0 75.7394,71.8861 Z"
       style="fill-rule: evenodd; fill: url(#grad136); "
       id="path10" />
    <defs
       id="defs12">
      <linearGradient
         id="grad137">
        <stop
           offset="0%"
           stop-color="#000000"
           stop-opacity="1.0000"
           id="stop11" />
        <stop
           offset="100%"
           stop-color="#ffffff"
           stop-opacity="1.0000"
           id="stop12" />
      </linearGradient>
      <linearGradient
         xlink:href="#grad137"
         id="grad138"
         x1="0"
         y1="0"
         x2="0"
         y2="1"
         gradientTransform="rotate(135 .5 .5)"
         gradientUnits="objectBoundingBox" />
    </defs>
    <path
       d="  M75.7394,65.6027 A0.4940,0.4918 0.0000 0,0 76.7274,65.6027 A0.4940,0.4918 0.0000 0,0 75.7394,65.6027 Z"
       style="fill-rule: evenodd; fill: url(#grad138); "
       id="path12" />
    <defs
       id="defs14">
      <linearGradient
         id="grad139">
        <stop
           offset="0%"
           stop-color="#000000"
           stop-opacity="1.0000"
           id="stop13" />
        <stop
           offset="100%"
           stop-color="#ffffff"
           stop-opacity="1.0000"
           id="stop14" />
      </linearGradient>
      <linearGradient
         xlink:href="#grad139"
         id="grad140"
         x1="0"
         y1="0"
         x2="0"
         y2="1"
         gradientTransform="rotate(135 .5 .5)"
         gradientUnits="objectBoundingBox" />
    </defs>
    <path
       d="  M63.8830,71.8861 A0.4940,0.4918 0.0000 0,0 64.8710,71.8861 A0.4940,0.4918 0.0000 0,0 63.8830,71.8861 Z"
       style="fill-rule: evenodd; fill: url(#grad140); "
       id="path14" />
    <defs
       id="defs16">
      <linearGradient
         id="grad141">
        <stop
           offset="0%"
           stop-color="#000000"
           stop-opacity="1.0000"
           id="stop15" />
        <stop
           offset="100%"
           stop-color="#ffffff"
           stop-opacity="1.0000"
           id="stop16" />
      </linearGradient>
      <linearGradient
         xlink:href="#grad141"
         id="grad142"
         x1="0"
         y1="0"
         x2="0"
         y2="1"
         gradientTransform="rotate(135 .5 .5)"
         gradientUnits="objectBoundingBox" />
    </defs>
    <path
       d="  M63.8830,65.6027 A0.4940,0.4918 0.0000 0,0 64.8710,65.6027 A0.4940,0.4918 0.0000 0,0 63.8830,65.6027 Z"
       style="fill-rule: evenodd; fill: url(#grad142); "
       id="path16" />
    <defs
       id="defs18">
      <linearGradient
         id="grad143">
        <stop
           offset="0%"
           stop-color="#008000"
           stop-opacity="1.0000"
           id="stop17" />
        <stop
           offset="100%"
           stop-color="#00ff00"
           stop-opacity="1.0000"
           id="stop18" />
      </linearGradient>
      <linearGradient
         xlink:href="#grad143"
         id="grad144"
         x1="0"
         y1="0"
         x2="0"
         y2="1"
         gradientTransform="rotate(135 .5 .5)"
         gradientUnits="objectBoundingBox" />
    </defs>
    <path
       d="  M59.9308,71.8861 A0.4940,0.4918 0.0000 1,0 60.9188,71.8861 A0.4940,0.4918 0.0000 0,0 59.9308,71.8861 Z"
       style="fill-rule: evenodd; fill: url(#grad144); "
       id="path18" />
    <defs
       id="defs20">
      <linearGradient
         id="grad145">
        <stop
           offset="0%"
           stop-color="#008000"
           stop-opacity="1.0000"
           id="stop19" />
        <stop
           offset="100%"
           stop-color="#00ff00"
           stop-opacity="1.0000"
           id="stop20" />
      </linearGradient>
      <linearGradient
         xlink:href="#grad145"
         id="grad146"
         x1="0"
         y1="0"
         x2="0"
         y2="1"
         gradientTransform="rotate(135 .5 .5)"
         gradientUnits="objectBoundingBox" />
    </defs>
    <path
       d="  M59.9308,65.6027 A0.4940,0.4918 0.0000 1,0 60.9188,65.6027 A0.4940,0.4918 0.0000 0,0 59.9308,65.6027 Z"
       style="fill-rule: evenodd; fill: url(#grad146); "
       id="path20" />
    <defs
       id="defs22">
      <linearGradient
         id="grad147">
        <stop
           offset="0%"
           stop-color="#ff0000"
           stop-opacity="1.0000"
           id="stop21" />
        <stop
           offset="100%"
           stop-color="#ffffff"
           stop-opacity="1.0000"
           id="stop22" />
      </linearGradient>
      <linearGradient
         xlink:href="#grad147"
         id="grad148"
         x1="0"
         y1="0"
         x2="0"
         y2="1"
         gradientTransform="rotate(135 .5 .5)"
         gradientUnits="objectBoundingBox" />
    </defs>
    <path
       d="  M55.9787,71.8861 A0.4940,0.4918 0.0000 1,0 56.9667,71.8861 A0.4940,0.4918 0.0000 0,0 55.9787,71.8861 Z"
       style="fill-rule: evenodd; fill: url(#grad148); "
       id="path22" />
    <defs
       id="defs24">
      <linearGradient
         id="grad149">
        <stop
           offset="0%"
           stop-color="#000000"
           stop-opacity="1.0000"
           id="stop23" />
        <stop
           offset="100%"
           stop-color="#ffffff"
           stop-opacity="1.0000"
           id="stop24" />
      </linearGradient>
      <linearGradient
         xlink:href="#grad149"
         id="grad150"
         x1="0"
         y1="0"
         x2="0"
         y2="1"
         gradientTransform="rotate(135 .5 .5)"
         gradientUnits="objectBoundingBox" />
    </defs>
    <path
       d="  M55.9787,65.6027 A0.4940,0.4918 0.0000 0,0 56.9667,65.6027 A0.4940,0.4918 0.0000 0,0 55.9787,65.6027 Z"
       style="fill-rule: evenodd; fill: url(#grad150); "
       id="path24" />
    <defs
       id="defs26">
      <linearGradient
         id="grad151">
        <stop
           offset="0%"
           stop-color="#000000"
           stop-opacity="1.0000"
           id="stop25" />
        <stop
           offset="100%"
           stop-color="#ffffff"
           stop-opacity="1.0000"
           id="stop26" />
      </linearGradient>
      <linearGradient
         xlink:href="#grad151"
         id="grad152"
         x1="0"
         y1="0"
         x2="0"
         y2="1"
         gradientTransform="rotate(135 .5 .5)"
         gradientUnits="objectBoundingBox" />
    </defs>
    <path
       d="  M52.0265,71.8861 A0.4940,0.4918 0.0000 1,0 53.0145,71.8861 A0.4940,0.4918 0.0000 0,0 52.0265,71.8861 Z"
       style="fill-rule: evenodd; fill: url(#grad152); "
       id="path26" />
    <defs
       id="defs28">
      <linearGradient
         id="grad153">
        <stop
           offset="0%"
           stop-color="#000000"
           stop-opacity="1.0000"
           id="stop27" />
        <stop
           offset="100%"
           stop-color="#ffffff"
           stop-opacity="1.0000"
           id="stop28" />
      </linearGradient>
      <linearGradient
         xlink:href="#grad153"
         id="grad154"
         x1="0"
         y1="0"
         x2="0"
         y2="1"
         gradientTransform="rotate(135 .5 .5)"
         gradientUnits="objectBoundingBox" />
    </defs>
    <path
       d="  M52.0265,65.6027 A0.4940,0.4918 0.0000 0,0 53.0145,65.6027 A0.4940,0.4918 0.0000 0,0 52.0265,65.6027 Z"
       style="fill-rule: evenodd; fill: url(#grad154); "
       id="path28" />
    <defs
       id="defs30">
      <linearGradient
         id="grad155">
        <stop
           offset="0%"
           stop-color="#008000"
           stop-opacity="1.0000"
           id="stop29" />
        <stop
           offset="100%"
           stop-color="#00ff00"
           stop-opacity="1.0000"
           id="stop30" />
      </linearGradient>
      <linearGradient
         xlink:href="#grad155"
         id="grad156"
         x1="0"
         y1="0"
         x2="0"
         y2="1"
         gradientTransform="rotate(135 .5 .5)"
         gradientUnits="objectBoundingBox" />
    </defs>
    <path
       d="  M67.8351,71.8861 A0.4940,0.4918 0.0000 1,0 68.8231,71.8861 A0.4940,0.4918 0.0000 0,0 67.8351,71.8861 Z"
       style="fill-rule: evenodd; fill: url(#grad156); "
       id="path30" />
    <defs
       id="defs32">
      <linearGradient
         id="grad157">
        <stop
           offset="0%"
           stop-color="#008000"
           stop-opacity="1.0000"
           id="stop31" />
        <stop
           offset="100%"
           stop-color="#00ff00"
           stop-opacity="1.0000"
           id="stop32" />
      </linearGradient>
      <linearGradient
         xlink:href="#grad157"
         id="grad158"
         x1="0"
         y1="0"
         x2="0"
         y2="1"
         gradientTransform="rotate(135 .5 .5)"
         gradientUnits="objectBoundingBox" />
    </defs>
    <path
       d="  M67.8351,65.6027 A0.4940,0.4918 0.0000 1,0 68.8231,65.6027 A0.4940,0.4918 0.0000 0,0 67.8351,65.6027 Z"
       style="fill-rule: evenodd; fill: url(#grad158); "
       id="path32" />
    <defs
       id="defs34">
      <linearGradient
         id="grad159">
        <stop
           offset="0%"
           stop-color="#008000"
           stop-opacity="1.0000"
           id="stop33" />
        <stop
           offset="100%"
           stop-color="#00ff00"
           stop-opacity="1.0000"
           id="stop34" />
      </linearGradient>
      <linearGradient
         xlink:href="#grad159"
         id="grad160"
         x1="0"
         y1="0"
         x2="0"
         y2="1"
         gradientTransform="rotate(135 .5 .5)"
         gradientUnits="objectBoundingBox" />
    </defs>
    <path
       d="  M71.7873,71.8861 A0.4940,0.4918 0.0000 1,0 72.7753,71.8861 A0.4940,0.4918 0.0000 0,0 71.7873,71.8861 Z"
       style="fill-rule: evenodd; fill: url(#grad160); "
       id="path34" />
    <defs
       id="defs36">
      <linearGradient
         id="grad161">
        <stop
           offset="0%"
           stop-color="#008000"
           stop-opacity="1.0000"
           id="stop35" />
        <stop
           offset="100%"
           stop-color="#00ff00"
           stop-opacity="1.0000"
           id="stop36" />
      </linearGradient>
      <linearGradient
         xlink:href="#grad161"
         id="grad162"
         x1="0"
         y1="0"
         x2="0"
         y2="1"
         gradientTransform="rotate(135 .5 .5)"
         gradientUnits="objectBoundingBox" />
    </defs>
    <path
       d="  M71.7873,65.6027 A0.4940,0.4918 0.0000 1,0 72.7753,65.6027 A0.4940,0.4918 0.0000 0,0 71.7873,65.6027 Z"
       style="fill-rule: evenodd; fill: url(#grad162); "
       id="path36" />
    <g
       id="Layer1050">
      <defs
         id="defs39">
        <linearGradient
           id="grad163">
          <stop
             offset="0%"
             stop-color="#e6e6e6"
             stop-opacity="1.0000"
             id="stop37" />
          <stop
             offset="50%"
             stop-color="#9a9a9a"
             stop-opacity="1.0000"
             id="stop38" />
          <stop
             offset="100%"
             stop-color="#e6e6e6"
             stop-opacity="1.0000"
             id="stop39" />
        </linearGradient>
        <linearGradient
           xlink:href="#grad163"
           id="grad164"
           x1="0"
           y1="0"
           x2="0"
           y2="1"
           gradientTransform="rotate(-0 .5 .5)"
           gradientUnits="objectBoundingBox" />
      </defs>
      <path
         d="  M83.9851,76.4446 L89.3644,76.4446 L90.1329,73.3843 L83.2166,73.3843 L83.9851,76.4446 Z M79.6597,75.4609 L79.6597,76.2478 L80.8453,76.2478 L80.8453,75.4609 L81.2405,75.4609 L81.2405,73.4936 L79.2645,73.4936 L79.2645,75.4609 L79.6597,75.4609 Z M75.7075,75.4609 L75.7075,76.2478 L76.8932,76.2478 L76.8932,75.4609 L77.2884,75.4609 L77.2884,73.4936 L75.3123,73.4936 L75.3123,75.4609 L75.7075,75.4609 Z M71.7554,75.4609 L71.7554,76.2478 L72.9410,76.2478 L72.9410,75.4609 L73.3362,75.4609 L73.3362,73.4936 L71.3602,73.4936 L71.3602,75.4609 L71.7554,75.4609 Z M67.8032,75.4609 L67.8032,76.2478 L68.9889,76.2478 L68.9889,75.4609 L69.3841,75.4609 L69.3841,73.4936 L67.4080,73.4936 L67.4080,75.4609 L67.8032,75.4609 Z M63.8511,75.4609 L63.8511,76.2478 L65.0367,76.2478 L65.0367,75.4609 L65.4319,75.4609 L65.4319,73.4936 L63.4559,73.4936 L63.4559,75.4609 L63.8511,75.4609 Z M59.8989,75.4609 L59.8989,76.2478 L61.0846,76.2478 L61.0846,75.4609 L61.4798,75.4609 L61.4798,73.4936 L59.5037,73.4936 L59.5037,75.4609 L59.8989,75.4609 Z M55.9468,75.4609 L55.9468,76.2478 L57.1324,76.2478 L57.1324,75.4609 L57.5276,75.4609 L57.5276,73.4936 L55.5516,73.4936 L55.5516,75.4609 L55.9468,75.4609 Z M51.9946,75.4609 L51.9946,76.2478 L53.1803,76.2478 L53.1803,75.4609 L53.5755,75.4609 L53.5755,73.4936 L51.5994,73.4936 L51.5994,75.4609 L51.9946,75.4609 Z"
         style="stroke-width: 0.1200; stroke-linecap: round; stroke-linejoin: round; fill-rule: evenodd; fill: url(#grad164); "
         id="path39" />
      <path
         d="  M83.9851,76.4446 L89.3644,76.4446 L90.1329,73.3843 L83.2166,73.3843 L83.9851,76.4446 Z M79.6597,75.4609 L79.6597,76.2478 L80.8453,76.2478 L80.8453,75.4609 L81.2405,75.4609 L81.2405,73.4936 L79.2645,73.4936 L79.2645,75.4609 L79.6597,75.4609 Z M75.7075,75.4609 L75.7075,76.2478 L76.8932,76.2478 L76.8932,75.4609 L77.2884,75.4609 L77.2884,73.4936 L75.3123,73.4936 L75.3123,75.4609 L75.7075,75.4609 Z M71.7554,75.4609 L71.7554,76.2478 L72.9410,76.2478 L72.9410,75.4609 L73.3362,75.4609 L73.3362,73.4936 L71.3602,73.4936 L71.3602,75.4609 L71.7554,75.4609 Z M67.8032,75.4609 L67.8032,76.2478 L68.9889,76.2478 L68.9889,75.4609 L69.3841,75.4609 L69.3841,73.4936 L67.4080,73.4936 L67.4080,75.4609 L67.8032,75.4609 Z M63.8511,75.4609 L63.8511,76.2478 L65.0367,76.2478 L65.0367,75.4609 L65.4319,75.4609 L65.4319,73.4936 L63.4559,73.4936 L63.4559,75.4609 L63.8511,75.4609 Z M59.8989,75.4609 L59.8989,76.2478 L61.0846,76.2478 L61.0846,75.4609 L61.4798,75.4609 L61.4798,73.4936 L59.5037,73.4936 L59.5037,75.4609 L59.8989,75.4609 Z M55.9468,75.4609 L55.9468,76.2478 L57.1324,76.2478 L57.1324,75.4609 L57.5276,75.4609 L57.5276,73.4936 L55.5516,73.4936 L55.5516,75.4609 L55.9468,75.4609 Z M51.9946,75.4609 L51.9946,76.2478 L53.1803,76.2478 L53.1803,75.4609 L53.5755,75.4609 L53.5755,73.4936 L51.5994,73.4936 L51.5994,75.4609 L51.9946,75.4609 Z"
         style="stroke-width: 0.1200; stroke: #000000; stroke-dasharray: none; stroke-linecap: round; stroke-linejoin: round; fill: none; "
         id="path40" />
    </g>
    <g
       id="Layer1051">
      <defs
         id="defs42">
        <linearGradient
           id="grad165">
          <stop
             offset="0%"
             stop-color="#e6e6e6"
             stop-opacity="1.0000"
             id="stop40" />
          <stop
             offset="50%"
             stop-color="#9a9a9a"
             stop-opacity="1.0000"
             id="stop41" />
          <stop
             offset="100%"
             stop-color="#e6e6e6"
             stop-opacity="1.0000"
             id="stop42" />
        </linearGradient>
        <linearGradient
           xlink:href="#grad165"
           id="grad166"
           x1="0"
           y1="0"
           x2="0"
           y2="1"
           gradientTransform="rotate(-0 .5 .5)"
           gradientUnits="objectBoundingBox" />
      </defs>
      <path
         d="  M79.6597,69.3233 L79.6597,70.1102 L80.8453,70.1102 L80.8453,69.3233 L81.2405,69.3233 L81.2405,67.3560 L79.2645,67.3560 L79.2645,69.3233 L79.6597,69.3233 Z M75.7075,69.3233 L75.7075,70.1102 L76.8932,70.1102 L76.8932,69.3233 L77.2884,69.3233 L77.2884,67.3560 L75.3123,67.3560 L75.3123,69.3233 L75.7075,69.3233 Z M71.7554,69.3233 L71.7554,70.1102 L72.9410,70.1102 L72.9410,69.3233 L73.3362,69.3233 L73.3362,67.3560 L71.3602,67.3560 L71.3602,69.3233 L71.7554,69.3233 Z M67.8032,69.3233 L67.8032,70.1102 L68.9889,70.1102 L68.9889,69.3233 L69.3841,69.3233 L69.3841,67.3560 L67.4080,67.3560 L67.4080,69.3233 L67.8032,69.3233 Z M63.8511,69.3233 L63.8511,70.1102 L65.0367,70.1102 L65.0367,69.3233 L65.4319,69.3233 L65.4319,67.3560 L63.4559,67.3560 L63.4559,69.3233 L63.8511,69.3233 Z M59.8989,69.3233 L59.8989,70.1102 L61.0846,70.1102 L61.0846,69.3233 L61.4798,69.3233 L61.4798,67.3560 L59.5037,67.3560 L59.5037,69.3233 L59.8989,69.3233 Z M55.9468,69.3233 L55.9468,70.1102 L57.1324,70.1102 L57.1324,69.3233 L57.5276,69.3233 L57.5276,67.3560 L55.5516,67.3560 L55.5516,69.3233 L55.9468,69.3233 Z M51.9946,69.3233 L51.9946,70.1102 L53.1803,70.1102 L53.1803,69.3233 L53.5755,69.3233 L53.5755,67.3560 L51.5994,67.3560 L51.5994,69.3233 L51.9946,69.3233 Z"
         style="stroke-width: 0.1200; stroke-linecap: round; stroke-linejoin: round; fill-rule: evenodd; fill: url(#grad166); "
         id="path42" />
      <path
         d="  M79.6597,69.3233 L79.6597,70.1102 L80.8453,70.1102 L80.8453,69.3233 L81.2405,69.3233 L81.2405,67.3560 L79.2645,67.3560 L79.2645,69.3233 L79.6597,69.3233 Z M75.7075,69.3233 L75.7075,70.1102 L76.8932,70.1102 L76.8932,69.3233 L77.2884,69.3233 L77.2884,67.3560 L75.3123,67.3560 L75.3123,69.3233 L75.7075,69.3233 Z M71.7554,69.3233 L71.7554,70.1102 L72.9410,70.1102 L72.9410,69.3233 L73.3362,69.3233 L73.3362,67.3560 L71.3602,67.3560 L71.3602,69.3233 L71.7554,69.3233 Z M67.8032,69.3233 L67.8032,70.1102 L68.9889,70.1102 L68.9889,69.3233 L69.3841,69.3233 L69.3841,67.3560 L67.4080,67.3560 L67.4080,69.3233 L67.8032,69.3233 Z M63.8511,69.3233 L63.8511,70.1102 L65.0367,70.1102 L65.0367,69.3233 L65.4319,69.3233 L65.4319,67.3560 L63.4559,67.3560 L63.4559,69.3233 L63.8511,69.3233 Z M59.8989,69.3233 L59.8989,70.1102 L61.0846,70.1102 L61.0846,69.3233 L61.4798,69.3233 L61.4798,67.3560 L59.5037,67.3560 L59.5037,69.3233 L59.8989,69.3233 Z M55.9468,69.3233 L55.9468,70.1102 L57.1324,70.1102 L57.1324,69.3233 L57.5276,69.3233 L57.5276,67.3560 L55.5516,67.3560 L55.5516,69.3233 L55.9468,69.3233 Z M51.9946,69.3233 L51.9946,70.1102 L53.1803,70.1102 L53.1803,69.3233 L53.5755,69.3233 L53.5755,67.3560 L51.5994,67.3560 L51.5994,69.3233 L51.9946,69.3233 Z"
         style="stroke-width: 0.1200; stroke: #000000; stroke-dasharray: none; stroke-linecap: round; stroke-linejoin: round; fill: none; "
         id="path43" />
    </g>
    <path
       d="  M50.9350,79.3701 L50.9350,78.0472 L49.6063,78.0472 L49.6063,62.3622 L55.2756,56.6929 L97.7953,56.6929 L97.7953,72.2835 L90.7087,79.3701 L50.9350,79.3701 Z"
       style="stroke-width: 0.7200; stroke: #000000; stroke-dasharray: none; stroke-linecap: round; stroke-linejoin: round; fill: none; "
       id="path44" />
    <!--converted by libvisio2svg-->
  </g>
</svg>
