<?xml version="1.0" encoding="UTF-8" standalone="no"?>
<svg
   version="1.1"
   width="1.9685000000"
   height="1.9685000000"
   viewBox="0 0 141.7323 141.7323"
   id="svg16"
   sodipodi:docname="PBX___comm__hub.svg"
   inkscape:version="1.4 (e7c3feb1, 2024-10-09)"
   xmlns:inkscape="http://www.inkscape.org/namespaces/inkscape"
   xmlns:sodipodi="http://sodipodi.sourceforge.net/DTD/sodipodi-0.dtd"
   xmlns:xlink="http://www.w3.org/1999/xlink"
   xmlns="http://www.w3.org/2000/svg"
   xmlns:svg="http://www.w3.org/2000/svg">
  <defs
     id="defs16" />
  <sodipodi:namedview
     id="namedview16"
     pagecolor="#ffffff"
     bordercolor="#000000"
     borderopacity="0.25"
     inkscape:showpageshadow="2"
     inkscape:pageopacity="0.0"
     inkscape:pagecheckerboard="0"
     inkscape:deskcolor="#d1d1d1"
     inkscape:zoom="53.535584"
     inkscape:cx="7.5744014"
     inkscape:cy="0.44829996"
     inkscape:window-width="2560"
     inkscape:window-height="1027"
     inkscape:window-x="0"
     inkscape:window-y="25"
     inkscape:window-maximized="1"
     inkscape:current-layer="svg16" />
  <title
     id="title1"><![CDATA[PBX / comm. hub]]></title>
  <g
     transform=" scale(1.000000) "
     id="g16">
    <path
       d="  M100.0984,41.6339 L57.5787,41.6339 L49.6063,49.6063 L92.1260,49.6063 L100.0984,41.6339 Z"
       style="fill-rule: evenodd; fill: #e6e6e6; "
       id="path1" />
    <path
       d="  M92.1260,49.6063 L100.0984,41.6339 L100.0984,84.1535 L92.1260,92.1260 L92.1260,49.6063 Z"
       style="fill-rule: evenodd; fill: #9a9a9a; "
       id="path2" />
    <g
       id="Layer1078">
      <path
         d="  M49.7318,92.1260 L92.2515,92.1260 L92.2515,49.6063 L49.7318,49.6063 L49.7318,92.1260 Z"
         style="stroke-width: 0.2400; stroke-linecap: round; stroke-linejoin: round; fill-rule: evenodd; fill: #c0c0c0; "
         id="path3" />
      <path
         d="  M49.7318,92.1260 L92.2515,92.1260 L92.2515,49.6063 L49.7318,49.6063 L49.7318,92.1260 Z"
         style="stroke-width: 0.2400; stroke: #000000; stroke-dasharray: none; stroke-linecap: round; stroke-linejoin: round; fill: none; "
         id="path4" />
    </g>
    <path
       d="  M68.5644,64.6514 L70.6569,62.5589 L88.2339,62.5589 L88.2339,64.6514 L68.5644,64.6514 Z"
       style="fill-rule: evenodd; fill: #e6e6e6; "
       id="path5" />
    <path
       d="  M70.6569,54.1889 L88.2339,54.1889 L88.2339,52.0964 L68.5644,52.0964 L70.6569,54.1889 Z"
       style="fill-rule: evenodd; fill: #9a9a9a; "
       id="path6" />
    <path
       d="  M68.5644,64.6514 L88.2339,64.6514 L88.2339,52.0964 L68.5644,52.0964 L68.5644,64.6514 Z"
       style="stroke-width: 0.2400; stroke: #000000; stroke-dasharray: none; stroke-linecap: round; stroke-linejoin: round; fill: none; "
       id="path7" />
    <g
       id="Layer1079">
      <defs
         id="defs8">
        <linearGradient
           id="grad201">
          <stop
             offset="0%"
             stop-color="#00ff00"
             stop-opacity="1.0000"
             id="stop7" />
          <stop
             offset="100%"
             stop-color="#ffffff"
             stop-opacity="1.0000"
             id="stop8" />
        </linearGradient>
        <linearGradient
           xlink:href="#grad201"
           id="grad202"
           x1="0"
           y1="0"
           x2="0"
           y2="1"
           gradientTransform="rotate(135 .5 .5)"
           gradientUnits="objectBoundingBox" />
      </defs>
      <path
         d="  M82.5144,58.3739 L87.2749,58.3739 L87.2749,54.4679 L82.5144,54.4679 L82.5144,58.3739 Z"
         style="stroke-width: 0.2400; stroke-linecap: round; stroke-linejoin: round; fill-rule: evenodd; fill: url(#grad202); "
         id="path8" />
      <path
         d="  M82.5144,58.3739 L87.2749,58.3739 L87.2749,54.4679 L82.5144,54.4679 L82.5144,58.3739 Z"
         style="stroke-width: 0.2400; stroke: #000000; stroke-dasharray: none; stroke-linecap: round; stroke-linejoin: round; fill: none; "
         id="path9" />
    </g>
    <g
       id="Layer1080">
      <defs
         id="defs10">
        <linearGradient
           id="grad203">
          <stop
             offset="0%"
             stop-color="#8a8aff"
             stop-opacity="1.0000"
             id="stop9" />
          <stop
             offset="100%"
             stop-color="#ffffff"
             stop-opacity="1.0000"
             id="stop10" />
        </linearGradient>
        <linearGradient
           xlink:href="#grad203"
           id="grad204"
           x1="0"
           y1="0"
           x2="0"
           y2="1"
           gradientTransform="rotate(135 .5 .5)"
           gradientUnits="objectBoundingBox" />
      </defs>
      <path
         d="  M72.7494,58.3739 L80.5614,58.3739 L80.5614,54.4679 L72.7494,54.4679 L72.7494,58.3739 Z"
         style="stroke-width: 0.2400; stroke-linecap: round; stroke-linejoin: round; fill-rule: evenodd; fill: url(#grad204); "
         id="path10" />
      <path
         d="  M72.7494,58.3739 L80.5614,58.3739 L80.5614,54.4679 L72.7494,54.4679 L72.7494,58.3739 Z"
         style="stroke-width: 0.2400; stroke: #000000; stroke-dasharray: none; stroke-linecap: round; stroke-linejoin: round; fill: none; "
         id="path11" />
    </g>
    <path
       d="  M62.2869,52.0964 L62.2869,60.4664 M60.1944,52.0964 L60.1944,60.4664 M58.1019,52.0964 L58.1019,60.4664 M56.0094,52.0964 L56.0094,60.4664 M53.9169,52.0964 L53.9169,60.4664 M62.2869,66.7439 L62.2869,75.1139 M60.1944,66.7439 L60.1944,75.1139 M58.1019,66.7439 L58.1019,75.1139 M56.0094,66.7439 L56.0094,75.1139 M53.9169,66.7439 L53.9169,75.1139 M62.2869,80.5544 L62.2869,88.9245 M60.1944,80.5544 L60.1944,88.9245 M58.1019,80.5544 L58.1019,88.9245 M56.0094,80.5544 L56.0094,88.9245 M53.9169,80.5544 L53.9169,88.9245 M87.3969,66.7439 L87.3969,75.1139 M85.3044,66.7439 L85.3044,75.1139 M83.2119,66.7439 L83.2119,75.1139 M81.1194,66.7439 L81.1194,75.1139 M79.0269,66.7439 L79.0269,75.1139 M87.3969,80.5544 L87.3969,88.9245 M85.3044,80.5544 L85.3044,88.9245 M83.2119,80.5544 L83.2119,88.9245 M81.1194,80.5544 L81.1194,88.9245 M79.0269,80.5544 L79.0269,88.9245"
       style="stroke-width: 0.2400; stroke: #000000; stroke-dasharray: none; stroke-linecap: round; stroke-linejoin: round; fill: none; "
       id="path12" />
    <path
       d="  M62.5858,81.1523 L62.5858,89.5223 M60.4933,81.1523 L60.4933,89.5223 M58.4008,81.1523 L58.4008,89.5223 M56.3083,81.1523 L56.3083,89.5223 M54.2158,81.1523 L54.2158,89.5223 M87.7457,81.1124 L87.7457,89.4825 M85.6532,81.1124 L85.6532,89.4825 M83.5607,81.1124 L83.5607,89.4825 M81.4682,81.1124 L81.4682,89.4825 M79.3757,81.1124 L79.3757,89.4825 M87.7457,67.3019 L87.7457,75.6719 M85.6532,67.3019 L85.6532,75.6719 M83.5607,67.3019 L83.5607,75.6719 M81.4682,67.3019 L81.4682,75.6719 M79.3757,67.3019 L79.3757,75.6719 M62.5858,67.3418 L62.5858,75.7118 M60.4933,67.3418 L60.4933,75.7118 M58.4008,67.3418 L58.4008,75.7118 M56.3083,67.3418 L56.3083,75.7118 M54.2158,67.3418 L54.2158,75.7118 M62.5858,52.6942 L62.5858,61.0643 M60.4933,52.6942 L60.4933,61.0643 M58.4008,52.6942 L58.4008,61.0643 M56.3083,52.6942 L56.3083,61.0643 M54.2158,52.6942 L54.2158,61.0643"
       style="stroke-width: 0.2400; stroke: #000000; stroke-dasharray: none; stroke-linecap: round; stroke-linejoin: round; fill: none; "
       id="path13" />
    <g
       id="Layer1081">
      <path
         d="  M86.3228,61.5650 L87.2993,61.5650 L87.2993,60.5885 L86.3228,60.5885 L86.3228,61.5650 Z M74.0921,60.8762 A0.6103,0.5493 0.0000 0,0 75.3127,60.8762 A0.6103,0.5493 0.0000 1,0 74.0921,60.8762 Z M77.3878,60.8762 A0.6103,0.5493 0.0000 0,0 78.6084,60.8762 A0.6103,0.5493 0.0000 1,0 77.3878,60.8762 Z M80.5614,60.8762 A0.6103,0.5493 0.0000 0,0 81.7820,60.8762 A0.6103,0.5493 0.0000 1,0 80.5614,60.8762 Z"
         style="stroke-width: 0.2400; stroke-linecap: butt; stroke-linejoin: miter; fill-rule: evenodd; fill: #00ff00; "
         id="path14" />
      <path
         d="  M86.3228,61.5650 L87.2993,61.5650 L87.2993,60.5885 L86.3228,60.5885 L86.3228,61.5650 Z M74.0921,60.8762 A0.6103,0.5493 0.0000 0,0 75.3127,60.8762 A0.6103,0.5493 0.0000 1,0 74.0921,60.8762 Z M77.3878,60.8762 A0.6103,0.5493 0.0000 0,0 78.6084,60.8762 A0.6103,0.5493 0.0000 1,0 77.3878,60.8762 Z M80.5614,60.8762 A0.6103,0.5493 0.0000 0,0 81.7820,60.8762 A0.6103,0.5493 0.0000 1,0 80.5614,60.8762 Z"
         style="stroke-width: 0.2400; stroke: #000000; stroke-dasharray: none; stroke-linecap: butt; stroke-linejoin: miter; fill: none; "
         id="path15" />
    </g>
    <path
       d="  M49.6063,92.1260 L49.6063,49.6063 L57.5787,41.6339 L100.0984,41.6339 L100.0984,84.1535 L92.1260,92.1260 L49.6063,92.1260 Z"
       style="stroke-width: 0.7200; stroke: #000000; stroke-dasharray: none; stroke-linecap: round; stroke-linejoin: round; fill: none; "
       id="path16" />
    <!--converted by libvisio2svg-->
  </g>
</svg>
