<?xml version="1.0" encoding="UTF-8" standalone="no"?>
<svg
   version="1.1"
   width="1.9685000000"
   height="1.9685000000"
   viewBox="0 0 141.7323 141.7323"
   id="svg35"
   sodipodi:docname="PDA.svg"
   inkscape:version="1.4 (e7c3feb1, 2024-10-09)"
   xmlns:inkscape="http://www.inkscape.org/namespaces/inkscape"
   xmlns:sodipodi="http://sodipodi.sourceforge.net/DTD/sodipodi-0.dtd"
   xmlns:xlink="http://www.w3.org/1999/xlink"
   xmlns="http://www.w3.org/2000/svg"
   xmlns:svg="http://www.w3.org/2000/svg">
  <defs
     id="defs35" />
  <sodipodi:namedview
     id="namedview35"
     pagecolor="#ffffff"
     bordercolor="#000000"
     borderopacity="0.25"
     inkscape:showpageshadow="2"
     inkscape:pageopacity="0.0"
     inkscape:pagecheckerboard="0"
     inkscape:deskcolor="#d1d1d1"
     inkscape:zoom="57.474575"
     inkscape:cx="5.4719848"
     inkscape:cy="-2.5750517"
     inkscape:window-width="2560"
     inkscape:window-height="1027"
     inkscape:window-x="0"
     inkscape:window-y="25"
     inkscape:window-maximized="1"
     inkscape:current-layer="svg35" />
  <title
     id="title1"><![CDATA[PDA]]></title>
  <g
     transform=" scale(1.000000) "
     id="g35">
    <path
       d="  M76.8898,80.7874 A3.2801,3.2801 0.0000 0,0 79.3701,78.8386 L79.3701,59.5276 L77.9850,60.9323 L77.9850,79.7118 A1.2792,1.2792 0.0000 0,1 76.8898,80.7874 Z"
       style="fill-rule: evenodd; fill: #666666; "
       id="path1" />
    <path
       d="  M63.7795,60.9323 L65.1646,59.5276 L79.3379,59.5276 L77.9528,60.9323 L63.7795,60.9323 Z"
       style="fill-rule: evenodd; fill: #c0c0c0; "
       id="path2" />
    <path
       d="  M77.9653,60.9449 L77.9653,79.3701 A1.2527,1.2527 0.0000 0,1 76.5480,80.7874 L65.2094,80.7874 A1.2527,1.2527 0.0000 0,1 63.7921,79.3701 L63.7921,60.9449 L65.2094,60.9449 L76.5480,60.9449 L77.9653,60.9449 Z"
       style="fill-rule: evenodd; fill: #9a9a9a; "
       id="path3" />
    <defs
       id="defs4">
      <linearGradient
         id="grad283">
        <stop
           offset="0%"
           stop-color="#75ffba"
           stop-opacity="1.0000"
           id="stop3" />
        <stop
           offset="100%"
           stop-color="#ffffff"
           stop-opacity="1.0000"
           id="stop4" />
      </linearGradient>
      <linearGradient
         xlink:href="#grad283"
         id="grad284"
         x1="0"
         y1="0"
         x2="0"
         y2="1"
         gradientTransform="rotate(135 .5 .5)"
         gradientUnits="objectBoundingBox" />
    </defs>
    <path
       d="  M65.9377,62.7039 L75.8590,62.7039 L75.8590,75.8142 L65.9377,75.8142 L65.9377,62.7039 Z"
       style="fill-rule: evenodd; fill: url(#grad284); "
       id="path4" />
    <defs
       id="defs6">
      <linearGradient
         id="grad285">
        <stop
           offset="0%"
           stop-color="#e6e6e6"
           stop-opacity="1.0000"
           id="stop5" />
        <stop
           offset="100%"
           stop-color="#9a9a9a"
           stop-opacity="1.0000"
           id="stop6" />
      </linearGradient>
      <linearGradient
         xlink:href="#grad285"
         id="grad286"
         x1="0"
         y1="0"
         x2="0"
         y2="1"
         gradientTransform="rotate(315 .5 .5)"
         gradientUnits="objectBoundingBox" />
    </defs>
    <path
       d="  M65.9377,75.8142 L65.5834,76.1685 A40.0394,40.0394 0.0000 0,0 76.2133,76.1685 L75.8590,75.8142 L65.9377,75.8142 Z"
       style="fill-rule: evenodd; fill: url(#grad286); "
       id="path6" />
    <defs
       id="defs8">
      <linearGradient
         id="grad287">
        <stop
           offset="0%"
           stop-color="#c0c0c0"
           stop-opacity="1.0000"
           id="stop7" />
        <stop
           offset="100%"
           stop-color="#666666"
           stop-opacity="1.0000"
           id="stop8" />
      </linearGradient>
      <linearGradient
         xlink:href="#grad287"
         id="grad288"
         x1="0"
         y1="0"
         x2="0"
         y2="1"
         gradientTransform="rotate(315 .5 .5)"
         gradientUnits="objectBoundingBox" />
    </defs>
    <path
       d="  M65.9055,62.7165 L65.5512,62.3622 L65.5834,76.1685 L65.9377,75.8142 L65.9055,62.7165 Z"
       style="fill-rule: evenodd; fill: url(#grad288); "
       id="path8" />
    <defs
       id="defs10">
      <linearGradient
         id="grad289">
        <stop
           offset="0%"
           stop-color="#e6e6e6"
           stop-opacity="1.0000"
           id="stop9" />
        <stop
           offset="100%"
           stop-color="#9a9a9a"
           stop-opacity="1.0000"
           id="stop10" />
      </linearGradient>
      <linearGradient
         xlink:href="#grad289"
         id="grad290"
         x1="0"
         y1="0"
         x2="0"
         y2="1"
         gradientTransform="rotate(315 .5 .5)"
         gradientUnits="objectBoundingBox" />
    </defs>
    <path
       d="  M75.8268,62.7165 L76.1811,62.3622 L76.2133,76.1685 L75.8268,75.8142 L75.8268,62.7165 Z"
       style="fill-rule: evenodd; fill: url(#grad290); "
       id="path10" />
    <g
       id="Layer1136">
      <defs
         id="defs12">
        <linearGradient
           id="grad291">
          <stop
             offset="0%"
             stop-color="#e6e6e6"
             stop-opacity="1.0000"
             id="stop11" />
          <stop
             offset="100%"
             stop-color="#9a9a9a"
             stop-opacity="1.0000"
             id="stop12" />
        </linearGradient>
      </defs>
      <path
         d="  M70.3669,79.7118 L71.4298,79.7118 L71.4298,77.5858 L70.3669,77.5858 L70.3669,79.7118 Z"
         style="stroke-width: 0.1200; stroke-linecap: round; stroke-linejoin: round; fill-rule: evenodd; fill: url(#grad291); "
         id="path12" />
      <path
         d="  M70.3669,79.7118 L71.4298,79.7118 L71.4298,77.5858 L70.3669,77.5858 L70.3669,79.7118 Z"
         style="stroke-width: 0.1200; stroke: #000000; stroke-dasharray: none; stroke-linecap: round; stroke-linejoin: round; fill: none; "
         id="path13" />
    </g>
    <defs
       id="defs14">
      <linearGradient
         id="grad292">
        <stop
           offset="0%"
           stop-color="#e6e6e6"
           stop-opacity="1.0000"
           id="stop13" />
        <stop
           offset="100%"
           stop-color="#9a9a9a"
           stop-opacity="1.0000"
           id="stop14" />
      </linearGradient>
    </defs>
    <path
       d="  M70.6004,79.5251 L71.1742,79.5251 L71.1742,77.7534 L70.6004,77.7534 L70.6004,79.5251 Z"
       style="fill-rule: evenodd; fill: url(#grad292); "
       id="path14" />
    <path
       d="  M70.7111,79.0157 L71.0655,79.0157 L70.8883,79.3701 L70.7111,79.0157 Z"
       style="fill-rule: evenodd; fill: #00ff00; "
       id="path15" />
    <path
       d="  M70.7333,77.9085 L71.0876,77.9085 L70.9104,78.2628 L70.7333,77.9085 Z"
       style="fill-rule: evenodd; fill: #00ff00; "
       id="path16" />
    <path
       d="  M64.2224,76.9476 L77.5541,76.9476 L77.5541,77.1027 L64.2224,77.1027 L64.2224,76.9476 Z"
       style="fill-rule: evenodd; fill: #666666; "
       id="path17" />
    <path
       d="  M64.2224,77.0891 L77.5541,77.0891 L77.5541,77.2441 L64.2224,77.2441 L64.2224,77.0891 Z"
       style="fill-rule: evenodd; fill: #c0c0c0; "
       id="path18" />
    <g
       id="Layer1137">
      <defs
         id="defs19">
        <radialGradient
           id="grad293"
           cx="100.0000%"
           cy="100.0000%"
           r="100.0000%">
          <stop
             offset="0%"
             stop-color="#666666"
             stop-opacity="1.0000"
             id="stop18" />
          <stop
             offset="100%"
             stop-color="#c0c0c0"
             stop-opacity="1.0000"
             id="stop19" />
        </radialGradient>
      </defs>
      <path
         d="  M65.5834,78.2623 A0.5315,0.5315 0.0000 0,1 66.6464,78.2623 A0.5315,0.5315 0.0000 1,1 65.5834,78.2623 Z"
         style="stroke-width: 0.1200; stroke-linecap: round; stroke-linejoin: round; fill-rule: evenodd; fill: url(#grad293); "
         id="path19" />
      <path
         d="  M65.5834,78.2623 A0.5315,0.5315 0.0000 0,1 66.6464,78.2623 A0.5315,0.5315 0.0000 1,1 65.5834,78.2623 Z"
         style="stroke-width: 0.1200; stroke: #000000; stroke-dasharray: none; stroke-linecap: round; stroke-linejoin: round; fill: none; "
         id="path20" />
    </g>
    <g
       id="Layer1138">
      <defs
         id="defs21">
        <radialGradient
           id="grad294"
           cx="100.0000%"
           cy="100.0000%"
           r="100.0000%">
          <stop
             offset="0%"
             stop-color="#666666"
             stop-opacity="1.0000"
             id="stop20" />
          <stop
             offset="100%"
             stop-color="#c0c0c0"
             stop-opacity="1.0000"
             id="stop21" />
        </radialGradient>
      </defs>
      <path
         d="  M67.8704,78.2623 A0.5315,0.5315 0.0000 1,1 68.9334,78.2623 A0.5315,0.5315 0.0000 1,1 67.8704,78.2623 Z"
         style="stroke-width: 0.1200; stroke-linecap: round; stroke-linejoin: round; fill-rule: evenodd; fill: url(#grad294); "
         id="path21" />
      <path
         d="  M67.8704,78.2623 A0.5315,0.5315 0.0000 1,1 68.9334,78.2623 A0.5315,0.5315 0.0000 1,1 67.8704,78.2623 Z"
         style="stroke-width: 0.1200; stroke: #000000; stroke-dasharray: none; stroke-linecap: round; stroke-linejoin: round; fill: none; "
         id="path22" />
    </g>
    <g
       id="Layer1139">
      <defs
         id="defs23">
        <radialGradient
           id="grad295"
           cx="100.0000%"
           cy="100.0000%"
           r="100.0000%">
          <stop
             offset="0%"
             stop-color="#666666"
             stop-opacity="1.0000"
             id="stop22" />
          <stop
             offset="100%"
             stop-color="#c0c0c0"
             stop-opacity="1.0000"
             id="stop23" />
        </radialGradient>
      </defs>
      <path
         d="  M72.7344,78.2623 A0.5315,0.5315 0.0000 0,1 73.7974,78.2623 A0.5315,0.5315 0.0000 1,1 72.7344,78.2623 Z"
         style="stroke-width: 0.1200; stroke-linecap: round; stroke-linejoin: round; fill-rule: evenodd; fill: url(#grad295); "
         id="path23" />
      <path
         d="  M72.7344,78.2623 A0.5315,0.5315 0.0000 0,1 73.7974,78.2623 A0.5315,0.5315 0.0000 1,1 72.7344,78.2623 Z"
         style="stroke-width: 0.1200; stroke: #000000; stroke-dasharray: none; stroke-linecap: round; stroke-linejoin: round; fill: none; "
         id="path24" />
    </g>
    <g
       id="Layer1140">
      <defs
         id="defs25">
        <radialGradient
           id="grad296"
           cx="100.0000%"
           cy="100.0000%"
           r="100.0000%">
          <stop
             offset="0%"
             stop-color="#666666"
             stop-opacity="1.0000"
             id="stop24" />
          <stop
             offset="100%"
             stop-color="#c0c0c0"
             stop-opacity="1.0000"
             id="stop25" />
        </radialGradient>
      </defs>
      <path
         d="  M75.0215,78.2623 A0.5315,0.5315 0.0000 1,1 76.0845,78.2623 A0.5315,0.5315 0.0000 1,1 75.0215,78.2623 Z"
         style="stroke-width: 0.1200; stroke-linecap: round; stroke-linejoin: round; fill-rule: evenodd; fill: url(#grad296); "
         id="path25" />
      <path
         d="  M75.0215,78.2623 A0.5315,0.5315 0.0000 1,1 76.0845,78.2623 A0.5315,0.5315 0.0000 1,1 75.0215,78.2623 Z"
         style="stroke-width: 0.1200; stroke: #000000; stroke-dasharray: none; stroke-linecap: round; stroke-linejoin: round; fill: none; "
         id="path26" />
    </g>
    <path
       d="  M65.9377,79.7118 L66.2921,79.7118"
       style="stroke-width: 0.7200; stroke: #000000; stroke-dasharray: none; stroke-linecap: round; stroke-linejoin: round; fill: none; "
       id="path27" />
    <path
       d="  M68.2409,79.3575 L68.5952,79.3575"
       style="stroke-width: 0.7200; stroke: #000000; stroke-dasharray: none; stroke-linecap: round; stroke-linejoin: round; fill: none; "
       id="path28" />
    <path
       d="  M68.2409,79.7118 L68.5952,79.7118"
       style="stroke-width: 0.7200; stroke: #000000; stroke-dasharray: none; stroke-linecap: round; stroke-linejoin: round; fill: none; "
       id="path29" />
    <path
       d="  M73.0243,79.7118 L73.3787,79.7118"
       style="stroke-width: 0.7200; stroke: #000000; stroke-dasharray: none; stroke-linecap: round; stroke-linejoin: round; fill: none; "
       id="path30" />
    <path
       d="  M75.5047,79.7118 L75.8590,79.7118"
       style="stroke-width: 0.7200; stroke: #000000; stroke-dasharray: none; stroke-linecap: round; stroke-linejoin: round; fill: none; "
       id="path31" />
    <path
       d="  M73.3787,79.3575 L73.7330,79.3575"
       style="stroke-width: 0.7200; stroke: #000000; stroke-dasharray: none; stroke-linecap: round; stroke-linejoin: round; fill: none; "
       id="path32" />
    <path
       d="  M76.5676,76.7126 L77.2763,76.7126 L77.2763,76.3583 L76.5676,76.3583 L76.5676,76.7126 Z"
       style="fill-rule: evenodd; fill: #00ff00; "
       id="path33" />
    <defs
       id="defs34">
      <linearGradient
         id="grad297">
        <stop
           offset="0%"
           stop-color="#c0c0c0"
           stop-opacity="1.0000"
           id="stop33" />
        <stop
           offset="100%"
           stop-color="#666666"
           stop-opacity="1.0000"
           id="stop34" />
      </linearGradient>
      <linearGradient
         xlink:href="#grad297"
         id="grad298"
         x1="0"
         y1="0"
         x2="0"
         y2="1"
         gradientTransform="rotate(225 .5 .5)"
         gradientUnits="objectBoundingBox" />
    </defs>
    <path
       d="  M65.9055,62.0079 L65.5512,62.3622 A40.0394,40.0394 0.0000 0,0 76.1811,62.3622 L75.8268,62.0079 L65.9055,62.0079 Z"
       style="fill-rule: evenodd; fill: url(#grad298); "
       id="path34" />
    <path
       d="  M65.1969,59.5276 L79.3701,59.5276 L79.3701,79.0157 A2.7889,2.7889 0.0000 0,1 77.2441,80.7874 L64.4882,80.7874 A1.1205,1.1205 0.0000 0,1 63.7795,79.3701 L63.7795,60.9449 L65.1969,59.5276 Z"
       style="stroke-width: 0.7200; stroke: #000000; stroke-dasharray: none; stroke-linecap: round; stroke-linejoin: round; fill: none; "
       id="path35" />
    <!--converted by libvisio2svg-->
  </g>
</svg>
