<?xml version="1.0" encoding="UTF-8" standalone="no"?>
<svg
   version="1.1"
   width="1.9685000000"
   height="1.9685000000"
   viewBox="0 0 141.7323 141.7323"
   id="svg25"
   sodipodi:docname="Printer.svg"
   inkscape:version="1.4 (e7c3feb1, 2024-10-09)"
   xmlns:inkscape="http://www.inkscape.org/namespaces/inkscape"
   xmlns:sodipodi="http://sodipodi.sourceforge.net/DTD/sodipodi-0.dtd"
   xmlns="http://www.w3.org/2000/svg"
   xmlns:svg="http://www.w3.org/2000/svg">
  <defs
     id="defs25" />
  <sodipodi:namedview
     id="namedview25"
     pagecolor="#ffffff"
     bordercolor="#000000"
     borderopacity="0.25"
     inkscape:showpageshadow="2"
     inkscape:pageopacity="0.0"
     inkscape:pagecheckerboard="0"
     inkscape:deskcolor="#d1d1d1"
     inkscape:zoom="49.120238"
     inkscape:cx="5.9954921"
     inkscape:cy="-0.24429849"
     inkscape:window-width="2560"
     inkscape:window-height="1027"
     inkscape:window-x="0"
     inkscape:window-y="25"
     inkscape:window-maximized="1"
     inkscape:current-layer="svg25" />
  <title
     id="title1"><![CDATA[Printer]]></title>
  <g
     transform=" scale(1.000000) "
     id="g25">
    <path
       d="  M90.7972,81.4961 L90.7972,78.8386 L50.9350,78.8386 L50.9350,81.4961 L90.7972,81.4961 Z M90.7972,81.4961 L99.4341,72.8593 L99.4341,71.5305 L92.1260,78.8386 L90.7972,78.8386 L90.7972,81.4961 Z M99.4341,71.5305 L100.0984,70.8661 L100.0984,53.5925 L93.4547,60.2362 L92.1260,65.5512 L92.1260,78.8386 L99.4341,71.5305 Z"
       style="fill-rule: evenodd; fill: #9a9a9a; "
       id="path1" />
    <path
       d="  M50.9350,60.2362 L93.4547,60.2362 L100.0984,53.5925 L57.5787,53.5925 L50.9350,60.2362 Z"
       style="fill-rule: evenodd; fill: #e6e6e6; "
       id="path2" />
    <g
       id="Layer1040">
      <path
         d="  M92.1260,65.5512 L93.4547,60.2362 L50.9350,60.2362 L49.6063,65.5512 L92.1260,65.5512 Z M49.6063,78.8386 L92.1260,78.8386 L92.1260,65.5512 L49.6063,65.5512 L49.6063,78.8386 Z"
         style="stroke-width: 0.2400; stroke-linecap: round; stroke-linejoin: round; fill-rule: evenodd; fill: #c0c0c0; "
         id="path3" />
      <path
         d="  M92.1260,65.5512 L93.4547,60.2362 L50.9350,60.2362 L49.6063,65.5512 L92.1260,65.5512 Z M49.6063,78.8386 L92.1260,78.8386 L92.1260,65.5512 L49.6063,65.5512 L49.6063,78.8386 Z"
         style="stroke-width: 0.2400; stroke: #000000; stroke-dasharray: none; stroke-linecap: round; stroke-linejoin: round; fill: none; "
         id="path4" />
    </g>
    <g
       id="Layer1041">
      <path
         d="  M62.8937,55.5856 L60.2362,58.2431 L84.1535,58.2431 L86.8110,55.5856 L62.8937,55.5856 Z"
         style="stroke-width: 0.2400; stroke-linecap: round; stroke-linejoin: round; fill-rule: evenodd; fill: #c0c0c0; "
         id="path5" />
      <path
         d="  M62.8937,55.5856 L60.2362,58.2431 L84.1535,58.2431 L86.8110,55.5856 L62.8937,55.5856 Z"
         style="stroke-width: 0.2400; stroke: #000000; stroke-dasharray: none; stroke-linecap: round; stroke-linejoin: round; fill: none; "
         id="path6" />
    </g>
    <path
       d="  M95.4478,64.8868 L98.7697,61.5650 M95.4478,63.5581 L98.7697,60.2362 M95.4478,62.2293 L98.7697,58.9075 M95.4478,60.9006 L98.7697,57.5787"
       style="stroke-width: 0.2400; stroke: #000000; stroke-dasharray: none; stroke-linecap: round; stroke-linejoin: round; fill: none; "
       id="path7" />
    <path
       d="  M50.9350,81.4961 L50.9350,78.8386 L49.6063,78.8386 L49.6063,65.5512 L50.9350,60.2362 L57.5787,53.5925 L100.0984,53.5925 L100.0984,70.8661 L99.4341,71.5305 L99.4341,72.8593 L90.7972,81.4961 L50.9350,81.4961 Z"
       style="stroke-width: 0.7200; stroke: #000000; stroke-dasharray: none; stroke-linecap: round; stroke-linejoin: round; fill: none; "
       id="path8" />
    <g
       id="Layer1042">
      <defs
         id="defs9">
        <radialGradient
           id="grad81"
           cx="100.0000%"
           cy="100.0000%"
           r="100.0000%">
          <stop
             offset="0%"
             stop-color="#e6e6e6"
             stop-opacity="1.0000"
             id="stop8" />
          <stop
             offset="100%"
             stop-color="#ffffff"
             stop-opacity="1.0000"
             id="stop9" />
        </radialGradient>
      </defs>
      <path
         d="  M53.3277,43.6270 L73.6128,43.6270 A12.5047,12.5047 0.0000 0,0 84.1535,57.8266 L63.8684,57.8266 A12.5047,12.5047 0.0000 0,1 53.3277,43.6270 Z"
         style="stroke-width: 0.2400; stroke-linecap: round; stroke-linejoin: round; fill-rule: evenodd; fill: url(#grad81); "
         id="path9" />
      <path
         d="  M53.3277,43.6270 L73.6128,43.6270 A12.5047,12.5047 0.0000 0,0 84.1535,57.8266 L63.8684,57.8266 A12.5047,12.5047 0.0000 0,1 53.3277,43.6270 Z"
         style="stroke-width: 0.2400; stroke: #000000; stroke-dasharray: none; stroke-linecap: round; stroke-linejoin: round; fill: none; "
         id="path10" />
    </g>
    <path
       d="  M66.2457,52.4699 A3.2843,3.2843 0.0000 0,0 66.2531,52.2487 A3.2843,3.2843 0.0000 0,0 64.6110,49.4045 A3.2843,3.2843 0.0000 0,0 62.9689,52.2487 A3.2843,3.2843 0.0000 0,0 62.9763,52.4699 A3.2843,3.2843 0.0000 0,0 66.2457,52.4699 Z"
       style="fill-rule: evenodd; fill: #ffffff; "
       id="path11" />
    <path
       d="  M66.2457,52.4699 A3.2843,3.2843 0.0000 0,1 62.9763,52.4699 A3.2843,3.2843 0.0000 0,0 64.6110,55.0930 A3.2843,3.2843 0.0000 0,0 66.2457,52.4699 Z"
       style="fill-rule: evenodd; fill: #ff8000; "
       id="path12" />
    <path
       d="  M61.3342,49.4002 A3.2843,3.2843 0.0000 0,0 59.6846,52.2487 A3.2843,3.2843 0.0000 0,0 64.6110,55.0930 A3.2843,3.2843 0.0000 0,1 62.9763,52.4699 A3.2843,3.2843 0.0000 0,1 61.3267,49.6213 A3.2843,3.2843 0.0000 0,1 61.3342,49.4002 Z"
       style="fill-rule: evenodd; fill: #ffff00; "
       id="path13" />
    <path
       d="  M61.3342,49.4002 A3.2843,3.2843 0.0000 0,0 61.3267,49.6213 A3.2843,3.2843 0.0000 0,0 62.9763,52.4699 A3.2843,3.2843 0.0000 0,1 62.9689,52.2487 A3.2843,3.2843 0.0000 0,1 64.6110,49.4045 A3.2843,3.2843 0.0000 0,0 61.3342,49.4002 Z"
       style="fill-rule: evenodd; fill: #00ff00; "
       id="path14" />
    <path
       d="  M67.8878,49.4002 A3.2843,3.2843 0.0000 0,0 64.6110,49.4045 A3.2843,3.2843 0.0000 0,1 66.2531,52.2487 A3.2843,3.2843 0.0000 0,1 66.2457,52.4699 A3.2843,3.2843 0.0000 0,0 67.8953,49.6213 A3.2843,3.2843 0.0000 0,0 67.8878,49.4002 Z"
       style="fill-rule: evenodd; fill: #ff00ff; "
       id="path15" />
    <path
       d="  M67.8878,49.4002 A3.2843,3.2843 0.0000 0,0 61.3342,49.4002 A3.2843,3.2843 0.0000 0,1 64.6110,49.4045 A3.2843,3.2843 0.0000 0,1 67.8878,49.4002 Z"
       style="fill-rule: evenodd; fill: #8a8aff; "
       id="path16" />
    <path
       d="  M67.8878,49.4002 A3.2843,3.2843 0.0000 0,1 67.8953,49.6213 A3.2843,3.2843 0.0000 0,1 66.2457,52.4699 A3.2843,3.2843 0.0000 0,1 64.6110,55.0930 A3.2843,3.2843 0.0000 0,0 69.5374,52.2487 A3.2843,3.2843 0.0000 0,0 67.8878,49.4002 Z"
       style="fill-rule: evenodd; fill: #ff0000; "
       id="path17" />
    <path
       d="  M58.9075,64.2224 L59.5719,61.5650 L52.2638,61.5650 L51.5994,64.2224 L58.9075,64.2224 Z M90.6312,64.2224 L90.7972,63.5581 L88.9702,63.5581 L88.8041,64.2224 L90.6312,64.2224 Z M90.9633,63.2259 L91.1294,62.5615 L89.3024,62.5615 L89.1363,63.2259 L90.9633,63.2259 Z M91.2955,62.2293 L91.4616,61.5650 L89.6346,61.5650 L89.4685,62.2293 L91.2955,62.2293 Z"
       style="fill-rule: evenodd; fill: #00ff00; "
       id="path18" />
    <g
       id="Layer1043">
      <path
         d="  M78.8386,72.8593 L78.8386,76.1811 L83.4892,71.5305 L83.4892,68.2087 L78.8386,72.8593 Z"
         style="stroke-width: 0.1200; stroke-linecap: round; stroke-linejoin: round; fill-rule: evenodd; fill: #9a9a9a; "
         id="path19" />
      <path
         d="  M78.8386,72.8593 L78.8386,76.1811 L83.4892,71.5305 L83.4892,68.2087 L78.8386,72.8593 Z"
         style="stroke-width: 0.1200; stroke: #000000; stroke-dasharray: none; stroke-linecap: round; stroke-linejoin: round; fill: none; "
         id="path20" />
    </g>
    <g
       id="Layer1044">
      <path
         d="  M53.5925,72.8593 L78.8386,72.8593 L83.4892,68.2087 L58.2431,68.2087 L53.5925,72.8593 Z"
         style="stroke-width: 0.1200; stroke-linecap: round; stroke-linejoin: round; fill-rule: evenodd; fill: #e6e6e6; "
         id="path21" />
      <path
         d="  M53.5925,72.8593 L78.8386,72.8593 L83.4892,68.2087 L58.2431,68.2087 L53.5925,72.8593 Z"
         style="stroke-width: 0.1200; stroke: #000000; stroke-dasharray: none; stroke-linecap: round; stroke-linejoin: round; fill: none; "
         id="path22" />
    </g>
    <g
       id="Layer1045">
      <path
         d="  M53.5925,76.1811 L78.8386,76.1811 L78.8386,72.8593 L53.5925,72.8593 L53.5925,76.1811 Z"
         style="stroke-width: 0.1200; stroke-linecap: round; stroke-linejoin: round; fill-rule: evenodd; fill: #c0c0c0; "
         id="path23" />
      <path
         d="  M53.5925,76.1811 L78.8386,76.1811 L78.8386,72.8593 L53.5925,72.8593 L53.5925,76.1811 Z"
         style="stroke-width: 0.1200; stroke: #000000; stroke-dasharray: none; stroke-linecap: round; stroke-linejoin: round; fill: none; "
         id="path24" />
    </g>
    <path
       d="  M53.5925,74.5202 L78.8386,74.5202 L83.4892,69.8696"
       style="stroke-width: 0.1200; stroke: #000000; stroke-dasharray: none; stroke-linecap: round; stroke-linejoin: round; fill: none; "
       id="path25" />
    <!--converted by libvisio2svg-->
  </g>
</svg>
