<svg xmlns="http://www.w3.org/2000/svg" xmlns:xlink="http://www.w3.org/1999/xlink" version="1.1" width="1.9685000000" height="1.9685000000" viewBox="0 0 141.7323 141.7323">
  <title><![CDATA[Ring network]]></title>
  <g transform=" scale(1.000000) ">
    <path xmlns="http://www.w3.org/2000/svg" d="  M42.5197,77.9528 L70.8661,70.8661 M70.8661,80.7874 L70.8661,70.8661 M99.2126,77.9528 L70.8661,70.8661 M113.3858,70.8661 L70.8661,70.8661 M99.2126,63.7795 L70.8661,70.8661 M70.8661,60.2362 L70.8661,70.8661 M42.5197,63.7795 L70.8661,70.8661 M28.3465,70.8661 L70.8661,70.8661" style="stroke-width: 0.2400; stroke: #000000; stroke-dasharray: none; stroke-linecap: round; stroke-linejoin: round; fill: none; "/>
    <defs xmlns="http://www.w3.org/2000/svg" xmlns:xlink="http://www.w3.org/1999/xlink">
      <linearGradient id="grad82">
        <stop offset="0%" stop-color="#9a9a9a" stop-opacity="1.0000"/>
        <stop offset="100%" stop-color="#e6e6e6" stop-opacity="1.0000"/>
      </linearGradient>
      <linearGradient xlink:href="#grad82" id="grad83" x1="0" y1="0" x2="0" y2="1" gradientTransform="rotate(90 .5 .5)" gradientUnits="objectBoundingBox">
  </linearGradient>
    </defs>
    <path xmlns="http://www.w3.org/2000/svg" d="  M127.5591,77.9528 L127.5591,70.8661 A56.6929,14.1732 0.0000 1,1 14.1732,70.8661 L14.1732,77.9528 A56.6929,14.1732 0.0000 0,0 127.5591,77.9528 Z" style="fill-rule: evenodd; fill: url(#grad83); "/>
    <path xmlns="http://www.w3.org/2000/svg" d="  M14.1732,70.8661 A56.6929,14.1732 0.0000 0,1 127.5591,70.8661 A56.6929,14.1732 0.0000 1,1 14.1732,70.8661 Z" style="fill-rule: evenodd; fill: #e6e6e6; "/>
    <path xmlns="http://www.w3.org/2000/svg" d="  M14.1732,70.8661 L14.1732,77.9528 A56.6929,14.1732 0.0000 0,0 127.5591,77.9528 L127.5591,70.8661 A56.6929,14.1732 0.0000 0,0 14.1732,70.8661 Z" style="stroke-width: 0.7200; stroke: #000000; stroke-dasharray: none; stroke-linecap: round; stroke-linejoin: round; fill: none; "/>
    <!--converted by libvisio2svg-->
  </g>
</svg>
