<svg xmlns="http://www.w3.org/2000/svg" xmlns:xlink="http://www.w3.org/1999/xlink" version="1.1" width="3.9370000000" height="3.9370000000" viewBox="0 0 283.4646 283.4646">
  <title><![CDATA[Room]]></title>
  <g transform=" scale(1.000000) ">
    <g xmlns="http://www.w3.org/2000/svg" id="Layer1130">
      <path d="  M63.7795,99.2126 L75.1181,99.2126 L75.1181,172.9134 L219.6850,172.9134 L219.6850,184.2520 L63.7795,184.2520 L63.7795,99.2126 Z" style="stroke-width: 0.7200; stroke-linecap: round; stroke-linejoin: round; fill-rule: evenodd; fill: #c0c0c0; "/>
      <path d="  M63.7795,99.2126 L75.1181,99.2126 L75.1181,172.9134 L219.6850,172.9134 L219.6850,184.2520 L63.7795,184.2520 L63.7795,99.2126 Z" style="stroke-width: 0.7200; stroke: #000000; stroke-dasharray: none; stroke-linecap: round; stroke-linejoin: round; fill: none; "/>
    </g>
    <g xmlns="http://www.w3.org/2000/svg" id="Layer1131">
      <path d="  M219.6850,172.9134 L262.2047,130.3937 L117.6378,130.3937 L75.1181,172.9134 L219.6850,172.9134 Z" style="stroke-width: 0.7200; stroke-linecap: round; stroke-linejoin: round; fill-rule: evenodd; fill: #e6e6e6; "/>
      <path d="  M219.6850,172.9134 L262.2047,130.3937 L117.6378,130.3937 L75.1181,172.9134 L219.6850,172.9134 Z" style="stroke-width: 0.7200; stroke: #000000; stroke-dasharray: none; stroke-linecap: round; stroke-linejoin: round; fill: none; "/>
    </g>
    <g xmlns="http://www.w3.org/2000/svg" id="Layer1132">
      <path d="  M117.6378,130.3937 L117.6378,56.6929 L75.1181,99.2126 L75.1181,172.9134 L117.6378,130.3937 Z" style="stroke-width: 0.7200; stroke-linecap: round; stroke-linejoin: round; fill-rule: evenodd; fill: #9a9a9a; "/>
      <path d="  M117.6378,130.3937 L117.6378,56.6929 L75.1181,99.2126 L75.1181,172.9134 L117.6378,130.3937 Z" style="stroke-width: 0.7200; stroke: #000000; stroke-dasharray: none; stroke-linecap: round; stroke-linejoin: round; fill: none; "/>
    </g>
    <g xmlns="http://www.w3.org/2000/svg" id="Layer1133">
      <path d="  M117.6378,56.6929 L262.2047,56.6929 L262.2047,130.3937 L117.6378,130.3937 L117.6378,56.6929 Z" style="stroke-width: 0.7200; stroke-linecap: round; stroke-linejoin: round; fill-rule: evenodd; fill: #c0c0c0; "/>
      <path d="  M117.6378,56.6929 L262.2047,56.6929 L262.2047,130.3937 L117.6378,130.3937 L117.6378,56.6929 Z" style="stroke-width: 0.7200; stroke: #000000; stroke-dasharray: none; stroke-linecap: round; stroke-linejoin: round; fill: none; "/>
    </g>
    <g xmlns="http://www.w3.org/2000/svg" id="Layer1134">
      <path d="  M63.7795,99.2126 L111.9685,51.0236 L267.8740,51.0236 L262.2047,56.6929 L117.6378,56.6929 L75.1181,99.2126 L63.7795,99.2126 Z" style="stroke-width: 0.7200; stroke-linecap: round; stroke-linejoin: round; fill-rule: evenodd; fill: #e6e6e6; "/>
      <path d="  M63.7795,99.2126 L111.9685,51.0236 L267.8740,51.0236 L262.2047,56.6929 L117.6378,56.6929 L75.1181,99.2126 L63.7795,99.2126 Z" style="stroke-width: 0.7200; stroke: #000000; stroke-dasharray: none; stroke-linecap: round; stroke-linejoin: round; fill: none; "/>
    </g>
    <g xmlns="http://www.w3.org/2000/svg" id="Layer1135">
      <path d="  M267.8740,51.0236 L267.8740,136.0630 L219.6850,184.2520 L219.6850,172.9134 L262.2047,130.3937 L262.2047,56.6929 L267.8740,51.0236 Z" style="stroke-width: 0.7200; stroke-linecap: round; stroke-linejoin: round; fill-rule: evenodd; fill: #9a9a9a; "/>
      <path d="  M267.8740,51.0236 L267.8740,136.0630 L219.6850,184.2520 L219.6850,172.9134 L262.2047,130.3937 L262.2047,56.6929 L267.8740,51.0236 Z" style="stroke-width: 0.7200; stroke: #000000; stroke-dasharray: none; stroke-linecap: round; stroke-linejoin: round; fill: none; "/>
    </g>
    <!--converted by libvisio2svg-->
  </g>
</svg>
