<?xml version="1.0" encoding="UTF-8" standalone="no"?>
<svg
   version="1.1"
   width="1.9685000000"
   height="1.9685000000"
   viewBox="0 0 141.7323 141.7323"
   id="svg17"
   sodipodi:docname="Router.svg"
   inkscape:version="1.4 (e7c3feb1, 2024-10-09)"
   xmlns:inkscape="http://www.inkscape.org/namespaces/inkscape"
   xmlns:sodipodi="http://sodipodi.sourceforge.net/DTD/sodipodi-0.dtd"
   xmlns:xlink="http://www.w3.org/1999/xlink"
   xmlns="http://www.w3.org/2000/svg"
   xmlns:svg="http://www.w3.org/2000/svg">
  <defs
     id="defs17" />
  <sodipodi:namedview
     id="namedview17"
     pagecolor="#ffffff"
     bordercolor="#000000"
     borderopacity="0.25"
     inkscape:showpageshadow="2"
     inkscape:pageopacity="0.0"
     inkscape:pagecheckerboard="0"
     inkscape:deskcolor="#d1d1d1"
     inkscape:zoom="35.992845"
     inkscape:cx="-4.5703528"
     inkscape:cy="0.41674949"
     inkscape:window-width="2560"
     inkscape:window-height="1027"
     inkscape:window-x="0"
     inkscape:window-y="25"
     inkscape:window-maximized="1"
     inkscape:current-layer="g17" />
  <title
     id="title1"><![CDATA[Router]]></title>
  <g
     transform=" scale(1.000000) "
     id="g17">
    <path
       d="  M48.8976,75.1181 L48.8976,76.5354 L92.1260,76.5354 L92.1260,75.1181 L48.8976,75.1181 Z M92.1260,76.5354 L93.5433,75.1181 L92.1260,75.1181 L92.1260,76.5354 Z M93.5433,65.1969 L99.2126,59.5276 L99.2126,69.4488 L93.5433,75.1181 L93.5433,65.1969 Z"
       style="fill-rule: evenodd; fill: #9a9a9a; "
       id="path1" />
    <path
       d="  M99.2126,59.5276 L53.8583,59.5276 L48.1890,65.1969 L48.1890,68.0315 A362.8353,362.8353 0.0000 0,0 93.5433,68.0315 L93.5433,65.1969 L99.2126,59.5276 Z"
       style="fill-rule: evenodd; fill: #e6e6e6; "
       id="path2" />
    <path
       d="  M93.5433,70.8661 L99.2126,65.1969 L99.2126,64.4882 L93.5433,70.1575 L93.5433,70.8661 Z"
       style="fill-rule: evenodd; fill: #666666; "
       id="path3" />
    <path
       d="  M93.5433,71.2205 L99.2126,65.5512 L99.2126,64.8425 L93.5433,70.5118 L93.5433,71.2205 Z"
       style="fill-rule: evenodd; fill: #c0c0c0; "
       id="path4" />
    <path
       d="  M48.8976,76.5354 L48.8976,75.1181 L48.1890,75.1181 L48.1890,65.1969 L53.8583,59.5276 L99.2126,59.5276 L99.2126,69.4488 L92.1260,76.5354 L48.8976,76.5354 Z"
       style="stroke-width: 0.7200; stroke: #000000; stroke-dasharray: none; stroke-linecap: round; stroke-linejoin: round; fill: none; "
       id="path5" />
    <g
       id="Layer1052">
      <defs
         id="defs7">
        <linearGradient
           id="grad167">
          <stop
             offset="0%"
             stop-color="#9a9a9a"
             stop-opacity="1.0000"
             id="stop5" />
          <stop
             offset="50%"
             stop-color="#e6e6e6"
             stop-opacity="1.0000"
             id="stop6" />
          <stop
             offset="100%"
             stop-color="#9a9a9a"
             stop-opacity="1.0000"
             id="stop7" />
        </linearGradient>
      </defs>
      <path
         d="  M70.8661,67.3228 C62.3622,67.3228 61.1034,66.2722 58.8544,65.7207 C57.3011,65.3397 55.2756,65.1969 52.4409,65.1969 L48.1890,65.1969 L48.1890,75.1181 L52.4409,75.1181 C55.2756,75.1181 57.3011,75.2610 58.8544,75.6419 C61.1034,76.1935 62.3622,77.2441 70.8661,77.2441 C79.3701,76.5354 80.6289,76.1168 82.8779,75.6975 C84.4312,75.4080 86.4567,75.1181 89.2913,75.1181 L93.5433,75.1181 L93.5433,65.1969 L89.2913,65.1969 C86.4567,65.1969 84.4312,65.3391 82.8779,65.7199 C80.6289,66.2713 79.3701,67.3228 70.8661,67.3228 Z"
         style="stroke-width: 0.2400; stroke-linecap: round; stroke-linejoin: round; fill-rule: evenodd; fill: url(#grad167); "
         id="path7" />
      <path
         d="  M70.8661,67.3228 C62.3622,67.3228 61.1034,66.2722 58.8544,65.7207 C57.3011,65.3397 55.2756,65.1969 52.4409,65.1969 L48.1890,65.1969 L48.1890,75.1181 L52.4409,75.1181 C55.2756,75.1181 57.3011,75.2610 58.8544,75.6419 C61.1034,76.1935 62.3622,77.2441 70.8661,77.2441 C79.3701,76.5354 80.6289,76.1168 82.8779,75.6975 C84.4312,75.4080 86.4567,75.1181 89.2913,75.1181 L93.5433,75.1181 L93.5433,65.1969 L89.2913,65.1969 C86.4567,65.1969 84.4312,65.3391 82.8779,65.7199 C80.6289,66.2713 79.3701,67.3228 70.8661,67.3228 Z"
         style="stroke-width: 0.2400; stroke: #000000; stroke-dasharray: none; stroke-linecap: round; stroke-linejoin: round; fill: none; "
         id="path8" />
    </g>
    <path
       d="  M71.2711,67.3279 L70.3600,67.6924 L70.3600,70.4258"
       style="stroke-width: 0.7200; stroke: #000000; stroke-dasharray: none; stroke-linecap: butt; stroke-linejoin: miter; fill: none; "
       id="path9" />
    <path
       d="  M67.6265,67.3279 L66.7154,67.6924 L66.7154,70.4258"
       style="stroke-width: 0.7200; stroke: #000000; stroke-dasharray: none; stroke-linecap: butt; stroke-linejoin: miter; fill: none; "
       id="path10" />
    <path
       d="  M63.9820,67.0546 L63.0709,67.4190 L63.0709,70.1524"
       style="stroke-width: 0.7200; stroke: #000000; stroke-dasharray: none; stroke-linecap: butt; stroke-linejoin: miter; fill: none; "
       id="path11" />
    <path
       d="  M74.9156,67.3279 L74.0045,67.6924 L74.0045,70.4258"
       style="stroke-width: 0.7200; stroke: #000000; stroke-dasharray: none; stroke-linecap: butt; stroke-linejoin: miter; fill: none; "
       id="path12" />
    <path
       d="  M78.5602,67.0546 L77.6490,67.4190 L77.6490,70.1524"
       style="stroke-width: 0.7200; stroke: #000000; stroke-dasharray: none; stroke-linecap: butt; stroke-linejoin: miter; fill: none; "
       id="path13" />
    <g
       id="Layer1053">
      <defs
         id="defs14">
        <linearGradient
           id="grad168">
          <stop
             offset="0%"
             stop-color="#8a8aff"
             stop-opacity="1.0000"
             id="stop13" />
          <stop
             offset="100%"
             stop-color="#ffffff"
             stop-opacity="1.0000"
             id="stop14" />
        </linearGradient>
        <linearGradient
           xlink:href="#grad168"
           id="grad169"
           x1="0"
           y1="0"
           x2="0"
           y2="1"
           gradientTransform="rotate(135 .5 .5)"
           gradientUnits="objectBoundingBox" />
      </defs>
      <path
         d="  M49.6063,68.0315 L52.3397,68.0315 L52.3397,66.2092 L49.6063,66.2092 L49.6063,68.0315 Z"
         style="stroke-width: 0.2400; stroke-linecap: round; stroke-linejoin: round; fill-rule: evenodd; fill: url(#grad169); "
         id="path14" />
      <path
         d="  M49.6063,68.0315 L52.3397,68.0315 L52.3397,66.2092 L49.6063,66.2092 L49.6063,68.0315 Z"
         style="stroke-width: 0.2400; stroke: #000000; stroke-dasharray: none; stroke-linecap: round; stroke-linejoin: round; fill: none; "
         id="path15" />
    </g>
    <path
       d="  M70.8661,72.2835 C62.3622,72.2835 61.1034,71.2328 58.8544,70.6813 C57.3011,70.3004 55.2756,70.1575 52.4409,70.1575 L48.1890,70.1575 L48.1890,70.8661 L52.4409,70.8661 C55.2756,70.8661 57.3011,71.0090 58.8544,71.3900 C61.1034,71.9415 62.3622,72.9921 70.8661,72.9921 C79.3701,72.9921 80.6289,71.9415 82.8779,71.3900 C84.4312,71.0090 86.4567,70.8661 89.2913,70.8661 L93.5433,70.8661 L93.5433,70.1575 L89.2913,70.1575 C86.4567,70.1575 84.4312,70.3074 82.8779,70.6896 C80.6289,71.2430 79.3701,72.2835 70.8661,72.2835 Z"
       style="fill-rule: evenodd; fill: #9a9a9a; "
       id="path16" />
    <path
       d="  M70.8661,72.6378 C62.3622,72.6378 61.1034,71.5872 58.8544,71.0356 C57.3011,70.6547 55.2756,70.5118 52.4409,70.5118 L48.1890,70.5118 L48.1890,71.2205 L52.4409,71.2205 C55.2756,71.2205 57.3011,71.3634 58.8544,71.7443 C61.1034,72.2958 62.3622,73.3465 70.8661,73.3465 C79.3701,73.3465 80.6289,72.2958 82.8779,71.7443 C84.4312,71.3634 86.4567,71.2205 89.2913,71.2205 L93.5433,71.2205 L93.5433,70.5118 L89.2913,70.5118 C86.4567,70.5118 84.4312,70.6617 82.8779,71.0440 C80.6289,71.5974 79.3701,72.6378 70.8661,72.6378 Z"
       style="fill-rule: evenodd; fill: #e6e6e6; "
       id="path17" />
    <!--converted by libvisio2svg-->
  </g>
</svg>
