<?xml version="1.0" encoding="UTF-8" standalone="no"?>
<svg
   version="1.1"
   width="1.9685000000"
   height="1.9685000000"
   viewBox="0 0 141.7323 141.7323"
   id="svg19"
   sodipodi:docname="Terminal_server.svg"
   inkscape:version="1.4 (e7c3feb1, 2024-10-09)"
   xmlns:inkscape="http://www.inkscape.org/namespaces/inkscape"
   xmlns:sodipodi="http://sodipodi.sourceforge.net/DTD/sodipodi-0.dtd"
   xmlns="http://www.w3.org/2000/svg"
   xmlns:svg="http://www.w3.org/2000/svg">
  <defs
     id="defs19" />
  <sodipodi:namedview
     id="namedview19"
     pagecolor="#ffffff"
     bordercolor="#000000"
     borderopacity="0.25"
     inkscape:showpageshadow="2"
     inkscape:pageopacity="0.0"
     inkscape:pagecheckerboard="0"
     inkscape:deskcolor="#d1d1d1"
     inkscape:zoom="97.935989"
     inkscape:cx="3.0274877"
     inkscape:cy="0.90875684"
     inkscape:window-width="2560"
     inkscape:window-height="1027"
     inkscape:window-x="0"
     inkscape:window-y="25"
     inkscape:window-maximized="1"
     inkscape:current-layer="svg19" />
  <title
     id="title1"><![CDATA[Terminal server]]></title>
  <g
     transform=" scale(1.000000) "
     id="g19">
    <path
       d="  M49.6063,76.5354 L92.1260,76.5354 L92.1260,75.1181 L49.6063,75.1181 L49.6063,76.5354 Z"
       style="fill-rule: evenodd; fill: #9a9a9a; "
       id="path1" />
    <path
       d="  M92.1260,76.5354 L96.3780,72.2835 L96.3780,70.8661 L92.1260,75.1181 L92.1260,76.5354 Z"
       style="fill-rule: evenodd; fill: #9a9a9a; "
       id="path2" />
    <g
       id="Layer1064">
      <path
         d="  M48.1890,75.1181 L93.5433,75.1181 L93.5433,65.1969 L48.1890,65.1969 L48.1890,75.1181 Z"
         style="stroke-width: 0.2400; stroke-linecap: round; stroke-linejoin: round; fill-rule: evenodd; fill: #c0c0c0; "
         id="path3" />
      <path
         d="  M48.1890,75.1181 L93.5433,75.1181 L93.5433,65.1969 L48.1890,65.1969 L48.1890,75.1181 Z"
         style="stroke-width: 0.2400; stroke: #000000; stroke-dasharray: none; stroke-linecap: round; stroke-linejoin: round; fill: none; "
         id="path4" />
    </g>
    <path
       d="  M93.5433,65.1969 L99.2126,59.5276 L99.2126,69.4488 L93.5433,75.1181 L93.5433,65.1969 Z"
       style="fill-rule: evenodd; fill: #9a9a9a; "
       id="path5" />
    <path
       d="  M99.2126,59.5276 L53.8583,59.5276 L48.1890,65.1969 L93.5433,65.1969 L99.2126,59.5276 Z"
       style="fill-rule: evenodd; fill: #e6e6e6; "
       id="path6" />
    <path
       d="  M76.5354,66.6142 L93.5433,66.6142 M76.5354,65.1969 L76.5354,75.1181 M76.5354,68.0315 L93.5433,68.0315 M76.5354,69.4488 L93.5433,69.4488"
       style="stroke-width: 0.1200; stroke: #000000; stroke-dasharray: none; stroke-linecap: butt; stroke-linejoin: miter; fill: none; "
       id="path7" />
    <g
       id="Layer1065">
      <path
         d="  M77.9528,73.4572 L91.4173,73.4572 L91.4173,70.8661 L77.9528,70.8661 L77.9528,73.4572 Z"
         style="stroke-width: 0.2400; stroke-linecap: round; stroke-linejoin: round; fill-rule: evenodd; fill: #666666; "
         id="path8" />
      <path
         d="  M77.9528,73.4572 L91.4173,73.4572 L91.4173,70.8661 L77.9528,70.8661 L77.9528,73.4572 Z"
         style="stroke-width: 0.2400; stroke: #000000; stroke-dasharray: none; stroke-linecap: round; stroke-linejoin: round; fill: none; "
         id="path9" />
    </g>
    <defs
       id="defs10">
      <linearGradient
         id="grad188">
        <stop
           offset="0%"
           stop-color="#e6e6e6"
           stop-opacity="1.0000"
           id="stop9" />
        <stop
           offset="100%"
           stop-color="#c0c0c0"
           stop-opacity="1.0000"
           id="stop10" />
      </linearGradient>
    </defs>
    <path
       d="  M50.3150,74.4094 L75.8268,74.4094 L75.8268,65.9055 L50.3150,65.9055 L50.3150,74.4094 Z"
       style="fill-rule: evenodd; fill: url(#grad188); "
       id="path10" />
    <g
       id="Layer1066">
      <path
         d="  M51.3780,73.5790 L53.8583,73.5790 L53.8583,72.2835 L51.3780,72.2835 L51.3780,73.5790 Z"
         style="stroke-width: 0.1200; stroke-linecap: butt; stroke-linejoin: miter; fill-rule: evenodd; fill: #00ff00; "
         id="path11" />
      <path
         d="  M51.3780,73.5790 L53.8583,73.5790 L53.8583,72.2835 L51.3780,72.2835 L51.3780,73.5790 Z"
         style="stroke-width: 0.1200; stroke: #000000; stroke-dasharray: none; stroke-linecap: butt; stroke-linejoin: miter; fill: none; "
         id="path12" />
    </g>
    <g
       id="Layer1067">
      <path
         d="  M55.2756,73.5790 L57.7559,73.5790 L57.7559,72.2835 L55.2756,72.2835 L55.2756,73.5790 Z"
         style="stroke-width: 0.1200; stroke-linecap: butt; stroke-linejoin: miter; fill-rule: evenodd; fill: #00ff00; "
         id="path13" />
      <path
         d="  M55.2756,73.5790 L57.7559,73.5790 L57.7559,72.2835 L55.2756,72.2835 L55.2756,73.5790 Z"
         style="stroke-width: 0.1200; stroke: #000000; stroke-dasharray: none; stroke-linecap: butt; stroke-linejoin: miter; fill: none; "
         id="path14" />
    </g>
    <g
       id="Layer1068">
      <path
         d="  M58.9961,73.5790 L61.4764,73.5790 L61.4764,72.2835 L58.9961,72.2835 L58.9961,73.5790 Z"
         style="stroke-width: 0.1200; stroke-linecap: butt; stroke-linejoin: miter; fill-rule: evenodd; fill: #00ff00; "
         id="path15" />
      <path
         d="  M58.9961,73.5790 L61.4764,73.5790 L61.4764,72.2835 L58.9961,72.2835 L58.9961,73.5790 Z"
         style="stroke-width: 0.1200; stroke: #000000; stroke-dasharray: none; stroke-linecap: butt; stroke-linejoin: miter; fill: none; "
         id="path16" />
    </g>
    <g
       id="Layer1069">
      <path
         d="  M62.7165,73.5790 L65.1969,73.5790 L65.1969,72.2835 L62.7165,72.2835 L62.7165,73.5790 Z"
         style="stroke-width: 0.1200; stroke-linecap: butt; stroke-linejoin: miter; fill-rule: evenodd; fill: #00ff00; "
         id="path17" />
      <path
         d="  M62.7165,73.5790 L65.1969,73.5790 L65.1969,72.2835 L62.7165,72.2835 L62.7165,73.5790 Z"
         style="stroke-width: 0.1200; stroke: #000000; stroke-dasharray: none; stroke-linecap: butt; stroke-linejoin: miter; fill: none; "
         id="path18" />
    </g>
    <path
       d="  M49.6063,76.5354 L49.6063,75.1181 L48.1890,75.1181 L48.1890,65.1969 L53.8583,59.5276 L99.2126,59.5276 L99.2126,69.4488 L92.1260,76.5354 L49.6063,76.5354 Z"
       style="stroke-width: 0.7200; stroke: #000000; stroke-dasharray: none; stroke-linecap: round; stroke-linejoin: round; fill: none; "
       id="path19" />
    <!--converted by libvisio2svg-->
  </g>
</svg>
