<svg xmlns="http://www.w3.org/2000/svg" xmlns:xlink="http://www.w3.org/1999/xlink" version="1.1" width="1.9685000000" height="1.9685000000" viewBox="0 0 141.7323 141.7323">
  <title><![CDATA[WAN]]></title>
  <g transform=" scale(1.000000) ">
    <path xmlns="http://www.w3.org/2000/svg" d="  M51.0236,85.7480 L70.8661,70.8661 M70.8661,91.7008 L70.8661,70.8661 M90.7087,85.7480 L70.8661,70.8661 M100.6299,70.8661 L70.8661,70.8661 M90.7087,55.9843 L70.8661,70.8661 M70.8661,48.5433 L70.8661,70.8661 M57.2244,58.4646 L70.8661,70.8661 M41.1024,70.8661 L70.8661,70.8661" style="stroke-width: 0.2400; stroke: #000000; stroke-dasharray: none; stroke-linecap: round; stroke-linejoin: round; fill: none; "/>
    <defs xmlns="http://www.w3.org/2000/svg">
      <radialGradient id="grad84" cx="50.0000%" cy="50.0000%" r="100.0000%">
        <stop offset="0%" stop-color="#c0c0c0" stop-opacity="1.0000"/>
        <stop offset="100%" stop-color="#e6e6e6" stop-opacity="1.0000"/>
      </radialGradient>
    </defs>
    <path xmlns="http://www.w3.org/2000/svg" d="  M36.5356,68.9907 A11.4252,15.1187 0.0000 0,1 53.7726,59.0619 A7.9724,10.5497 0.0000 0,1 67.7650,55.3051 A4.5379,6.0049 0.0000 0,1 75.0654,48.5965 A9.5249,12.6040 0.0000 0,1 84.1909,46.9864 A6.3442,8.3951 0.0000 0,1 96.3582,47.2548 A8.1564,10.7932 0.0000 0,1 105.6865,61.7454 A4.8955,6.4781 0.0000 0,1 108.1200,73.8209 A10.2804,13.6038 0.0000 0,1 96.3582,89.6533 A5.8606,4.4658 84.9579 0,1 88.7244,91.1055 A10.5721,8.2150 80.8981 0,1 78.8031,95.8677 A12.8578,11.1466 106.0257 0,1 70.2179,96.8123 A11.4434,15.1427 0.0000 0,1 53.5698,94.7518 A3.7213,4.9242 0.0000 0,1 47.2834,90.9950 A8.5717,11.3428 0.0000 0,1 36.3328,86.7015 A6.8901,9.1175 0.0000 0,1 36.5356,68.9907 Z" style="fill-rule: evenodd; fill: url(#grad84); "/>
    <defs xmlns="http://www.w3.org/2000/svg">
      <radialGradient id="grad85" cx="100.0000%" cy="100.0000%" r="100.0000%">
        <stop offset="0%" stop-color="#c0c0c0" stop-opacity="1.0000"/>
        <stop offset="100%" stop-color="#e6e6e6" stop-opacity="1.0000"/>
      </radialGradient>
    </defs>
    <path xmlns="http://www.w3.org/2000/svg" d="  M39.8143,74.8032 A8.6832,6.6522 0.0000 0,1 52.9144,70.4345 A6.0590,4.6419 0.0000 0,1 63.5487,68.7815 A3.4488,2.6421 0.0000 0,1 69.0970,65.8297 A7.2389,5.5458 0.0000 0,1 76.0323,65.1213 A4.8216,3.6938 0.0000 0,1 85.2795,65.2393 A6.1989,4.7490 0.0000 0,1 92.3690,71.6152 A3.7206,2.8504 0.0000 0,1 94.2184,76.9284 A7.8131,5.9857 0.0000 0,1 85.2795,83.8947 A3.9214,3.0042 0.0000 0,1 78.4982,83.4224 A5.6484,4.3273 0.0000 0,1 67.7099,82.7140 A8.0194,6.1437 0.0000 0,1 65.4129,87.0446 A8.6970,6.6628 0.0000 0,1 52.7603,86.1380 A2.8282,2.1667 0.0000 0,1 47.9826,84.4850 A6.5145,4.9908 0.0000 0,1 39.6602,82.5959 A5.2365,4.0117 0.0000 0,1 39.8143,74.8032 Z" style="fill-rule: evenodd; fill: url(#grad85); "/>
    <defs xmlns="http://www.w3.org/2000/svg">
      <radialGradient id="grad86" cx="100.0000%" cy="100.0000%" r="100.0000%">
        <stop offset="0%" stop-color="#c0c0c0" stop-opacity="1.0000"/>
        <stop offset="100%" stop-color="#e6e6e6" stop-opacity="1.0000"/>
      </radialGradient>
    </defs>
    <path xmlns="http://www.w3.org/2000/svg" d="  M70.9434,56.9449 A4.3987,6.6522 0.0000 0,1 77.5796,52.5762 A3.0694,4.6419 0.0000 0,1 82.9667,50.9232 A1.7471,2.6421 0.0000 0,1 85.7774,47.9714 A3.6671,5.5458 0.0000 0,1 89.2907,47.2630 A2.4425,3.6938 0.0000 0,1 93.9751,47.3811 A3.1402,4.7490 0.0000 0,1 97.5665,53.7569 A1.8848,2.8504 0.0000 0,1 98.5033,59.0702 A3.9579,5.9857 0.0000 0,1 93.9751,66.0364 A1.9865,3.0042 0.0000 0,1 90.5398,65.5641 A2.8614,4.3273 0.0000 0,1 85.0747,64.8557 A6.1437,4.0625 90.0000 0,1 83.9111,69.1864 A4.4057,6.6628 0.0000 0,1 77.5015,68.2798 A1.4327,2.1667 0.0000 0,1 75.0813,66.6268 A3.3001,4.9908 0.0000 0,1 70.8653,64.7376 A2.6527,4.0117 0.0000 0,1 70.9434,56.9449 Z" style="fill-rule: evenodd; fill: url(#grad86); "/>
    <defs xmlns="http://www.w3.org/2000/svg">
      <radialGradient id="grad87" cx="100.0000%" cy="100.0000%" r="100.0000%">
        <stop offset="0%" stop-color="#c0c0c0" stop-opacity="1.0000"/>
        <stop offset="100%" stop-color="#e6e6e6" stop-opacity="1.0000"/>
      </radialGradient>
    </defs>
    <path xmlns="http://www.w3.org/2000/svg" d="  M77.8347,76.3318 A4.2845,3.9269 0.0000 0,1 84.2986,73.7529 A2.9897,2.7402 0.0000 0,1 89.5457,72.7771 A1.7017,1.5597 0.0000 0,1 92.2834,71.0346 A3.5718,3.2738 0.0000 0,1 95.7054,70.6164 A2.3791,2.1805 0.0000 0,1 100.2682,70.6861 A3.0587,2.8034 0.0000 0,1 103.7663,74.4499 A1.8358,1.6826 0.0000 0,1 104.6788,77.5864 A3.8551,3.5334 0.0000 0,1 100.2682,81.6987 A1.9349,1.7735 0.0000 0,1 96.9222,81.4199 A2.7870,2.5545 0.0000 0,1 91.5990,81.0017 A3.9570,3.6268 0.0000 0,1 90.4656,83.5581 A4.2913,3.9332 0.0000 0,1 84.2225,83.0230 A1.3955,1.2790 0.0000 0,1 81.8651,82.0472 A3.2144,2.9462 0.0000 0,1 77.7587,80.9320 A2.5838,2.3682 0.0000 0,1 77.8347,76.3318 Z" style="fill-rule: evenodd; fill: url(#grad87); "/>
    <!--converted by libvisio2svg-->
  </g>
</svg>
