<?xml version="1.0" encoding="UTF-8" standalone="no"?>
<svg
   version="1.1"
   width="1.9685000000"
   height="1.9685000000"
   viewBox="0 0 141.7323 141.7323"
   id="svg31"
   sodipodi:docname="Workstation.svg"
   inkscape:version="1.4 (e7c3feb1, 2024-10-09)"
   xmlns:inkscape="http://www.inkscape.org/namespaces/inkscape"
   xmlns:sodipodi="http://sodipodi.sourceforge.net/DTD/sodipodi-0.dtd"
   xmlns:xlink="http://www.w3.org/1999/xlink"
   xmlns="http://www.w3.org/2000/svg"
   xmlns:svg="http://www.w3.org/2000/svg">
  <defs
     id="defs31" />
  <sodipodi:namedview
     id="namedview31"
     pagecolor="#ffffff"
     bordercolor="#000000"
     borderopacity="0.25"
     inkscape:showpageshadow="2"
     inkscape:pageopacity="0.0"
     inkscape:pagecheckerboard="0"
     inkscape:deskcolor="#d1d1d1"
     inkscape:zoom="137.79904"
     inkscape:cx="-1.629184"
     inkscape:cy="2.743125"
     inkscape:window-width="2560"
     inkscape:window-height="1027"
     inkscape:window-x="0"
     inkscape:window-y="25"
     inkscape:window-maximized="1"
     inkscape:current-layer="svg31" />
  <title
     id="title1"><![CDATA[Workstation]]></title>
  <g
     transform=" scale(1.000000) "
     id="g31">
    <path
       d="  M92.1260,92.1260 L97.4409,86.8110 L97.4409,78.8386 L92.1260,84.1535 L92.1260,92.1260 Z"
       style="fill-rule: evenodd; fill: #9a9a9a; "
       id="path1" />
    <path
       d="  M93.4547,82.8248 L97.4409,78.8386 L89.4685,78.8386 L93.4547,82.8248 Z"
       style="fill-rule: evenodd; fill: #e6e6e6; "
       id="path2" />
    <path
       d="  M60.2362,84.1535 L52.2638,81.4961 L49.6063,84.1535 L60.2362,84.1535 Z"
       style="fill-rule: evenodd; fill: #e6e6e6; "
       id="path3" />
    <path
       d="  M96.1122,80.1673 L93.4547,78.8386 L54.9213,78.8386 L52.2638,81.4961 L60.2362,84.1535 L92.1260,84.1535 L96.1122,80.1673 Z"
       style="fill-rule: evenodd; fill: #9a9a9a; "
       id="path4" />
    <defs
       id="defs5">
      <radialGradient
         id="grad23"
         cx="0.0000%"
         cy="0.0000%"
         r="100.0000%">
        <stop
           offset="0%"
           stop-color="#666666"
           stop-opacity="1.0000"
           id="stop4" />
        <stop
           offset="100%"
           stop-color="#c0c0c0"
           stop-opacity="1.0000"
           id="stop5" />
      </radialGradient>
    </defs>
    <path
       d="  M58.5753,81.8128 A14.9483,2.0199 0.0591 1,0 88.4719,81.8437 L58.5755,81.8014 Z"
       style="fill-rule: evenodd; fill: url(#grad23); "
       id="path5" />
    <g
       id="Layer1013">
      <defs
         id="defs7">
        <linearGradient
           id="grad24">
          <stop
             offset="0%"
             stop-color="#e6e6e6"
             stop-opacity="1.0000"
             id="stop6" />
          <stop
             offset="100%"
             stop-color="#c0c0c0"
             stop-opacity="1.0000"
             id="stop7" />
        </linearGradient>
        <linearGradient
           xlink:href="#grad24"
           id="grad25"
           x1="0"
           y1="0"
           x2="0"
           y2="1"
           gradientTransform="rotate(90 .5 .5)"
           gradientUnits="objectBoundingBox" />
      </defs>
      <path
         d="  M49.6063,84.1535 L92.1260,84.1535 L92.1260,92.1260 L49.6063,92.1260 L49.6063,84.1535 Z"
         style="stroke-width: 0.2400; stroke-linecap: round; stroke-linejoin: round; fill-rule: evenodd; fill: url(#grad25); "
         id="path7" />
      <path
         d="  M49.6063,84.1535 L92.1260,84.1535 L92.1260,92.1260 L49.6063,92.1260 L49.6063,84.1535 Z"
         style="stroke-width: 0.2400; stroke: #000000; stroke-dasharray: none; stroke-linecap: round; stroke-linejoin: round; fill: none; "
         id="path8" />
    </g>
    <g
       id="Layer1014">
      <defs
         id="defs10">
        <linearGradient
           id="grad26">
          <stop
             offset="0%"
             stop-color="#9a9a9a"
             stop-opacity="1.0000"
             id="stop8" />
          <stop
             offset="50%"
             stop-color="#e6e6e6"
             stop-opacity="1.0000"
             id="stop9" />
          <stop
             offset="100%"
             stop-color="#9a9a9a"
             stop-opacity="1.0000"
             id="stop10" />
        </linearGradient>
        <linearGradient
           xlink:href="#grad26"
           id="grad27"
           x1="0"
           y1="0"
           x2="0"
           y2="1"
           gradientTransform="rotate(-0 .5 .5)"
           gradientUnits="objectBoundingBox" />
      </defs>
      <path
         d="  M49.9859,87.1907 L91.7463,87.1907 L91.7463,86.0517 L49.9859,86.0517 L49.9859,87.1907 Z"
         style="stroke-width: 0.1200; stroke-linecap: round; stroke-linejoin: round; fill-rule: evenodd; fill: url(#grad27); "
         id="path10" />
      <path
         d="  M49.9859,87.1907 L91.7463,87.1907 L91.7463,86.0517 L49.9859,86.0517 L49.9859,87.1907 Z"
         style="stroke-width: 0.1200; stroke: #000000; stroke-dasharray: none; stroke-linecap: round; stroke-linejoin: round; fill: none; "
         id="path11" />
    </g>
    <g
       id="Layer1015">
      <path
         d="  M53.5166,87.1907 L60.8816,87.1907 L60.8816,86.0517 L53.5166,86.0517 L53.5166,87.1907 Z"
         style="stroke-width: 0.1200; stroke-linecap: round; stroke-linejoin: round; fill-rule: evenodd; fill: #000000; "
         id="path12" />
      <path
         d="  M53.5166,87.1907 L60.8816,87.1907 L60.8816,86.0517 L53.5166,86.0517 L53.5166,87.1907 Z"
         style="stroke-width: 0.1200; stroke: #000000; stroke-dasharray: none; stroke-linecap: round; stroke-linejoin: round; fill: none; "
         id="path13" />
    </g>
    <defs
       id="defs14">
      <linearGradient
         id="grad28">
        <stop
           offset="0%"
           stop-color="#9a9a9a"
           stop-opacity="1.0000"
           id="stop13" />
        <stop
           offset="100%"
           stop-color="#e6e6e6"
           stop-opacity="1.0000"
           id="stop14" />
      </linearGradient>
      <linearGradient
         xlink:href="#grad28"
         id="grad29"
         x1="0"
         y1="0"
         x2="0"
         y2="1"
         gradientTransform="rotate(315 .5 .5)"
         gradientUnits="objectBoundingBox" />
    </defs>
    <path
       d="  M52.7621,91.0229 L54.1503,89.6346 L52.7621,88.2463 L51.3738,89.6346 L52.7621,91.0229 Z"
       style="fill-rule: evenodd; fill: url(#grad29); "
       id="path14" />
    <defs
       id="defs17">
      <linearGradient
         id="grad30">
        <stop
           offset="0%"
           stop-color="#dbdac6"
           stop-opacity="1.0000"
           id="stop15" />
        <stop
           offset="50%"
           stop-color="#9a9a9a"
           stop-opacity="1.0000"
           id="stop16" />
        <stop
           offset="100%"
           stop-color="#dbdac6"
           stop-opacity="1.0000"
           id="stop17" />
      </linearGradient>
    </defs>
    <path
       d="  M56.0839,90.9396 L60.2362,90.9396 L60.2362,89.8007 L56.0839,89.8007 L56.0839,90.9396 Z"
       style="fill-rule: evenodd; fill: url(#grad30); "
       id="path17" />
    <defs
       id="defs19">
      <linearGradient
         id="grad31">
        <stop
           offset="0%"
           stop-color="#9a9a9a"
           stop-opacity="1.0000"
           id="stop18" />
        <stop
           offset="100%"
           stop-color="#e6e6e6"
           stop-opacity="1.0000"
           id="stop19" />
      </linearGradient>
      <linearGradient
         xlink:href="#grad31"
         id="grad32"
         x1="0"
         y1="0"
         x2="0"
         y2="1"
         gradientTransform="rotate(135 .5 .5)"
         gradientUnits="objectBoundingBox" />
    </defs>
    <path
       d="  M52.7621,90.5511 L53.6786,89.6346 L52.7621,88.7181 L51.8455,89.6346 L52.7621,90.5511 Z"
       style="fill-rule: evenodd; fill: url(#grad32); "
       id="path19" />
    <g
       id="Layer1016">
      <path
         d="  M52.7621,89.8244 L52.9519,89.6346 L52.7621,89.4448 L52.5722,89.6346 L52.7621,89.8244 Z"
         style="stroke-width: 0.2400; stroke-linecap: butt; stroke-linejoin: miter; fill-rule: evenodd; fill: #00ff00; "
         id="path20" />
      <path
         d="  M52.7621,89.8244 L52.9519,89.6346 L52.7621,89.4448 L52.5722,89.6346 L52.7621,89.8244 Z"
         style="stroke-width: 0.2400; stroke: #000000; stroke-dasharray: none; stroke-linecap: butt; stroke-linejoin: miter; fill: none; "
         id="path21" />
    </g>
    <path
       d="  M90.8778,82.0732 L95.8706,77.0804 L95.8706,67.9268 L97.5349,62.9340 L97.5349,42.9626 L90.8778,49.6197 L90.8778,82.0732 Z"
       style="fill-rule: evenodd; fill: #9a9a9a; "
       id="path22" />
    <path
       d="  M97.5349,42.9626 L57.5922,42.9626 L50.9350,49.6197 L90.8778,49.6197 L97.5349,42.9626 Z"
       style="fill-rule: evenodd; fill: #e6e6e6; "
       id="path23" />
    <g
       id="Layer1017">
      <path
         d="  M50.9350,49.6197 L50.9350,82.0031 L90.8778,82.0031 L90.8778,49.6197 L50.9350,49.6197 Z"
         style="stroke-width: 0.2400; stroke-linecap: round; stroke-linejoin: round; fill-rule: evenodd; fill: #c0c0c0; "
         id="path24" />
      <path
         d="  M50.9350,49.6197 L50.9350,82.0031 L90.8778,82.0031 L90.8778,49.6197 L50.9350,49.6197 Z"
         style="stroke-width: 0.2400; stroke: #000000; stroke-dasharray: none; stroke-linecap: round; stroke-linejoin: round; fill: none; "
         id="path25" />
    </g>
    <path
       d="  M86.8835,78.9671 L88.8806,78.9671 L88.8806,77.9552 L86.8835,77.9552 L86.8835,78.9671 Z"
       style="fill-rule: evenodd; fill: #00ff00; "
       id="path26" />
    <defs
       id="defs27">
      <linearGradient
         id="grad33">
        <stop
           offset="0%"
           stop-color="#8a8aff"
           stop-opacity="1.0000"
           id="stop26" />
        <stop
           offset="100%"
           stop-color="#ffffff"
           stop-opacity="1.0000"
           id="stop27" />
      </linearGradient>
      <linearGradient
         xlink:href="#grad33"
         id="grad34"
         x1="0"
         y1="0"
         x2="0"
         y2="1"
         gradientTransform="rotate(135 .5 .5)"
         gradientUnits="objectBoundingBox" />
    </defs>
    <path
       d="  M56.1055,54.1704 L85.0528,54.1704 L85.0528,74.5650 L56.1055,74.5650 L56.1055,54.1704 Z"
       style="fill-rule: evenodd; fill: url(#grad34); "
       id="path27" />
    <path
       d="  M79.5979,87.7601 L78.8386,88.3296 L79.5979,88.8990 M82.6350,87.7601 L81.8757,88.3296 L82.6350,88.8990 M85.6721,87.7601 L84.9128,88.3296 L85.6721,88.8990 M88.7092,87.7601 L87.9499,88.3296 L88.7092,88.8990 M76.5607,87.7601 L75.8015,88.3296 L76.5607,88.8990 M70.4865,87.7601 L69.7272,88.3296 L70.4865,88.8990 M73.5236,87.7601 L72.7643,88.3296 L73.5236,88.8990 M61.3751,87.7601 L60.6159,88.3296 L61.3751,88.8990 M64.4123,87.7601 L63.6530,88.3296 L64.4123,88.8990 M67.4494,87.7601 L66.6901,88.3296 L67.4494,88.8990 M63.6530,90.0380 L62.8937,90.6074 L63.6530,91.1769 M87.1907,90.0380 L86.4314,90.6074 L87.1907,91.1769 M90.2278,90.0380 L89.4685,90.6074 L90.2278,91.1769 M81.4961,90.0380 L80.7368,90.6074 L81.4961,91.1769 M84.5332,90.0380 L83.7739,90.6074 L84.5332,91.1769 M69.3476,90.0380 L68.5883,90.6074 L69.3476,91.1769 M72.3847,90.0380 L71.6254,90.6074 L72.3847,91.1769 M75.4218,90.0380 L74.6625,90.6074 L75.4218,91.1769 M78.4589,90.0380 L77.6997,90.6074 L78.4589,91.1769 M66.3105,90.0380 L65.5512,90.6074 L66.3105,91.1769 M58.3380,87.7601 L57.5787,88.3296 L58.3380,88.8990 M55.3009,87.7601 L54.5416,88.3296 L55.3009,88.8990"
       style="stroke-width: 0.2400; stroke: #000000; stroke-dasharray: none; stroke-linecap: round; stroke-linejoin: round; fill: none; "
       id="path28" />
    <defs
       id="defs29">
      <linearGradient
         id="grad35">
        <stop
           offset="0%"
           stop-color="#9a9a9a"
           stop-opacity="1.0000"
           id="stop28" />
        <stop
           offset="100%"
           stop-color="#e6e6e6"
           stop-opacity="1.0000"
           id="stop29" />
      </linearGradient>
      <linearGradient
         xlink:href="#grad35"
         id="grad36"
         x1="0"
         y1="0"
         x2="0"
         y2="1"
         gradientTransform="rotate(315 .5 .5)"
         gradientUnits="objectBoundingBox" />
    </defs>
    <path
       d="  M57.1761,74.3818 L57.1761,55.3285 L84.6367,55.3285 L84.6367,74.3818 L57.1761,74.3818 Z M55.9279,75.6520 L85.8849,75.6520 L85.8849,54.0583 L87.1331,54.0583 L87.1331,52.7881 L54.6797,52.7881 L54.6797,53.8374 L54.6797,76.9222 L55.9279,76.9222 L55.9279,75.6520 Z"
       style="fill-rule: evenodd; fill: url(#grad36); "
       id="path29" />
    <path
       d="  M61.9193,79.9791 L61.9193,82.0031 M56.9264,79.9791 L56.9264,82.0031 M50.9350,79.9791 L90.8778,79.9791"
       style="stroke-width: 0.2400; stroke: #000000; stroke-dasharray: none; stroke-linecap: round; stroke-linejoin: round; fill: none; "
       id="path30" />
    <path
       d="  M49.6063,92.1260 L49.6063,84.1535 L51.5994,82.1604 L50.9350,82.1604 L50.9350,49.6063 L57.5787,42.9626 L97.4409,42.9626 L97.4409,63.2259 L95.7800,67.8765 L95.7800,76.8455 L94.1191,78.8386 L97.4409,78.8386 L97.4409,86.8110 L92.1260,92.1260 L49.6063,92.1260 Z"
       style="stroke-width: 0.7200; stroke: #000000; stroke-dasharray: none; stroke-linecap: round; stroke-linejoin: round; fill: none; "
       id="path31" />
    <!--converted by libvisio2svg-->
  </g>
</svg>
